<svg width="391" height="511" viewBox="0 0 391 511" fill="none" xmlns="http://www.w3.org/2000/svg">
    <g clip-path="url(#clip0_1_3074)">
        <mask id="mask0_1_3074" style="mask-type:luminance" maskUnits="userSpaceOnUse" x="17" y="56" width="356" height="441">
            <path d="M17.8575 56.8274V185.491C45.2205 409.477 196.392 496.718 196.392 496.718C196.392 496.718 361.269 384.266 372.809 185.491V56.8274H17.8575Z" fill="white"/>
        </mask>
        <g mask="url(#mask0_1_3074)">
            <path d="M326.962 615.765L-129.676 439.901L63.7046 -62.2183L520.345 113.646L326.962 615.765Z" fill="url(#paint0_linear_1_3074)"/>
        </g>
        <mask id="mask1_1_3074" style="mask-type:luminance" maskUnits="userSpaceOnUse" x="0" y="-2" width="391" height="513">
            <path d="M390.658 -1.81519H0.158081V510.186H390.658V-1.81519Z" fill="white"/>
        </mask>
        <g mask="url(#mask1_1_3074)">
            <path d="M232.063 239.671C234.558 239.898 237.084 240.034 239.631 240.065C237.082 240.034 234.558 239.898 232.063 239.671Z" fill="white"/>
        </g>
        <mask id="mask2_1_3074" style="mask-type:luminance" maskUnits="userSpaceOnUse" x="0" y="-2" width="391" height="513">
            <path d="M390.658 -1.81519H0.158081V510.186H390.658V-1.81519Z" fill="white"/>
        </mask>
        <g mask="url(#mask2_1_3074)">
            <path d="M226.44 239.039V239.061L226.453 239.039H226.44Z" fill="white"/>
        </g>
        <mask id="mask3_1_3074" style="mask-type:luminance" maskUnits="userSpaceOnUse" x="0" y="-2" width="391" height="513">
            <path d="M390.658 -1.81519H0.158081V510.186H390.658V-1.81519Z" fill="white"/>
        </mask>
        <g mask="url(#mask3_1_3074)">
            <path d="M155.378 224.569L115.506 223.512L114.789 239.339C114.789 239.339 108.932 239 102.756 239.339C96.5712 239.711 96.2227 248.29 96.2227 248.29C96.2227 248.29 91.4014 247.948 86.2544 249.317C81.1024 250.698 81.7898 258.615 81.7898 258.615C81.7898 258.615 68.3685 258.964 63.9007 264.116C59.428 269.295 58.752 279.928 63.2311 286.124C67.6876 292.32 93.1279 328.755 99.6627 343.201C106.197 357.663 107.24 406.501 107.24 406.501L107.626 407.667L107.643 407.678C130.448 435.826 159.176 462.929 195.453 487.256C207.742 479.027 219.164 470.437 229.771 461.613L163.634 385.274L167.685 381.763L168.969 381.693C169.399 381.665 169.819 381.646 170.261 381.646C172.644 381.669 174.972 381.944 177.639 381.934C181.885 381.934 186.886 381.333 193.352 377.924C196.008 376.494 197.747 374.505 198.914 372.081C200.088 369.645 200.623 366.819 200.591 364.091C200.623 361.163 199.929 358.354 199.15 356.83C197.903 354.28 195.076 352.284 191.961 351.039C188.868 349.766 185.725 349.262 184.597 349.136C184.268 349.077 184.157 349.077 184.157 349.077H183.96L180.199 348.41L167.779 334.572L173.665 329.489L184.201 341.205L185.017 341.345C185.821 341.434 188.791 341.787 192.351 342.94L177.694 326.002L183.577 320.891L271.097 421.939C272.137 420.775 273.143 419.621 274.151 418.46L187.043 317.915L192.921 312.819L279.285 412.486C280.272 411.304 281.263 410.092 282.232 408.918L196.379 309.827L198.417 308.063C198.417 308.063 201.388 308.908 206.056 309.083L287.182 402.735C288.138 401.501 289.107 400.281 290.053 399.041L212.015 308.968C214.74 308.762 217.742 308.259 220.908 307.34L294.827 392.657C295.741 391.384 296.647 390.129 297.563 388.84L225.512 305.688C228.124 304.368 229.987 302.546 231.288 300.475L302.153 382.26C303.033 380.96 303.939 379.619 304.79 378.308L233.328 295.823C234.644 291.208 234.255 286.565 234.009 284.717L309.182 371.486C310.035 370.134 310.882 368.776 311.716 367.414L230.186 273.314V261.43L315.924 360.391C316.85 358.786 317.779 357.19 318.678 355.57L216.361 237.017C215.323 236.751 214.315 236.438 213.294 236.151C209.136 234.929 205.094 233.438 201.171 231.708C200.427 231.374 199.693 230.998 198.96 230.633C196.473 229.45 194.036 228.179 191.658 226.793C190.832 226.308 190.013 225.804 189.197 225.293C186.897 223.854 184.674 222.336 182.507 220.71C181.829 220.211 181.145 219.718 180.476 219.183C177.91 217.163 175.455 215.027 173.108 212.77C172.973 212.645 172.819 212.535 172.686 212.404C163.217 213.953 155.378 224.569 155.378 224.569Z" fill="white"/>
        </g>
        <mask id="mask4_1_3074" style="mask-type:luminance" maskUnits="userSpaceOnUse" x="0" y="-2" width="391" height="513">
            <path d="M390.658 -1.81348H0.158081V510.187H390.658V-1.81348Z" fill="white"/>
        </mask>
        <g mask="url(#mask4_1_3074)">
            <path d="M28.189 233.947C32.3812 256.065 38.8446 280.645 48.8291 306.255C49.5943 308.194 50.4405 310.154 51.2333 312.108C50.4405 310.154 49.5927 308.194 48.8291 306.244C38.8446 280.643 32.3812 256.064 28.189 233.947Z" fill="white"/>
        </g>
        <mask id="mask5_1_3074" style="mask-type:luminance" maskUnits="userSpaceOnUse" x="0" y="-2" width="391" height="513">
            <path d="M390.658 -1.81348H0.158081V510.187H390.658V-1.81348Z" fill="white"/>
        </mask>
        <g mask="url(#mask5_1_3074)">
            <path d="M0.222926 25.9696V79.8914H0.158081L0.268318 154.426C0.235895 156.112 0.222926 157.895 0.222926 159.785C0.222926 161.619 0.248864 163.6 0.281287 165.618V165.933H0.287771C0.41584 173.471 0.795183 182.202 1.58143 191.983C4.19306 224.092 11.3746 267.264 29.5102 313.799C54.7041 378.504 101.331 449.795 185.822 505.797L195.337 511.866L205.021 505.816C212.95 500.556 220.545 495.173 227.809 489.699C293.162 440.221 332.711 381.413 356.3 326.238L356.399 326.001L356.588 325.52C358.268 321.6 359.861 317.685 361.392 313.784C362.982 309.657 364.504 305.576 365.936 301.511C387.092 241.754 390.652 188.876 390.666 159.781C390.666 158.688 390.648 157.702 390.639 156.679L390.666 156.666V91.904V79.8931V25.9712C263.152 -11.0748 127.728 -11.0748 0.222926 25.9696ZM318.662 344.637L290.344 312.961V219.321C304.729 203.844 311.675 182.8 311.333 159.688C311.025 138.095 304.646 117.72 290.344 101.744V70.7094C298.52 71.8328 310.545 73.9646 318.688 75.3734L318.664 344.637H318.662ZM260.684 278.47L258.089 275.741L231.906 245.394C233.01 245.378 234.116 245.378 235.215 245.326C243.225 244.875 253.482 241.644 260.684 239.06V278.47ZM235.735 456.599L177.78 389.721C179.518 389.721 181.455 389.604 183.537 389.286L239.162 453.574C238.024 454.551 236.873 455.586 235.735 456.599ZM244.953 448.354L191.923 387.122C193.349 386.573 194.797 385.919 196.301 385.166L248.304 445.262C247.21 446.297 246.084 447.321 244.953 448.354ZM253.927 439.853L202.552 380.493C203.613 379.3 204.501 378.037 205.273 376.7L257.178 436.623C256.09 437.698 255.03 438.758 253.927 439.853ZM262.638 431.034L208.095 368.089C208.281 366.737 208.377 365.42 208.377 364.088C208.377 363.141 208.327 362.184 208.233 361.251L265.81 427.691C264.771 428.818 263.693 429.944 262.638 431.034ZM315.923 360.392L230.183 261.432V273.316L311.712 367.416C310.874 368.778 310.033 370.136 309.179 371.488L234.002 284.719C234.253 286.567 234.641 291.21 233.325 295.825L304.787 378.31C303.938 379.621 303.033 380.962 302.149 382.262L231.285 300.476C229.982 302.545 228.122 304.367 225.509 305.69L297.56 388.842C296.647 390.131 295.743 391.384 294.824 392.658L220.903 307.342C217.737 308.261 214.732 308.764 212.012 308.969L290.049 399.042C289.107 400.286 288.135 401.507 287.178 402.737L206.052 309.085C201.385 308.909 198.412 308.065 198.412 308.065L196.376 309.829L282.234 408.915C281.258 410.092 280.271 411.303 279.285 412.483L192.921 312.816L187.043 317.912L274.153 418.457C273.143 419.618 272.136 420.772 271.095 421.936L183.577 320.888L177.694 325.999L192.351 342.937C188.791 341.784 185.821 341.426 185.017 341.342L184.201 341.202L173.666 329.486L167.779 334.569L180.199 348.407L183.96 349.073H184.156C184.156 349.073 184.266 349.073 184.595 349.133C185.723 349.259 188.867 349.763 191.96 351.036C195.074 352.284 197.901 354.275 199.146 356.827C199.925 358.351 200.618 361.162 200.588 364.088C200.622 366.816 200.082 369.642 198.913 372.078C197.744 374.5 196.006 376.493 193.349 377.921C186.884 381.33 181.885 381.931 177.637 381.931C174.971 381.941 172.643 381.666 170.26 381.643C169.82 381.643 169.397 381.666 168.966 381.69L167.682 381.76L163.631 385.271L229.768 461.61C219.161 470.433 207.737 479.024 195.45 487.253C159.168 462.929 130.445 435.826 107.639 407.685L107.622 407.667C82.0881 376.204 64.0742 343.496 51.23 312.108C50.4405 310.158 49.5911 308.195 48.8291 306.259C38.843 280.645 32.3796 256.069 28.1873 233.95C23.5072 209.201 21.7207 187.643 21.1889 171.229V86.2187C98.7517 66.2724 181.462 60.2823 260.681 67.4007V80.1249C250.987 76.2293 238.04 72.4813 227.39 72.4083C180.735 72.0031 144.485 111.275 145.189 158.586C145.876 203.838 179.845 241.252 223.277 245.045L318.675 355.575C317.771 357.193 316.847 358.787 315.923 360.392ZM347.064 292.627C347.064 292.637 347.486 292.643 347.483 292.651V80.809C355.029 82.482 362.125 84.2717 369.627 86.1976V171.232L369.708 171.175C368.794 199.618 364.091 243.748 347.064 292.627Z" fill="black"/>
        </g>
        <mask id="mask6_1_3074" style="mask-type:luminance" maskUnits="userSpaceOnUse" x="0" y="-2" width="391" height="513">
            <path d="M390.658 -1.81519H0.158081V510.186H390.658V-1.81519Z" fill="white"/>
        </mask>
        <g mask="url(#mask6_1_3074)">
            <path d="M164.811 197.632L194.726 206.237L212.655 233.242C218.045 234.532 223.633 235.268 229.354 235.318C235.002 235.347 240.474 234.707 245.733 233.537L262.395 207.27L292.676 198.728C298.161 189.228 301.613 178.342 302.474 166.647L282.918 141.779L283.729 109.512C282.56 108.143 281.35 106.794 280.094 105.523C273.394 98.7352 265.507 93.2039 256.774 89.3246L227.965 100.172L198.149 88.6761C189.303 92.4679 181.389 97.996 174.744 104.842C173.61 106.024 172.531 107.248 171.446 108.507L173.323 140.095L154.157 165.386C155.345 177.053 159.067 188.017 164.811 197.632ZM228.375 126.941L260.569 150.853L248.983 189.043L209.596 188.785L196.916 150.422L228.375 126.941Z" fill="white"/>
        </g>
        <mask id="mask7_1_3074" style="mask-type:luminance" maskUnits="userSpaceOnUse" x="0" y="-2" width="391" height="513">
            <path d="M390.658 -1.81519H0.158081V510.186H390.658V-1.81519Z" fill="white"/>
        </mask>
        <g mask="url(#mask7_1_3074)">
            <path d="M260.569 150.423L228.375 126.511L196.919 149.99L209.596 188.354L248.983 188.612L260.569 150.423Z" fill="black"/>
        </g>
        <mask id="mask8_1_3074" style="mask-type:luminance" maskUnits="userSpaceOnUse" x="0" y="-2" width="391" height="513">
            <path d="M390.658 -1.81519H0.158081V510.186H390.658V-1.81519Z" fill="white"/>
        </mask>
        <g mask="url(#mask8_1_3074)">
            <path d="M177.78 389.722L235.735 456.6C236.873 455.587 238.024 454.551 239.161 453.577L183.537 389.289C181.455 389.604 179.518 389.722 177.78 389.722Z" fill="white"/>
        </g>
        <mask id="mask9_1_3074" style="mask-type:luminance" maskUnits="userSpaceOnUse" x="0" y="-2" width="391" height="513">
            <path d="M390.658 -1.81519H0.158081V510.186H390.658V-1.81519Z" fill="white"/>
        </mask>
        <g mask="url(#mask9_1_3074)">
            <path d="M191.923 387.122L244.953 448.354C246.083 447.321 247.213 446.295 248.302 445.262L196.3 385.164C194.797 385.918 193.349 386.571 191.923 387.122Z" fill="white"/>
        </g>
        <mask id="mask10_1_3074" style="mask-type:luminance" maskUnits="userSpaceOnUse" x="0" y="-2" width="391" height="513">
            <path d="M390.658 -1.81519H0.158081V510.186H390.658V-1.81519Z" fill="white"/>
        </mask>
        <g mask="url(#mask10_1_3074)">
            <path d="M202.551 380.493L253.926 439.852C255.031 438.76 256.088 437.696 257.175 436.621L205.268 376.698C204.499 378.037 203.611 379.299 202.551 380.493Z" fill="white"/>
        </g>
        <mask id="mask11_1_3074" style="mask-type:luminance" maskUnits="userSpaceOnUse" x="0" y="-2" width="391" height="513">
            <path d="M390.658 -1.81519H0.158081V510.186H390.658V-1.81519Z" fill="white"/>
        </mask>
        <g mask="url(#mask11_1_3074)">
            <path d="M208.233 361.252C208.33 362.186 208.379 363.142 208.379 364.089C208.379 365.417 208.281 366.738 208.097 368.088L262.641 431.035C263.693 429.944 264.773 428.819 265.813 427.694L208.233 361.252Z" fill="white"/>
        </g>
        <mask id="mask12_1_3074" style="mask-type:luminance" maskUnits="userSpaceOnUse" x="21" y="35" width="24" height="31">
            <path d="M32.1655 41.4429C32.245 41.0636 32.3487 40.8561 32.6665 40.7815C33.0004 40.7134 33.0669 40.8755 33.1398 41.2305C33.8693 44.4128 34.5988 47.587 35.3348 50.7725C33.55 51.1632 31.7651 51.5733 29.9819 51.9656C30.713 48.464 31.4377 44.9608 32.1655 41.4429ZM32.6665 35.6263C30.1861 36.1759 27.5372 37.335 26.7088 41.0133C24.9305 48.9422 23.1488 56.8776 21.3688 64.8131C21.3786 64.8925 21.3186 64.9817 21.3316 65.0125C21.3186 65.3691 21.5926 65.5328 21.9443 65.4502C23.619 65.0514 25.2887 64.6477 26.965 64.2684C27.3249 64.1792 27.6037 63.8177 27.6847 63.4383C28.116 61.3568 28.5391 59.2623 28.9752 57.1792C31.4312 56.6102 33.8839 56.059 36.3432 55.5305C36.7712 57.424 37.204 59.3207 37.6336 61.2061C37.7082 61.5562 37.9902 61.7848 38.3615 61.7037C40.0329 61.3438 41.714 60.9969 43.3983 60.6435C43.7582 60.5673 44.003 60.2966 44.003 59.9351C44.0095 59.9059 43.9706 59.8378 43.9706 59.7584C42.1792 52.6108 40.3911 45.4811 38.616 38.3563C38.0308 36.0219 36.541 35.3442 34.8436 35.3442C34.1384 35.3442 33.3944 35.4626 32.6665 35.6263Z" fill="white"/>
        </mask>
        <g mask="url(#mask12_1_3074)">
            <path d="M6.84033 54.7086L29.455 24.4632L58.4861 46.1685L35.8731 76.4154L6.84033 54.7086Z" fill="url(#paint1_linear_1_3074)"/>
        </g>
        <mask id="mask13_1_3074" style="mask-type:luminance" maskUnits="userSpaceOnUse" x="47" y="30" width="17" height="30">
            <path d="M62.8664 30.0334C61.5955 30.0821 59.7879 30.1129 55.8826 30.8521C51.2251 31.7389 47.0815 33.7539 47.0815 40.3649V59.1537C47.0815 59.5606 47.409 59.8184 47.8094 59.7389C49.3673 59.4277 50.9317 59.1132 52.4945 58.8019C52.89 58.7241 53.2207 58.3415 53.2207 57.9411V47.326C56.3301 46.7245 59.4507 46.1361 62.5714 45.5719C62.9572 45.5022 63.2993 45.1131 63.2896 44.7192V41.2614C63.2896 40.8561 62.9734 40.587 62.5714 40.6648C59.4507 41.2208 56.3301 41.8174 53.2207 42.4188V39.1474C53.2207 37.2491 53.8319 36.5471 55.5276 36.2261C57.9755 35.7625 60.4137 35.3102 62.8648 34.8628C63.262 34.7979 63.5878 34.404 63.5878 34.0149V30.63C63.5927 30.1874 63.3884 30.0318 62.9459 30.0318C62.9199 30.0318 62.894 30.0318 62.8664 30.0334Z" fill="white"/>
        </mask>
        <g mask="url(#mask13_1_3074)">
            <path d="M32.7961 49.1384L53.0035 22.1126L77.878 40.7118L57.6723 67.7375L32.7961 49.1384Z" fill="url(#paint2_linear_1_3074)"/>
        </g>
        <mask id="mask14_1_3074" style="mask-type:luminance" maskUnits="userSpaceOnUse" x="67" y="26" width="18" height="29">
            <path d="M78.2753 26.9063C72.7618 27.7753 67.5483 31.5606 67.5515 40.2207V44.7987C67.5483 53.4523 72.7699 55.4398 78.2753 54.5676C80.8107 54.1591 82.9165 53.4782 83.6769 53.107C84.1924 52.8962 84.4809 52.6709 84.4809 52.1538V48.6294C84.4809 48.2031 84.2523 47.9275 83.7855 47.9939C83.753 48.0053 83.706 48.0166 83.6769 48.0166C82.2924 48.3392 80.3065 48.8386 78.3061 49.1482C75.8063 49.5551 73.8074 48.5613 73.8074 43.7336V39.1588C73.8074 34.3149 75.8063 32.6824 78.3061 32.2804C80.3049 31.9691 82.2924 31.8329 83.6769 31.7389C83.706 31.7292 83.7611 31.7179 83.7855 31.7097C84.2588 31.6498 84.4809 31.3288 84.4809 30.8911V27.3635C84.4647 26.8464 84.1924 26.754 83.6769 26.6891C83.3624 26.6275 82.8128 26.5854 82.0946 26.5854C81.0912 26.5854 79.7586 26.6713 78.2753 26.9063Z" fill="white"/>
        </mask>
        <g mask="url(#mask14_1_3074)">
            <path d="M53.7103 45.0938L73.621 18.462L98.3253 36.9314L78.413 63.5633L53.7103 45.0938Z" fill="url(#paint3_linear_1_3074)"/>
        </g>
        <mask id="mask15_1_3074" style="mask-type:luminance" maskUnits="userSpaceOnUse" x="97" y="22" width="22" height="30">
            <path d="M104.075 38.9999C105.432 38.8329 106.797 38.6708 108.156 38.5022C111.071 38.1683 112.016 39.5559 112.016 41.3019V41.6991C112.016 43.7417 110.808 45.0337 107.055 45.4747C106.548 45.5314 104.653 45.7195 104.075 45.7973C104.075 43.5277 104.075 41.2727 104.075 38.9999ZM104.075 28.3977C104.581 28.2907 106.254 28.0784 106.835 28.0103C110.588 27.5596 111.871 28.3394 111.871 30.3334V30.8813C111.871 32.4489 111.024 33.848 108.154 34.1819C106.796 34.344 105.431 34.511 104.074 34.6796C104.074 32.5754 104.074 30.4825 104.075 28.3977ZM106.366 22.9848C104.038 23.2555 101.091 23.8521 99.8508 24.1958C98.4291 24.5994 97.9249 25.1766 97.9249 26.8025V48.9066C97.9249 50.5472 98.4761 50.9476 99.9254 51.0141C101.341 51.0838 104.187 50.9103 106.582 50.6153C112.881 49.8679 118.069 47.587 118.063 41.1917V40.647C118.063 38.1488 116.751 36.3396 114.82 35.615C116.745 34.451 117.871 32.3111 117.879 29.9346V29.2796C117.879 24.5135 114.713 22.7643 109.736 22.7643C108.689 22.7643 107.561 22.8421 106.366 22.9848Z" fill="white"/>
        </mask>
        <g mask="url(#mask15_1_3074)">
            <path d="M84.3447 40.929L105.149 13.104L131.649 32.9191L110.845 60.7441L84.3447 40.929Z" fill="url(#paint4_linear_1_3074)"/>
        </g>
        <mask id="mask16_1_3074" style="mask-type:luminance" maskUnits="userSpaceOnUse" x="121" y="20" width="23" height="29">
            <path d="M127.956 36.7044V32.3695C127.956 28.0103 129.38 26.0244 132.448 25.757C135.524 25.5073 136.966 27.2452 136.973 31.6092V35.9311C136.973 40.3001 135.514 42.2665 132.448 42.5178C132.249 42.5356 132.056 42.5453 131.87 42.5453C129.2 42.5421 127.956 40.7799 127.956 36.7044ZM132.447 20.3051C126.428 20.8125 121.647 24.5411 121.647 32.9661V37.301C121.647 45.739 126.418 48.4819 132.447 47.9648C138.473 47.459 143.253 43.8974 143.261 35.4691V31.1359C143.261 23.3091 139.139 20.25 133.732 20.25C133.312 20.25 132.883 20.2678 132.447 20.3051Z" fill="white"/>
        </mask>
        <g mask="url(#mask16_1_3074)">
            <path d="M108.107 38.3596L129.397 9.88452L156.801 30.3739L135.511 58.8474L108.107 38.3596Z" fill="url(#paint5_linear_1_3074)"/>
        </g>
        <mask id="mask17_1_3074" style="mask-type:luminance" maskUnits="userSpaceOnUse" x="147" y="18" width="22" height="29">
            <path d="M167.957 18.4765C166.37 18.5365 164.785 18.5948 163.195 18.6694C162.794 18.6791 162.462 18.9936 162.465 19.3827V35.5664C162.465 39.2771 161.449 40.8756 158.15 41.0344C154.865 41.2014 153.876 39.7132 153.876 35.9911V19.822C153.876 19.4232 153.549 19.1509 153.139 19.1671C151.544 19.2579 149.947 19.3535 148.347 19.4621C147.945 19.4816 147.617 19.8026 147.617 20.1868V36.3705C147.616 44.669 152.338 46.5284 158.15 46.2366C163.961 45.9513 168.731 43.6055 168.726 35.3216V19.1411C168.726 18.744 168.363 18.4765 167.975 18.4765C167.975 18.4765 167.959 18.4765 167.957 18.4765Z" fill="white"/>
        </mask>
        <g mask="url(#mask17_1_3074)">
            <path d="M134.162 36.4694L155.186 8.35095L182.183 28.5356L161.158 56.654L134.162 36.4694Z" fill="url(#paint6_linear_1_3074)"/>
        </g>
        <mask id="mask18_1_3074" style="mask-type:luminance" maskUnits="userSpaceOnUse" x="173" y="17" width="22" height="29">
            <path d="M179.931 30.1713V23.1923C180.367 23.134 182.27 23.0351 182.786 23.014C185.86 22.9637 187.575 23.9802 187.575 26.1898V26.6713C187.575 29.1273 186.372 30.1226 182.52 30.1923C182.381 30.1956 182.073 30.1972 181.714 30.1972C181.042 30.1972 180.191 30.1907 179.931 30.1713ZM182.786 17.7421C180.15 17.7842 177.037 18.0874 175.355 18.3889C174.235 18.5948 173.703 18.9352 173.706 20.1787V44.5733C173.706 44.9705 174.045 45.2818 174.437 45.2704C176.023 45.2299 177.611 45.1926 179.192 45.1537C179.597 45.1407 179.923 44.8181 179.931 44.4129V35.1887C180.302 35.1773 180.8 35.187 181.303 35.1951C181.732 35.2049 182.165 35.2113 182.52 35.2049C182.656 35.1886 182.796 35.1773 182.927 35.166C184.564 38.1926 186.2 41.2419 187.842 44.2913C188.022 44.6609 188.154 45.0094 188.559 45.0094C190.43 44.99 192.3 44.99 194.176 44.9802C194.576 44.9802 194.724 44.7987 194.724 44.5442C194.724 44.4339 194.68 44.2913 194.614 44.1437C192.761 40.7232 190.921 37.3221 189.081 33.9161C191.754 32.838 193.811 30.4728 193.803 26.6194V26.1525C193.803 19.8577 189.217 17.7405 183.177 17.7405C183.047 17.7405 182.917 17.7421 182.786 17.7421Z" fill="white"/>
        </mask>
        <g mask="url(#mask18_1_3074)">
            <path d="M160.495 35.4075L181.241 7.66032L207.931 27.6164L187.187 55.3619L160.495 35.4075Z" fill="url(#paint7_linear_1_3074)"/>
        </g>
        <mask id="mask19_1_3074" style="mask-type:luminance" maskUnits="userSpaceOnUse" x="198" y="17" width="23" height="29">
            <path d="M199.949 17.9788C199.198 17.9788 198.582 18.6013 198.582 19.3535V44.2507C198.582 44.6609 198.91 44.99 199.315 44.99C200.753 44.9997 202.192 45.0094 203.634 45.0208C204.032 45.024 204.374 44.7095 204.368 44.3091V29.5876C204.368 29.3591 204.438 29.2894 204.545 29.2894C204.65 29.2894 204.734 29.3591 204.87 29.5876C207.66 34.391 210.441 39.2252 213.218 44.0643C213.805 45.0548 214.359 45.2218 215.121 45.2428C216.309 45.2704 217.514 45.3012 218.704 45.3401C219.474 45.3709 220.129 44.7792 220.137 44.0043C220.137 35.6944 220.137 27.3732 220.137 19.073C220.137 18.6694 219.803 18.3581 219.407 18.35C217.966 18.3095 216.526 18.2608 215.085 18.2317C214.69 18.2106 214.354 18.4975 214.354 18.8963V34.2711C214.372 34.5321 214.244 34.5921 214.169 34.5921C214.067 34.5921 214.015 34.5223 213.886 34.2954C210.987 29.2359 208.095 24.1958 205.206 19.1622C204.767 18.3889 204.407 18.0193 203.669 18.0193C202.434 17.9998 201.2 17.9885 199.968 17.9788C199.967 17.9788 199.952 17.9788 199.949 17.9788Z" fill="white"/>
        </mask>
        <g mask="url(#mask19_1_3074)">
            <path d="M185.446 35.5485L206.312 7.64087L233.276 27.8012L212.41 55.7089L185.446 35.5485Z" fill="url(#paint8_linear_1_3074)"/>
        </g>
        <mask id="mask20_1_3074" style="mask-type:luminance" maskUnits="userSpaceOnUse" x="225" y="18" width="17" height="29">
            <path d="M225.12 26.0147V38.0791C225.12 44.6998 229.283 46.0599 234.014 46.3063C237.963 46.4976 239.827 46.3355 241.109 46.2253C241.62 46.188 241.824 45.9886 241.824 45.5022V42.127C241.824 41.7299 241.508 41.3748 241.109 41.3538C238.63 41.2127 236.16 41.0636 233.684 40.9355C231.955 40.8561 231.335 40.2514 231.35 38.3433V34.5029C234.501 34.6504 237.663 34.8239 240.816 35.0103C241.215 35.0395 241.544 34.738 241.544 34.3343V30.8813C241.544 30.4825 241.215 30.1323 240.816 30.1032C237.663 29.9054 234.501 29.7433 231.35 29.5957V26.2854C231.35 24.4 231.966 23.8408 233.684 23.9299C236.16 24.058 238.63 24.1958 241.109 24.3498C241.501 24.3692 241.837 24.0693 241.824 23.6705V20.2759C241.824 19.8123 241.62 19.6193 241.109 19.5107C239.837 19.2449 237.993 18.8461 234.051 18.645C233.631 18.6223 233.219 18.611 232.811 18.611C228.618 18.611 225.12 19.9792 225.12 26.0147Z" fill="white"/>
        </mask>
        <g mask="url(#mask20_1_3074)">
            <path d="M211.747 36.4986L231.117 10.593L255.215 28.6102L235.844 54.5157L211.747 36.4986Z" fill="url(#paint9_linear_1_3074)"/>
        </g>
        <mask id="mask21_1_3074" style="mask-type:luminance" maskUnits="userSpaceOnUse" x="246" y="19" width="26" height="30">
            <path d="M246.423 20.9503V46.2172C246.407 46.6062 246.762 46.744 247.047 46.7619C248.655 46.8737 250.255 46.9937 251.868 47.1137C252.194 47.1445 252.452 46.8332 252.452 46.4198V31.2704C252.452 31.0191 252.562 30.9899 252.63 30.9899C252.736 31.0013 252.825 31.0888 252.927 31.2704C254.023 33.3535 255.117 35.4497 256.21 37.5312C256.471 37.9786 256.831 38.1926 257.309 38.2412C258.28 38.319 259.254 38.3936 260.229 38.4828C260.708 38.5314 261.073 38.3725 261.334 37.9705C262.42 36.0576 263.513 34.1625 264.609 32.2658C264.721 32.0972 264.799 32.0291 264.901 32.0291C264.983 32.0404 265.09 32.0972 265.09 32.3387V47.4979C265.09 47.9129 265.343 48.2517 265.669 48.2922C267.279 48.4349 268.877 48.5905 270.479 48.7591C270.776 48.7883 271.115 48.7202 271.103 48.31V23.0821C271.119 22.3202 270.555 21.7576 269.798 21.6831C268.652 21.5647 267.503 21.4464 266.363 21.3394C265.586 21.2713 265.092 21.5858 264.755 22.1824C262.897 25.4587 261.031 28.7431 259.167 32.0291C259.027 32.3112 258.92 32.4879 258.778 32.4684C258.635 32.4684 258.522 32.2658 258.379 31.9691C256.508 28.3589 254.655 24.7535 252.791 21.1578C252.459 20.5013 251.946 20.1122 251.176 20.0538C250.037 19.9695 248.89 19.8804 247.746 19.8026C247.704 19.7993 247.657 19.7977 247.611 19.7977C246.908 19.7977 246.417 20.2338 246.423 20.9503Z" fill="white"/>
        </mask>
        <g mask="url(#mask21_1_3074)">
            <path d="M232.511 38.3936L255.27 7.95374L285.012 30.1923L262.253 60.6322L232.511 38.3936Z" fill="url(#paint10_linear_1_3074)"/>
        </g>
        <mask id="mask22_1_3074" style="mask-type:luminance" maskUnits="userSpaceOnUse" x="275" y="23" width="23" height="28">
            <path d="M286.34 45.405C283.278 45.024 281.853 43.0106 281.853 38.6595V34.3262C281.869 29.9654 283.281 28.2697 286.34 28.6555C289.396 29.0235 290.85 31.0694 290.85 35.4286V39.7635C290.85 43.7271 289.641 45.4553 287.128 45.4553C286.882 45.4553 286.616 45.4374 286.34 45.405ZM275.555 33.6194V37.9494C275.555 46.3842 280.336 50.1176 286.337 50.8617C292.337 51.6026 297.108 49.0298 297.108 40.5951V36.2667C297.108 27.8336 292.345 23.93 286.337 23.1972C285.716 23.121 285.11 23.0805 284.521 23.0805C279.394 23.0805 275.555 26.0585 275.555 33.6194Z" fill="white"/>
        </mask>
        <g mask="url(#mask22_1_3074)">
            <path d="M261.871 41.3766L283.279 12.741L310.787 33.3082L289.38 61.9422L261.871 41.3766Z" fill="url(#paint11_linear_1_3074)"/>
        </g>
        <mask id="mask23_1_3074" style="mask-type:luminance" maskUnits="userSpaceOnUse" x="301" y="25" width="22" height="30">
            <path d="M301.438 26.2205V42.3994C301.454 50.6963 306.137 53.5284 311.894 54.4427C317.656 55.3603 322.37 53.9969 322.37 45.7097V29.5276C322.37 29.1272 322 28.777 321.605 28.7138C320.04 28.4382 318.469 28.1772 316.905 27.9211C316.501 27.8416 316.177 28.0881 316.177 28.4885V44.6689C316.177 48.3797 315.167 49.7674 311.896 49.2454C308.636 48.7299 307.656 47.026 307.656 43.3153V27.1429C307.656 26.7425 307.331 26.4053 306.93 26.3356C305.348 26.1038 303.754 25.8671 302.167 25.6353C302.13 25.6288 302.088 25.6256 302.052 25.6256C301.705 25.6256 301.438 25.8655 301.438 26.2205Z" fill="white"/>
        </mask>
        <g mask="url(#mask23_1_3074)">
            <path d="M287.178 44.6981L308.944 15.5875L336.631 36.2877L314.864 65.3982L287.178 44.6981Z" fill="url(#paint12_linear_1_3074)"/>
        </g>
        <mask id="mask24_1_3074" style="mask-type:luminance" maskUnits="userSpaceOnUse" x="325" y="29" width="21" height="30">
            <path d="M325.665 30.1032V33.848C325.682 34.2516 325.986 34.6018 326.403 34.6699C328.36 35.0298 330.323 35.3799 332.289 35.7544V56.8971C332.289 57.3057 332.615 57.685 333.014 57.7628C334.595 58.066 336.167 58.3707 337.738 58.669C338.14 58.7436 338.467 58.4891 338.459 58.0741V36.9265C340.403 37.3091 342.36 37.6998 344.307 38.0888C344.699 38.178 345.07 37.9624 345.061 37.5539V33.7977C345.061 33.4119 344.704 33.0439 344.307 32.9661C338.352 31.747 332.38 30.6203 326.398 29.5471C326.345 29.5374 326.294 29.5325 326.246 29.5325C325.92 29.5325 325.677 29.7563 325.665 30.1032Z" fill="white"/>
        </mask>
        <g mask="url(#mask24_1_3074)">
            <path d="M311.656 48.2695L332.623 20.2256L359.08 40.0066L338.114 68.0504L311.656 48.2695Z" fill="url(#paint13_linear_1_3074)"/>
        </g>
        <mask id="mask25_1_3074" style="mask-type:luminance" maskUnits="userSpaceOnUse" x="348" y="33" width="22" height="33">
            <path d="M348.47 34.511V60.1102C348.47 60.5122 348.784 60.9013 349.183 60.9872C350.762 61.3146 352.333 61.6567 353.897 61.9988C354.286 62.0733 354.619 61.8221 354.619 61.4233V50.92C357.584 51.562 360.533 52.2218 363.494 52.9059V63.4091C363.494 63.8177 363.824 64.2165 364.209 64.3153C365.777 64.6752 367.345 65.0497 368.911 65.4193C369.296 65.5134 369.621 65.2621 369.621 64.8633V39.2657C369.621 38.8718 369.296 38.5022 368.911 38.4033C367.343 38.0385 365.774 37.6705 364.209 37.309C363.811 37.2134 363.488 37.4338 363.494 37.8245V47.4881C360.534 46.8137 357.584 46.1474 354.619 45.5022V35.8273C354.619 35.4285 354.303 35.0686 353.897 34.9811C352.333 34.6406 350.759 34.2953 349.183 33.9744C349.123 33.9614 349.07 33.9549 349.015 33.9549C348.7 33.9549 348.47 34.1705 348.47 34.511Z" fill="white"/>
        </mask>
        <g mask="url(#mask25_1_3074)">
            <path d="M333.333 54.1978L356.055 23.8082L384.764 45.2703L362.04 75.6599L333.333 54.1978Z" fill="url(#paint14_linear_1_3074)"/>
        </g>
    </g>
    <defs>
        <linearGradient id="paint0_linear_1_3074" x1="122.145" y1="468.088" x2="292.397" y2="26.0246" gradientUnits="userSpaceOnUse">
            <stop stop-color="#8B0304"/>
            <stop offset="1" stop-color="#ED1C24"/>
        </linearGradient>
        <linearGradient id="paint1_linear_1_3074" x1="41.5426" y1="57.1576" x2="235.907" y2="202.477" gradientUnits="userSpaceOnUse">
            <stop stop-color="#A8996E"/>
            <stop offset="0.4417" stop-color="#FFE5C7"/>
            <stop offset="1" stop-color="#A8996E"/>
        </linearGradient>
        <linearGradient id="paint2_linear_1_3074" x1="52.4967" y1="42.6188" x2="246.834" y2="187.917" gradientUnits="userSpaceOnUse">
            <stop stop-color="#A8996E"/>
            <stop offset="0.4417" stop-color="#FFE5C7"/>
            <stop offset="1" stop-color="#A8996E"/>
        </linearGradient>
        <linearGradient id="paint3_linear_1_3074" x1="61.744" y1="30.1584" x2="256.768" y2="175.97" gradientUnits="userSpaceOnUse">
            <stop stop-color="#A8996E"/>
            <stop offset="0.4417" stop-color="#FFE5C7"/>
            <stop offset="1" stop-color="#A8996E"/>
        </linearGradient>
        <linearGradient id="paint4_linear_1_3074" x1="75.2242" y1="12.32" x2="268.883" y2="157.111" gradientUnits="userSpaceOnUse">
            <stop stop-color="#A8996E"/>
            <stop offset="0.4417" stop-color="#FFE5C7"/>
            <stop offset="1" stop-color="#A8996E"/>
        </linearGradient>
        <linearGradient id="paint5_linear_1_3074" x1="85.0298" y1="-1.06779" x2="279.333" y2="144.206" gradientUnits="userSpaceOnUse">
            <stop stop-color="#A8996E"/>
            <stop offset="0.4417" stop-color="#FFE5C7"/>
            <stop offset="1" stop-color="#A8996E"/>
        </linearGradient>
        <linearGradient id="paint6_linear_1_3074" x1="95.5114" y1="-14.5018" x2="289.067" y2="130.212" gradientUnits="userSpaceOnUse">
            <stop stop-color="#A8996E"/>
            <stop offset="0.4417" stop-color="#FFE5C7"/>
            <stop offset="1" stop-color="#A8996E"/>
        </linearGradient>
        <linearGradient id="paint7_linear_1_3074" x1="105.003" y1="-27.8055" x2="299.256" y2="117.43" gradientUnits="userSpaceOnUse">
            <stop stop-color="#A8996E"/>
            <stop offset="0.4417" stop-color="#FFE5C7"/>
            <stop offset="1" stop-color="#A8996E"/>
        </linearGradient>
        <linearGradient id="paint8_linear_1_3074" x1="113.619" y1="-39.9527" x2="308.663" y2="105.874" gradientUnits="userSpaceOnUse">
            <stop stop-color="#A8996E"/>
            <stop offset="0.4417" stop-color="#FFE5C7"/>
            <stop offset="1" stop-color="#A8996E"/>
        </linearGradient>
        <linearGradient id="paint9_linear_1_3074" x1="122.204" y1="-50.6008" x2="316.492" y2="94.6611" gradientUnits="userSpaceOnUse">
            <stop stop-color="#A8996E"/>
            <stop offset="0.4417" stop-color="#FFE5C7"/>
            <stop offset="1" stop-color="#A8996E"/>
        </linearGradient>
        <linearGradient id="paint10_linear_1_3074" x1="129.941" y1="-62.0987" x2="324.931" y2="83.6883" gradientUnits="userSpaceOnUse">
            <stop stop-color="#A8996E"/>
            <stop offset="0.4417" stop-color="#FFE5C7"/>
            <stop offset="1" stop-color="#A8996E"/>
        </linearGradient>
        <linearGradient id="paint11_linear_1_3074" x1="138.795" y1="-72.9419" x2="333.118" y2="72.3461" gradientUnits="userSpaceOnUse">
            <stop stop-color="#A8996E"/>
            <stop offset="0.4417" stop-color="#FFE5C7"/>
            <stop offset="1" stop-color="#A8996E"/>
        </linearGradient>
        <linearGradient id="paint12_linear_1_3074" x1="146.008" y1="-83.6593" x2="340.971" y2="62.1063" gradientUnits="userSpaceOnUse">
            <stop stop-color="#A8996E"/>
            <stop offset="0.4417" stop-color="#FFE5C7"/>
            <stop offset="1" stop-color="#A8996E"/>
        </linearGradient>
        <linearGradient id="paint13_linear_1_3074" x1="153.612" y1="-91.7039" x2="347.257" y2="53.0773" gradientUnits="userSpaceOnUse">
            <stop stop-color="#A8996E"/>
            <stop offset="0.4417" stop-color="#FFE5C7"/>
            <stop offset="1" stop-color="#A8996E"/>
        </linearGradient>
        <linearGradient id="paint14_linear_1_3074" x1="159.679" y1="-99.4495" x2="353.326" y2="45.3328" gradientUnits="userSpaceOnUse">
            <stop stop-color="#A8996E"/>
            <stop offset="0.4417" stop-color="#FFE5C7"/>
            <stop offset="1" stop-color="#A8996E"/>
        </linearGradient>
        <clipPath id="clip0_1_3074">
            <rect width="390.5" height="512" fill="white" transform="translate(0.158081 -1.81348)"/>
        </clipPath>
    </defs>
</svg>
