<svg width="447" height="512" viewBox="0 0 447 512" fill="none" xmlns="http://www.w3.org/2000/svg">
    <path d="M23.2871 4.75909C43.7999 4.67703 64.3128 4.59498 84.7435 4.75909C84.9897 11.077 84.7435 17.395 84.9076 23.6309C92.2922 23.7129 99.6768 23.6309 107.061 23.7129C107.226 17.395 107.144 11.077 107.061 4.84114C127.985 4.67703 148.908 4.43088 169.831 4.92319C169.749 11.1591 169.667 17.395 169.831 23.7129C177.215 23.6309 184.6 23.7129 191.985 23.6309C191.902 17.3129 191.902 11.077 192.067 4.75909C212.99 4.59498 233.995 4.67703 254.918 4.75909C254.754 10.995 254.918 17.3129 254.836 23.6309C262.631 23.6309 270.344 23.7129 278.138 23.5488C278.056 17.395 278.056 11.1591 278.138 5.00524C298.815 4.34883 319.738 4.67703 340.497 4.84114C340.497 11.1591 340.415 17.395 340.579 23.6309C348.456 23.6309 356.333 23.7129 364.292 23.6309C364.046 17.3129 364.128 11.077 364.21 4.75909C384.395 4.67703 404.497 4.67703 424.682 4.75909C424.764 39.877 424.764 74.995 424.6 110.113C417.626 110.277 410.323 109.949 403.841 113.067C396.867 116.185 392.026 123.569 392.19 131.282C392.272 232.698 392.108 334.195 392.19 435.61C388.99 437.087 385.872 438.892 382.426 439.631C382.015 439.877 381.277 440.287 380.949 440.451C379.718 441.354 378.241 441.928 376.682 442.092C376.354 442.339 375.615 442.749 375.205 442.913C373.974 443.815 372.497 444.472 370.938 444.636C370.61 444.8 369.872 445.21 369.461 445.374C365.687 447.262 361.831 449.231 357.81 450.298C357.4 450.544 356.661 450.954 356.333 451.118C355.103 452.021 353.626 452.595 352.067 452.759C351.738 453.005 351 453.415 350.59 453.58C349.359 454.482 347.882 455.139 346.323 455.303C345.995 455.467 345.256 455.877 344.846 456.041C341.154 458.01 337.215 459.815 333.195 460.964C332.785 461.21 332.046 461.621 331.718 461.785C330.487 462.687 329.01 463.262 327.451 463.426C327.123 463.672 326.385 464 325.974 464.246C312.108 470.482 298.159 476.882 283.964 482.298C283.554 482.544 282.815 482.954 282.487 483.118C281.256 484.021 279.779 484.595 278.22 484.759C277.892 485.005 277.154 485.415 276.744 485.58C275.513 486.482 274.036 487.139 272.477 487.303C272.149 487.467 271.41 487.877 271 488.041C269.195 489.19 267.226 490.092 265.092 490.503C264.682 490.749 263.944 491.159 263.615 491.323C262.302 492.144 260.826 492.8 259.349 492.964C258.938 493.21 258.2 493.621 257.872 493.785C254.672 495.426 251.39 497.067 247.861 497.969C247.533 498.133 246.795 498.544 246.385 498.708C244.579 499.857 242.61 500.759 240.477 501.169C240.067 501.415 239.41 501.826 239 501.99C237.687 502.81 236.21 503.467 234.733 503.631C234.323 503.877 233.585 504.287 233.256 504.451C230.056 506.092 226.856 507.651 223.41 508.554C219.39 507.405 215.615 505.436 211.923 503.631C211.513 503.467 210.774 503.057 210.446 502.892C208.887 502.728 207.41 502.072 206.179 501.169C205.769 501.005 205.031 500.595 204.702 500.349C198.795 498.38 192.969 495.672 187.308 492.964C186.979 492.8 186.241 492.39 185.831 492.144C181.81 490.995 177.954 489.108 174.179 487.221C173.769 487.057 173.031 486.646 172.702 486.4C171.144 486.318 169.749 485.58 168.436 484.759C168.108 484.595 167.369 484.185 166.959 483.939C156.62 480 146.528 475.323 136.436 470.81C136.108 470.564 135.369 470.154 134.959 469.99C132.826 469.58 130.856 468.595 129.051 467.528C128.641 467.364 127.902 466.954 127.574 466.708C126.015 466.544 124.62 465.887 123.308 465.067C122.897 464.903 122.241 464.492 121.831 464.246C117.81 463.098 113.954 461.128 110.179 459.323C109.769 459.159 109.031 458.749 108.702 458.585C107.144 458.339 105.667 457.682 104.436 456.862C104.108 456.698 103.369 456.287 102.959 456.041C92.6204 452.185 82.5281 447.344 72.4358 442.913C72.0256 442.749 71.3692 442.339 70.9589 442.092C66.9384 440.862 63.082 439.057 59.3076 437.169C58.9794 437.005 58.241 436.595 57.8307 436.349C57.2563 436.185 56.1076 435.774 55.5333 435.528C56.0256 397.867 55.6153 360.123 55.6974 322.462C55.6153 314.421 56.0256 306.38 55.5333 298.421C55.2871 243.282 55.3692 188.062 55.4512 132.923C56.4358 124.062 50.6102 115.939 42.8974 112.164C42.5692 112 41.7486 111.672 41.4204 111.426C35.4307 110.031 29.3589 110.195 23.3692 110.113C23.3692 74.995 23.3692 39.877 23.2871 4.75909ZM30.8358 11.7334C30.9999 41.9283 30.9999 72.2052 30.8358 102.4C37.8102 103.139 45.1128 104.123 50.8563 108.554C57.5845 113.477 63.2461 121.026 63.4922 129.641C63.5743 229.99 63.6563 330.339 63.6563 430.605C116.908 453.744 170.077 477.046 223.41 499.692C277.318 477.046 330.815 453.169 384.723 430.441C384.723 329.354 384.723 228.267 384.723 127.18C386.446 111.836 402.364 102.154 416.887 102.564C416.805 72.2873 416.887 42.0104 416.887 11.7334C401.708 11.8155 386.528 11.8155 371.349 11.7334C371.349 18.2155 371.431 24.6975 371.267 31.1796C358.385 31.1796 345.503 31.3437 332.62 31.0975C332.62 24.6155 332.867 18.1334 332.538 11.6514C316.867 11.8155 301.277 11.8155 285.687 11.6514C285.277 18.1334 285.441 24.6155 285.523 31.0975C272.805 31.3437 260.005 31.2617 247.205 31.0975C247.041 24.6155 247.287 18.1334 247.041 11.7334C231.369 11.8155 215.615 11.7334 199.861 11.7334C199.944 18.2155 199.944 24.6975 199.861 31.1796C187.226 31.2616 174.59 31.3437 161.954 31.0975C161.872 24.6155 162.118 18.1334 161.708 11.7334C146.118 11.7334 130.528 11.8155 114.938 11.6514C114.61 18.1334 114.774 24.6155 114.856 31.0155C102.056 31.4258 89.2563 31.1796 76.4563 31.1796C76.2922 24.6975 76.4563 18.2155 76.3743 11.7334C61.1948 11.8155 46.0153 11.7334 30.8358 11.7334Z" fill="#DE2C37" stroke="#DE2C37" stroke-width="0.0769231"/>
    <path d="M254.918 4.75903C255.246 10.9949 255 17.2308 255.082 23.5488C262.631 23.6308 270.262 23.7129 277.81 23.4667C278.056 17.3129 277.4 11.077 278.139 5.00519C278.056 11.159 278.056 17.3949 278.139 23.5488C270.344 23.7129 262.631 23.6308 254.836 23.6308C254.918 17.3129 254.754 10.9949 254.918 4.75903Z" fill="#FEFEFE" stroke="#FEFEFE" stroke-width="0.0769231"/>
    <path d="M30.8359 11.7334C46.0154 11.7334 61.1949 11.8155 76.3744 11.7334C76.4565 18.2155 76.2924 24.6975 76.4565 31.1796C89.2565 31.1796 102.056 31.4257 114.856 31.0155C114.774 24.6155 114.61 18.1334 114.938 11.6514C130.528 11.8155 146.118 11.7334 161.708 11.7334C162.118 18.1334 161.872 24.6155 161.954 31.0975C174.59 31.3437 187.226 31.2616 199.862 31.1796C199.944 24.6975 199.944 18.2155 199.862 11.7334C215.615 11.7334 231.369 11.8155 247.041 11.7334C247.287 18.1334 247.041 24.6155 247.205 31.0975C260.005 31.2616 272.805 31.3437 285.523 31.0975C285.441 24.6155 285.277 18.1334 285.687 11.6514C301.277 11.8155 316.867 11.8155 332.539 11.6514C332.867 18.1334 332.621 24.6155 332.621 31.0975C345.503 31.3437 358.385 31.1796 371.267 31.1796C371.431 24.6975 371.349 18.2155 371.349 11.7334C386.528 11.8155 401.708 11.8155 416.887 11.7334C416.887 42.0103 416.805 72.2873 416.887 102.564C402.364 102.154 386.446 111.836 384.723 127.18C384.723 228.267 384.723 329.354 384.723 430.441C330.815 453.169 277.318 477.046 223.41 499.692C170.077 477.046 116.908 453.744 63.6565 430.605C63.6565 330.339 63.5744 229.99 63.4923 129.641C63.2462 121.026 57.5847 113.477 50.8565 108.554C45.1129 104.123 37.8103 103.139 30.8359 102.4C31 72.2052 31 41.9283 30.8359 11.7334ZM35.677 16.5744C35.5129 43.8155 35.5949 71.0565 35.5949 98.2155C50.6923 99.2001 66.3641 110.031 68.9077 125.539C68.9898 225.641 68.9077 325.744 68.9898 425.846C68.8257 427.077 69.2359 428.308 70.5488 428.554C121.585 450.708 172.374 473.19 223.41 495.262C275.431 472.862 327.287 450.051 379.226 427.487C379.554 328.205 379.226 228.923 379.39 129.559C379.964 112.574 395.472 99.036 412.046 98.1334C412.292 70.9744 412.21 43.8155 412.046 16.5744C400.067 16.7385 388.169 16.6565 376.19 16.5744C376.19 23.0565 376.518 29.4565 376.026 35.8565C359.944 35.6924 343.862 35.7744 327.78 35.8565C327.698 29.4565 327.944 23.0565 327.615 16.5744C315.308 16.6565 302.918 16.6565 290.61 16.5744C290.282 22.9744 290.446 29.4565 290.446 35.8565C274.446 35.7744 258.446 35.6924 242.446 35.8565C242.2 29.4565 242.528 23.0565 242.2 16.5744C229.728 16.6565 217.174 16.6565 204.703 16.5744C204.538 23.0565 204.949 29.4565 204.456 35.8565C188.621 35.7744 172.867 35.6924 157.031 35.8565C156.539 29.4565 156.949 23.0565 156.785 16.5744C144.313 16.6565 131.841 16.6565 119.369 16.5744C119.205 23.0565 119.615 29.4565 119.123 35.8565C103.369 35.6924 87.5334 35.6924 71.6975 35.8565C71.2872 29.4565 71.6154 23.0565 71.4513 16.5744C59.5539 16.6565 47.5744 16.6565 35.677 16.5744Z" fill="#FEFEFE" stroke="#FEFEFE" stroke-width="0.0769231"/>
    <path d="M35.677 16.5745C47.5745 16.6565 59.554 16.6565 71.4514 16.5745C71.6155 23.0565 71.2873 29.4565 71.6975 35.8565C87.5334 35.6924 103.369 35.6924 119.123 35.8565C119.615 29.4565 119.205 23.0565 119.369 16.5745C131.841 16.6565 144.313 16.6565 156.785 16.5745C156.949 23.0565 156.539 29.4565 157.031 35.8565C172.867 35.6924 188.621 35.7745 204.457 35.8565C204.949 29.4565 204.539 23.0565 204.703 16.5745C217.174 16.6565 229.728 16.6565 242.2 16.5745C242.528 23.0565 242.2 29.4565 242.446 35.8565C258.446 35.6924 274.446 35.7745 290.446 35.8565C290.446 29.4565 290.282 22.9745 290.61 16.5745C302.918 16.6565 315.308 16.6565 327.615 16.5745C327.944 23.0565 327.698 29.4565 327.78 35.8565C343.862 35.7745 359.944 35.6924 376.026 35.8565C376.518 29.4565 376.19 23.0565 376.19 16.5745C388.169 16.6565 400.067 16.7386 412.046 16.5745C412.21 43.8155 412.292 70.9745 412.046 98.1334C395.472 99.036 379.964 112.574 379.39 129.559C379.226 228.923 379.554 328.205 379.226 427.487C327.287 450.051 275.431 472.862 223.41 495.262C172.374 473.19 121.585 450.708 70.5488 428.554C69.236 428.308 68.8257 427.077 68.9898 425.846C68.9078 325.744 68.9898 225.641 68.9078 125.539C66.3642 110.031 50.6924 99.2001 35.595 98.2155C35.595 71.0565 35.5129 43.8155 35.677 16.5745ZM63.4924 46.7693C63.5745 62.8514 63.4924 78.9334 63.5745 94.9334C170.651 94.8514 277.728 94.9334 384.805 94.9334C384.641 78.9334 384.641 62.9334 384.805 46.8514C382.426 46.7693 380.046 46.6873 377.667 46.6873C272.969 46.7693 168.19 46.6052 63.4924 46.7693ZM83.2668 105.19C83.3488 177.969 83.3488 250.667 83.2668 323.364C176.805 323.692 270.344 323.528 363.964 323.446C364.046 250.667 364.128 177.887 363.882 105.19C270.344 105.272 176.805 105.19 83.2668 105.19ZM82.7745 329.682C82.7745 344.533 82.5283 359.549 82.9386 374.4V373.744C176.723 374.072 270.508 373.744 364.292 373.908C364.292 369.641 364.21 365.292 364.457 360.944C364.292 350.523 364.785 340.021 364.128 329.6V330.174C270.344 330.01 176.641 329.928 82.9386 330.257L82.7745 329.682ZM83.2668 384C83.3488 397.867 83.3488 411.815 83.2668 425.682C176.805 425.846 270.344 425.682 363.882 425.764C364.128 411.815 364.046 397.867 363.882 383.918C270.344 383.836 176.805 383.754 83.2668 384ZM114.2 436.021C149.646 451.61 185.585 466.215 221.195 481.477C223.492 482.954 225.872 481.313 228.005 480.492C263.369 465.559 299.062 451.282 334.262 436.021C260.908 435.857 187.554 435.857 114.2 436.021Z" fill="#DE2C37" stroke="#DE2C37" stroke-width="0.0769231"/>
    <path d="M63.4922 46.7693C168.19 46.6052 272.969 46.7693 377.667 46.6873C380.046 46.6873 382.426 46.7693 384.805 46.8514C384.641 62.9334 384.641 78.9334 384.805 94.9334C277.728 94.9334 170.651 94.8514 63.5742 94.9334C63.4922 78.9334 63.5742 62.8514 63.4922 46.7693ZM68.5794 51.7744C68.6614 64.5744 68.6614 77.3744 68.4973 90.1744C172.21 90.4206 275.841 90.2565 379.472 90.2565C379.636 77.3744 379.636 64.4924 379.472 51.6103C277.974 51.4462 176.395 51.6103 74.8973 51.5283C72.764 51.5283 70.6306 51.6103 68.5794 51.7744Z" fill="#FEFEFE" stroke="#FEFEFE" stroke-width="0.0769231"/>
    <path d="M68.5794 51.7745C70.6306 51.6104 72.764 51.5283 74.8973 51.5283C176.395 51.6104 277.974 51.4463 379.472 51.6104C379.636 64.4924 379.636 77.3745 379.472 90.2565C275.841 90.2565 172.21 90.4206 68.4973 90.1745C68.6614 77.3745 68.6614 64.5745 68.5794 51.7745ZM117.4 63.0155C114.61 65.0668 114.938 69.4155 117.318 71.6309C119.943 74.0924 123.882 74.0924 126.754 76.1437C127.82 76.9642 126.836 78.6052 125.687 78.7693C122.241 79.754 118.877 77.8668 115.923 76.3899C115.841 78.0309 115.841 79.6719 115.759 81.3129C120.272 83.1181 125.769 84.3488 130.2 81.5591C133.4 79.9181 133.892 74.8309 131.267 72.4514C128.231 69.5796 123.472 69.7437 120.6 66.6258C124.128 64.0001 128.477 65.8052 132.005 67.2001C132.005 65.6411 132.005 64.1642 132.005 62.6052C127.41 60.9642 121.584 59.6514 117.4 63.0155ZM189.031 64.9027C185.01 68.5129 184.682 75.4052 188.62 79.0976C193.708 84.3488 202.159 84.1027 208.395 81.0668C208.395 79.5078 208.395 77.8668 208.395 76.3078C204.292 77.9488 199.369 79.836 195.185 77.4565C191.738 75.7334 190.754 70.5642 193.79 68.0206C197.646 64.4924 203.718 65.477 207.902 67.9386C207.985 66.1335 207.985 64.3283 207.82 62.5232C201.667 60.2258 193.954 60.0617 189.031 64.9027ZM282.815 61.1283C276.251 61.9488 270.343 68.595 272.805 75.4052C276.743 86.236 295.451 85.6617 298.487 74.3386C300.374 65.7232 290.528 59.4052 282.815 61.1283ZM83.2665 61.4565C83.3486 68.677 83.3486 75.8155 83.2665 83.036C85.3999 83.1181 87.4512 83.1181 89.5024 83.036C89.5024 75.8155 89.5024 68.677 89.5024 61.4565C87.4512 61.3745 85.3999 61.3745 83.2665 61.4565ZM94.5076 61.4565C94.4255 68.595 94.3435 75.7334 94.5076 82.8719C96.4768 82.8719 98.446 82.8719 100.415 82.8719C100.579 79.9181 100.579 77.0463 100.579 74.0924C104.026 74.1745 108.21 74.9129 110.754 71.9591C114.118 68.8411 112.149 62.5232 107.636 61.7027C103.287 60.9642 98.8563 61.4565 94.5076 61.4565ZM134.056 61.5386C137.42 68.3488 140.374 75.3232 143.738 82.1334C144.149 83.6104 146.61 83.6104 147.185 82.2155C149.482 78.1129 151.205 73.8463 153.667 69.9078C156.456 74.1745 158.343 78.9334 160.887 83.2822C161.543 83.2001 162.856 83.036 163.513 82.954C166.549 75.7334 170.077 68.677 173.277 61.5386C171.226 61.5386 169.01 60.8822 167.041 61.7847C165.072 65.2309 163.759 69.0873 161.872 72.5335C159.656 69.0052 158.015 65.1488 156.128 61.3745C154.487 61.3745 152.846 61.3745 151.205 61.4565C149.4 65.1488 147.677 69.0052 145.543 72.5335C143.574 69.0052 142.261 65.2309 140.292 61.7027C138.323 60.9642 136.108 61.4565 134.056 61.5386ZM175.82 61.3745C175.82 68.595 175.82 75.8976 175.82 83.1181C177.954 83.2001 180.087 83.1181 182.138 82.954C182.056 75.8155 182.056 68.677 182.138 61.5386C180.087 61.3745 177.954 61.3745 175.82 61.3745ZM212.661 61.3745C212.579 68.595 212.497 75.7334 212.661 82.8719C214.631 82.954 216.518 82.954 218.405 82.954C218.487 80.0001 218.569 77.0463 218.651 74.0924C222.343 74.1745 226.036 74.1745 229.728 74.0924C229.646 77.0463 229.728 80.0001 229.81 82.8719C231.697 82.8719 233.667 82.8719 235.554 82.7899C235.554 75.6514 235.472 68.595 235.554 61.4565C233.667 61.3745 231.697 61.3745 229.81 61.3745C229.728 64.1642 229.728 66.954 229.81 69.7437C226.036 70.0719 222.261 69.9899 218.569 69.8258C218.569 67.036 218.569 64.1642 218.487 61.3745C216.518 61.3745 214.631 61.3745 212.661 61.3745ZM248.19 61.5386C248.19 62.8514 248.272 64.1642 248.272 65.477C250.979 65.477 253.687 65.477 256.395 65.5591C256.559 71.3027 256.477 77.0463 256.395 82.7899C258.446 82.8719 260.497 82.7899 262.549 82.7899C262.385 77.0463 262.385 71.3027 262.549 65.5591C265.256 65.477 268.046 65.477 270.754 65.395C270.754 64.1642 270.754 62.8514 270.754 61.6206C263.287 61.1283 255.738 61.2924 248.19 61.5386ZM299.472 61.4565C302.508 68.8411 306.036 75.9796 309.4 83.2001C310.056 83.1181 311.369 83.036 312.026 83.036C314.241 78.5232 316.456 74.0104 318.836 69.6617C321.461 74.0104 323.431 78.6873 325.81 83.1181C326.467 83.1181 327.779 83.036 328.436 83.036C331.882 75.8976 335.246 68.7591 338.446 61.5386C336.313 61.5386 334.015 60.8001 332.128 61.8668C330.323 65.395 329.092 69.1693 326.959 72.5335C324.908 69.0873 323.513 65.3129 321.543 61.8668C319.82 61.0463 316.62 60.636 315.8 62.9334C314.077 66.1334 312.846 69.5796 310.631 72.5335C308.908 68.8411 307.267 65.0668 305.461 61.3745C303.492 61.3745 301.523 61.3745 299.472 61.4565ZM340.908 61.5386C341.072 68.595 340.99 75.6514 340.99 82.7899C342.877 82.7899 344.764 82.8719 346.651 82.954C346.815 78.5232 346.815 74.1745 346.733 69.8258C350.672 73.6822 354.364 77.7847 358.22 81.7232C359.697 83.5283 362.323 82.7078 364.292 82.7899C364.128 75.6514 364.128 68.595 364.292 61.5386C362.405 61.4565 360.518 61.3745 358.549 61.3745C358.467 65.477 358.467 69.6617 358.549 73.7642C354.856 70.154 351.328 66.4617 347.8 62.7693C346.159 60.554 343.205 61.5386 340.908 61.5386Z" fill="#3A64A3" stroke="#3A64A3" stroke-width="0.0769231"/>
    <path d="M117.4 63.0154C121.585 59.6513 127.41 60.9641 132.005 62.6051C132.005 64.1641 132.005 65.641 132.005 67.2C128.477 65.8051 124.128 64 120.6 66.6256C123.472 69.7436 128.231 69.5795 131.267 72.4513C133.892 74.8308 133.4 79.918 130.2 81.559C125.769 84.3487 120.272 83.118 115.759 81.3128C115.841 79.6718 115.841 78.0308 115.923 76.3897C118.877 77.8667 122.241 79.7539 125.687 78.7692C126.836 78.6051 127.821 76.9641 126.754 76.1436C123.882 74.0923 119.944 74.0923 117.318 71.6308C114.938 69.4154 114.61 65.0667 117.4 63.0154Z" fill="#FEFEFE" stroke="#FEFEFE" stroke-width="0.0769231"/>
    <path d="M189.031 64.9025C193.954 60.0615 201.667 60.2256 207.821 62.523C207.985 64.3281 207.985 66.1333 207.903 67.9384C203.718 65.4769 197.646 64.4922 193.79 68.0205C190.754 70.564 191.739 75.7333 195.185 77.4564C199.369 79.8358 204.292 77.9487 208.395 76.3076C208.395 77.8666 208.395 79.5076 208.395 81.0666C202.159 84.1025 193.708 84.3487 188.621 79.0974C184.682 75.4051 185.01 68.5128 189.031 64.9025Z" fill="#FEFEFE" stroke="#FEFEFE" stroke-width="0.0769231"/>
    <path d="M282.815 61.1282C290.528 59.4051 300.374 65.723 298.487 74.3384C295.451 85.6615 276.743 86.2359 272.805 75.4051C270.343 68.5948 276.251 61.9487 282.815 61.1282ZM283.554 65.9692C279.123 66.3795 277.072 71.8769 279.205 75.4872C281.256 78.9333 286.179 79.5077 289.461 77.6205C292.826 75.7333 293.646 70.5641 290.938 67.8564C289.051 65.8871 286.097 65.5589 283.554 65.9692Z" fill="#FEFEFE" stroke="#FEFEFE" stroke-width="0.0769231"/>
    <path d="M83.2666 61.4563C85.3999 61.3743 87.4512 61.3743 89.5025 61.4563C89.5025 68.6768 89.5025 75.8153 89.5025 83.0358C87.4512 83.1179 85.3999 83.1179 83.2666 83.0358C83.3487 75.8153 83.3487 68.6768 83.2666 61.4563Z" fill="#FEFEFE" stroke="#FEFEFE" stroke-width="0.0769231"/>
    <path d="M94.5076 61.4564C98.8563 61.4564 103.287 60.9641 107.636 61.7026C112.149 62.5231 114.118 68.841 110.754 71.959C108.21 74.9128 104.026 74.1744 100.579 74.0923C100.579 77.0462 100.579 79.9179 100.415 82.8718C98.446 82.8718 96.4768 82.8718 94.5076 82.8718C94.3435 75.7333 94.4255 68.5949 94.5076 61.4564ZM100.497 65.4769C100.497 67.1179 100.579 68.759 100.579 70.4821C103.369 70.4821 107.143 70.1538 106.487 66.3795C104.518 65.559 102.549 65.3128 100.497 65.4769Z" fill="#FEFEFE" stroke="#FEFEFE" stroke-width="0.0769231"/>
    <path d="M134.056 61.5384C136.108 61.4564 138.323 60.9641 140.292 61.7025C142.262 65.2307 143.574 69.0051 145.544 72.5333C147.677 69.0051 149.4 65.1487 151.205 61.4564C152.846 61.3743 154.487 61.3743 156.128 61.3743C158.015 65.1487 159.656 69.0051 161.872 72.5333C163.759 69.0871 165.072 65.2307 167.041 61.7846C169.01 60.882 171.226 61.5384 173.277 61.5384C170.077 68.6769 166.549 75.7333 163.513 82.9538C162.856 83.0359 161.544 83.2 160.887 83.282C158.344 78.9333 156.456 74.1743 153.667 69.9077C151.205 73.8461 149.482 78.1128 147.185 82.2153C146.61 83.6102 144.149 83.6102 143.738 82.1333C140.374 75.323 137.42 68.3487 134.056 61.5384Z" fill="#FEFEFE" stroke="#FEFEFE" stroke-width="0.0769231"/>
    <path d="M175.821 61.3743C177.954 61.3743 180.087 61.3743 182.139 61.5384C182.056 68.6768 182.056 75.8153 182.139 82.9538C180.087 83.1179 177.954 83.1999 175.821 83.1179C175.821 75.8973 175.821 68.5948 175.821 61.3743Z" fill="#FEFEFE" stroke="#FEFEFE" stroke-width="0.0769231"/>
    <path d="M212.662 61.3743C214.631 61.3743 216.518 61.3743 218.487 61.3743C218.569 64.164 218.569 67.0358 218.569 69.8255C222.262 69.9896 226.036 70.0717 229.81 69.7435C229.728 66.9538 229.728 64.164 229.81 61.3743C231.698 61.3743 233.667 61.3743 235.554 61.4563C235.472 68.5948 235.554 75.6512 235.554 82.7897C233.667 82.8717 231.698 82.8717 229.81 82.8717C229.728 79.9999 229.646 77.0461 229.728 74.0922C226.036 74.1743 222.344 74.1743 218.651 74.0922C218.569 77.0461 218.487 79.9999 218.405 82.9538C216.518 82.9538 214.631 82.9538 212.662 82.8717C212.498 75.7332 212.58 68.5948 212.662 61.3743Z" fill="#FEFEFE" stroke="#FEFEFE" stroke-width="0.0769231"/>
    <path d="M248.19 61.5385C255.738 61.2923 263.287 61.1282 270.754 61.6205C270.754 62.8513 270.754 64.1641 270.754 65.3949C268.046 65.477 265.256 65.477 262.549 65.559C262.385 71.3026 262.385 77.0462 262.549 82.7898C260.497 82.7898 258.446 82.8718 256.395 82.7898C256.477 77.0462 256.559 71.3026 256.395 65.559C253.687 65.477 250.979 65.477 248.272 65.477C248.272 64.1641 248.19 62.8513 248.19 61.5385Z" fill="#FEFEFE" stroke="#FEFEFE" stroke-width="0.0769231"/>
    <path d="M299.472 61.4565C301.523 61.3744 303.492 61.3744 305.461 61.3744C307.267 65.0667 308.908 68.8411 310.631 72.5334C312.846 69.5796 314.077 66.1334 315.8 62.9334C316.62 60.636 319.82 61.0462 321.543 61.8667C323.513 65.3129 324.908 69.0873 326.959 72.5334C329.092 69.1693 330.323 65.3949 332.128 61.8667C334.015 60.8001 336.313 61.5385 338.446 61.5385C335.246 68.759 331.882 75.8975 328.436 83.036C327.779 83.036 326.467 83.118 325.81 83.118C323.431 78.6873 321.461 74.0103 318.836 69.6616C316.456 74.0103 314.241 78.5231 312.026 83.036C311.369 83.036 310.056 83.118 309.4 83.2001C306.036 75.9796 302.508 68.8411 299.472 61.4565Z" fill="#FEFEFE" stroke="#FEFEFE" stroke-width="0.0769231"/>
    <path d="M340.908 61.5384C343.205 61.5384 346.159 60.5537 347.8 62.7691C351.328 66.4614 354.856 70.1537 358.549 73.764C358.467 69.6614 358.467 65.4768 358.549 61.3743C360.518 61.3743 362.405 61.4563 364.292 61.5384C364.128 68.5948 364.128 75.6512 364.292 82.7896C362.323 82.7076 359.697 83.5281 358.221 81.723C354.364 77.7845 350.672 73.6819 346.733 69.8255C346.815 74.1743 346.815 78.523 346.651 82.9537C344.764 82.8717 342.877 82.7896 340.99 82.7896C340.99 75.6512 341.072 68.5948 340.908 61.5384Z" fill="#FEFEFE" stroke="#FEFEFE" stroke-width="0.0769231"/>
    <path d="M100.497 65.4769C102.549 65.3128 104.518 65.559 106.487 66.3795C107.143 70.1539 103.369 70.4821 100.579 70.4821C100.579 68.759 100.497 67.118 100.497 65.4769Z" fill="#3A64A3" stroke="#3A64A3" stroke-width="0.0769231"/>
    <path d="M283.554 65.9693C286.097 65.559 289.051 65.8872 290.938 67.8565C293.646 70.5641 292.826 75.7334 289.461 77.6206C286.179 79.5077 281.256 78.9334 279.205 75.4872C277.072 71.877 279.123 66.3795 283.554 65.9693Z" fill="#3A64A3" stroke="#3A64A3" stroke-width="0.0769231"/>
    <path d="M83.2666 105.19C176.805 105.19 270.344 105.272 363.882 105.19C364.128 177.887 364.046 250.667 363.964 323.446C270.344 323.528 176.805 323.692 83.2666 323.364C83.3487 250.667 83.3487 177.969 83.2666 105.19ZM89.5846 110.769C89.4205 177.231 89.5846 243.692 89.5025 310.154C89.4205 312.779 89.5025 315.487 89.7487 318.113C179.185 318.031 268.62 318.031 357.974 318.113C358.138 316.308 358.303 314.42 358.303 312.615C358.138 245.333 358.385 178.051 358.138 110.769C268.62 110.769 179.103 110.769 89.5846 110.769Z" fill="#FEFEFE" stroke="#FEFEFE" stroke-width="0.0769231"/>
    <path d="M89.5845 110.769C179.102 110.769 268.62 110.769 358.138 110.769C358.384 178.051 358.138 245.333 358.302 312.615C358.302 314.421 358.138 316.308 357.974 318.113C268.62 318.031 179.185 318.031 89.7486 318.113C89.5024 315.487 89.4204 312.78 89.5024 310.154C89.5845 243.692 89.4204 177.231 89.5845 110.769ZM129.543 114.872C129.297 117.826 129.626 121.272 132.497 122.831C135.861 120.944 134.795 117.087 134.056 114.051C132.579 114.38 130.692 113.723 129.543 114.872ZM143.984 113.969C143.492 117.251 143 121.026 146.036 123.241C149.154 121.108 149.072 117.497 148.661 114.133C147.102 114.133 145.543 114.051 143.984 113.969ZM115.02 117.251C114.774 121.764 118.631 124.144 120.108 127.836C117.072 129.477 113.872 131.528 110.426 131.939C107.061 127.344 101.482 125.785 96.1486 124.8C97.6255 128.739 98.8563 132.759 100.826 136.533C102.056 139.405 99.1845 141.785 98.8563 144.492C97.1332 154.749 100.005 164.841 100.908 175.015C101.646 183.877 102.138 192.903 104.846 201.436C108.456 205.374 114.2 207.097 119.451 206.933C120.354 203.98 118.467 199.877 121.092 197.908C124.949 197.744 123.964 202.995 124.867 205.539C127.164 205.128 129.461 203.815 130.364 201.518C131.02 198.81 126.918 196.759 128.641 194.051C135.697 189.292 135.205 178.626 142.918 174.441C144.477 180.021 146.528 185.518 149.154 190.687C153.174 199.713 147.02 208.985 148.251 218.256C149.4 229.251 159.082 237.21 168.764 240.903C170.979 248.615 176.805 254.359 180.333 261.415C182.467 265.354 182.22 270.195 185.092 273.723C188.292 277.99 192.559 281.682 193.954 287.097C197.564 296.287 194.118 306.297 188.867 314.092C193.215 314.667 197.646 314.585 202.077 314.503C205.113 314.339 208.395 312.862 209.051 309.662C209.626 306.38 212.826 304.656 214.056 301.785C214.795 293.744 207.985 288.082 204.374 281.6C200.928 277.908 203.554 272.492 201.092 268.472C195.349 260.267 201.42 250.092 198.877 241.067C209.379 244.841 221.031 247.385 232.108 244.103C244.99 240.985 256.559 234.339 269.113 230.236C268.538 226.544 261.564 228.021 261.646 223.836C265.667 224.41 269.523 226.298 272.477 229.087C278.056 234.339 284.21 238.933 291.02 242.462C295.123 244.677 300.046 245.58 303.574 248.862C307.349 252.144 311.533 254.851 316.046 256.903C321.543 259.61 321.297 266.831 319.656 271.918C317.195 278.974 316.292 286.523 313.42 293.497C311.123 298.913 304.395 301.128 302.836 306.872C309.072 309.662 316.62 309.087 322.938 307.118C323.431 302.359 327.123 299.159 331.554 297.682C332.128 292.021 329.338 286.523 330.487 280.944C332.867 269.374 337.708 258.462 340.579 246.974C331.554 242.38 319.738 236.636 319.984 224.821C312.6 224.492 304.395 223.754 298.733 218.421C293.318 213.908 292.826 204.308 298.241 199.549C307.431 190.195 320.559 186.831 331.636 180.267C329.667 176.574 325.482 174.359 324.333 170.174C328.272 168.615 333.605 167.631 336.723 171.405C339.759 174.277 337.461 178.872 334.59 180.923C323.677 188.472 309.564 190.851 300.128 200.615C296.108 204.554 294.959 212.103 299.308 216.205C305.379 222.277 314.733 222.851 322.856 222.523C320.395 217.682 319.656 211.692 322.938 207.015C330.651 196.021 344.928 191.836 351.738 180.021C354.61 175.918 353.708 169.682 349.605 166.728C342.713 161.313 333.113 161.641 325.154 164.267C322.528 165.251 319.41 167.056 316.702 165.169C309.154 160.328 300.62 156.472 291.513 156.39C269.687 155.651 250.159 168.533 228.333 167.959C219.226 168.041 208.231 165.662 203.554 156.882C200.436 151.713 193.872 149.415 191.328 143.918C187.472 144.082 184.764 140.636 181.81 138.667C184.518 135.549 188.374 133.497 189.113 128.985C187.718 128.41 186.405 127.836 185.01 127.344C182.795 130.215 180.826 133.58 182.713 137.272C178.282 138.749 174.672 134.564 170.979 132.759C172.374 128.739 177.133 127.015 177.461 122.339C176.149 121.764 174.754 121.19 173.441 120.697C171.472 123.323 169.831 126.277 171.308 129.559C170.979 130.462 170.405 131.282 169.913 132.103C165.974 131.364 162.364 129.805 158.754 128.082C159.82 124.226 164.169 121.846 163.02 117.169C157.933 115.036 155.472 122.339 158.508 125.621C158.261 126.359 157.933 127.18 157.605 127.918C153.667 127.015 148.251 127.918 145.872 123.98C145.543 124.39 144.887 125.292 144.559 125.785C140.867 125.456 135.943 127.262 133.236 123.98C131.677 127.508 126.836 126.605 123.718 127.59C121.749 128.574 119.697 126.277 120.682 124.39C122.077 121.846 120.518 119.139 119.779 116.595C118.22 116.841 116.661 117.005 115.02 117.251ZM91.8819 130.544C92.2922 134.646 94.9178 138.503 98.5281 140.39C100.005 136.041 96.5589 130.79 91.8819 130.544ZM195.595 133.826C193.297 136.205 190.672 139.159 192.067 142.769C195.677 142.195 197.892 139.405 199.451 136.369C198.22 135.549 196.908 134.646 195.595 133.826ZM323.513 218.667C328.682 213.333 333.031 206.605 334.261 199.139C327.533 202.831 319.738 210.297 323.513 218.667ZM102.138 224.164C100.661 225.723 101.318 228.021 101.892 229.826C104.682 239.262 110.426 247.549 112.969 257.149C114.61 263.385 109.277 269.703 112.559 275.692C117.564 273.969 122.241 271.344 126.672 268.472C127.492 265.108 128.149 261.744 130.774 259.2C124.949 252.882 121.749 243.939 122.323 235.405C128.313 235.733 133.4 239.344 138.897 241.231C147.677 244.677 157.605 246.154 166.795 243.364C158.179 238.113 149.072 231.795 146.282 221.539C136.19 220.226 126.015 219.569 115.923 219.651C111.082 219.815 105.584 220.308 102.138 224.164ZM265.338 234.749C267.226 243.282 272.067 250.667 276.169 258.215C277.728 261.005 278.138 264.944 276.087 267.651C271.492 273.969 265.995 279.549 261.728 286.195C258.2 291.774 251.061 293.99 247.943 300.062C253.277 300.636 258.61 300.554 263.861 300.8C267.718 301.128 268.046 295.959 271 294.564C272.887 293.826 274.938 293.58 276.908 293.005C277.81 280.451 286.754 270.687 295.615 262.564C296.846 261.333 299.308 259.856 298.077 257.805C295.861 254.441 294.549 250.585 293.318 246.728C285.605 242.872 278.549 237.785 271.738 232.533C269.441 232.862 267.39 233.928 265.338 234.749ZM127.902 273.723C125.195 275.692 121.585 277.005 120.682 280.615C123.964 282.503 125.851 278.81 128.067 277.169C132.087 273.805 137.174 272.41 141.687 270.031C136.682 267.98 131.923 271.098 127.902 273.723ZM120.026 276.513C122.405 275.2 124.62 273.559 126.508 271.672C124.128 272.821 120.928 273.723 120.026 276.513ZM144.969 271.918C137.749 273.313 130.528 276.431 125.769 282.174C127.574 283.733 129.954 284.144 132.005 282.749C137.995 279.467 145.051 276.923 150.713 274.215C148.908 273.313 147.184 271.426 144.969 271.918ZM150.138 277.087C143.164 279.467 135.943 281.846 130.118 286.359C132.005 289.149 135.533 289.395 138.651 289.313C141.769 288.164 143.246 283.569 147.102 284.226C150.549 284.636 153.092 281.846 156.292 281.354C155.554 278.646 153.174 275.692 150.138 277.087ZM116.169 284.39C120.928 293.251 130.364 298.667 139.718 301.374C142.426 298.092 139.143 294.482 138.077 291.364C134.877 290.544 129.872 291.61 128.559 287.754C127.328 284.226 123.39 283.077 120.026 282.913C119.451 281.518 118.795 280.041 118.22 278.646C116.743 280.041 114.774 282.256 116.169 284.39ZM150.877 285.456C151.451 291.856 151.123 298.256 150.22 304.656C151.533 304.492 152.846 304.328 154.241 304.164C156.046 297.682 154.979 290.954 154.405 284.39C153.256 284.8 152.108 285.128 150.877 285.456ZM157.113 284.554C156.702 290.133 157.523 295.631 157.359 301.21C159.902 296.287 160.723 289.231 157.113 284.554ZM113.79 286.195C112.313 290.297 113.708 294.564 116.826 297.436C117.892 295.877 118.631 293.99 118.959 292.103C117.81 289.723 115.841 287.754 113.79 286.195ZM140.374 291.282C141.359 294.154 142.508 296.78 143.492 299.569C140.128 302.359 138.733 306.544 138.569 310.81C136.6 311.877 133.482 312.287 133.564 315.159C136.518 315.159 140.128 316.062 142.59 313.846C148.743 306.133 149.974 295.713 148.743 286.113C144.887 285.21 142.754 288.903 140.374 291.282ZM119.533 299.98C124.374 304.328 131.02 305.969 137.42 306.051C137.584 304.985 137.831 303.918 137.995 302.933C131.759 300.964 126.179 297.6 120.764 293.99C120.19 295.959 118.959 297.928 119.533 299.98ZM114.2 297.764C114.446 301.128 115.759 304.903 119.123 306.051C122.651 307.364 126.343 308.349 129.379 310.564C132.005 312.697 135.615 310.81 137.174 308.349C128.559 307.61 120.026 304.492 114.2 297.764ZM148.99 306.297C148.005 308.349 147.02 310.482 146.282 312.697C149.482 311.713 152.436 309.58 153.831 306.297C152.19 306.297 150.549 306.215 148.99 306.297ZM122.405 309.415C123.554 313.354 128.395 313.764 131.677 314.831C129.379 312.041 125.605 310.974 122.405 309.415Z" fill="#3A64A3" stroke="#3A64A3" stroke-width="0.0769231"/>
    <path d="M41.4204 111.426C41.7486 111.672 42.5691 112 42.8973 112.164" stroke="#3A64A3" stroke-width="0.0769231"/>
    <path d="M129.544 114.872C130.692 113.723 132.58 114.379 134.056 114.051C134.795 117.087 135.862 120.944 132.497 122.831C129.626 121.272 129.297 117.826 129.544 114.872Z" fill="#FEFEFE" stroke="#FEFEFE" stroke-width="0.0769231"/>
    <path d="M143.984 113.969C145.543 114.051 147.102 114.133 148.661 114.133C149.072 117.497 149.154 121.108 146.036 123.241C143 121.026 143.492 117.251 143.984 113.969Z" fill="#FEFEFE" stroke="#FEFEFE" stroke-width="0.0769231"/>
    <path d="M115.02 117.251C116.662 117.005 118.22 116.841 119.779 116.595C120.518 119.139 122.077 121.846 120.682 124.39C119.697 126.277 121.749 128.574 123.718 127.59C126.836 126.605 131.677 127.508 133.236 123.98C135.944 127.262 140.867 125.457 144.559 125.785C144.887 125.292 145.544 124.39 145.872 123.98C148.251 127.918 153.667 127.015 157.605 127.918C157.933 127.18 158.261 126.359 158.508 125.621C155.472 122.339 157.933 115.036 163.02 117.169C164.169 121.846 159.82 124.226 158.754 128.082C162.364 129.805 165.974 131.364 169.913 132.103C170.405 131.282 170.979 130.462 171.308 129.559C169.831 126.277 171.472 123.323 173.441 120.698C174.754 121.19 176.149 121.764 177.462 122.339C177.133 127.015 172.374 128.739 170.979 132.759C174.672 134.564 178.282 138.749 182.713 137.272C180.826 133.58 182.795 130.215 185.01 127.344C186.405 127.836 187.718 128.41 189.113 128.985C188.374 133.498 184.518 135.549 181.81 138.667C184.764 140.636 187.472 144.082 191.328 143.918C193.872 149.415 200.436 151.713 203.554 156.882C208.231 165.662 219.226 168.041 228.333 167.959C250.159 168.533 269.687 155.651 291.513 156.39C300.62 156.472 309.154 160.328 316.703 165.169C319.41 167.057 322.528 165.251 325.154 164.267C333.113 161.641 342.713 161.313 349.605 166.728C353.708 169.682 354.61 175.918 351.738 180.021C344.928 191.836 330.651 196.021 322.938 207.015C319.656 211.692 320.395 217.682 322.856 222.523C314.733 222.851 305.379 222.277 299.308 216.205C294.959 212.103 296.108 204.554 300.128 200.615C309.564 190.851 323.677 188.472 334.59 180.923C337.462 178.872 339.759 174.277 336.723 171.405C333.605 167.631 328.272 168.615 324.333 170.174C325.482 174.359 329.667 176.574 331.636 180.267C320.559 186.831 307.431 190.195 298.241 199.549C292.826 204.308 293.318 213.908 298.733 218.421C304.395 223.754 312.6 224.492 319.985 224.821C319.738 236.636 331.554 242.38 340.579 246.974C337.708 258.462 332.867 269.374 330.487 280.944C329.338 286.523 332.128 292.021 331.554 297.682C327.123 299.159 323.431 302.359 322.938 307.118C316.62 309.087 309.072 309.662 302.836 306.872C304.395 301.128 311.123 298.913 313.421 293.498C316.292 286.523 317.195 278.974 319.656 271.918C321.297 266.831 321.544 259.61 316.046 256.903C311.533 254.851 307.349 252.144 303.574 248.862C300.046 245.58 295.123 244.677 291.02 242.462C284.21 238.933 278.056 234.339 272.477 229.087C269.523 226.298 265.667 224.41 261.646 223.836C261.564 228.021 268.538 226.544 269.113 230.236C256.559 234.339 244.99 240.985 232.108 244.103C221.031 247.385 209.379 244.841 198.877 241.067C201.42 250.092 195.349 260.267 201.092 268.472C203.554 272.492 200.928 277.908 204.374 281.6C207.985 288.082 214.795 293.744 214.056 301.785C212.826 304.657 209.626 306.38 209.051 309.662C208.395 312.862 205.113 314.339 202.077 314.503C197.646 314.585 193.215 314.667 188.867 314.092C194.118 306.298 197.564 296.287 193.954 287.098C192.559 281.682 188.292 277.99 185.092 273.723C182.22 270.195 182.467 265.354 180.333 261.415C176.805 254.359 170.979 248.615 168.764 240.903C159.082 237.21 149.4 229.251 148.251 218.257C147.02 208.985 153.174 199.713 149.154 190.687C146.528 185.518 144.477 180.021 142.918 174.441C135.205 178.626 135.697 189.292 128.641 194.051C126.918 196.759 131.02 198.81 130.364 201.518C129.462 203.815 127.164 205.128 124.867 205.539C123.964 202.995 124.949 197.744 121.092 197.908C118.467 199.877 120.354 203.98 119.451 206.933C114.2 207.098 108.456 205.374 104.846 201.436C102.138 192.903 101.646 183.877 100.908 175.015C100.005 164.841 97.1333 154.749 98.8564 144.492C99.1846 141.785 102.056 139.405 100.826 136.533C98.8564 132.759 97.6256 128.739 96.1487 124.8C101.482 125.785 107.062 127.344 110.426 131.939C113.872 131.528 117.072 129.477 120.108 127.836C118.631 124.144 114.774 121.764 115.02 117.251ZM103.533 156.882C102.631 159.426 104.026 161.969 105.174 164.267C106.815 162.133 109.605 159.836 108.62 156.8C108.046 154.503 104.19 154.585 103.533 156.882ZM106.077 197.498C106.241 198.482 106.405 199.467 106.651 200.451C108.128 201.846 110.015 202.585 111.82 203.405C111.738 200.369 108.867 198.236 106.077 197.498Z" fill="#FEFEFE" stroke="#FEFEFE" stroke-width="0.0769231"/>
    <path d="M91.8821 130.544C96.559 130.79 100.005 136.041 98.5282 140.39C94.918 138.503 92.2923 134.646 91.8821 130.544Z" fill="#FEFEFE" stroke="#FEFEFE" stroke-width="0.0769231"/>
    <path d="M195.595 133.826C196.908 134.646 198.22 135.549 199.451 136.369C197.892 139.405 195.677 142.195 192.067 142.769C190.672 139.159 193.297 136.205 195.595 133.826Z" fill="#FEFEFE" stroke="#FEFEFE" stroke-width="0.0769231"/>
    <path d="M103.533 156.882C104.19 154.585 108.046 154.503 108.621 156.8C109.605 159.836 106.815 162.133 105.174 164.267C104.026 161.969 102.631 159.426 103.533 156.882Z" fill="#3A64A3" stroke="#3A64A3" stroke-width="0.0769231"/>
    <path d="M106.077 197.497C108.867 198.236 111.738 200.369 111.82 203.405C110.015 202.584 108.128 201.846 106.651 200.451C106.405 199.467 106.241 198.482 106.077 197.497Z" fill="#3A64A3" stroke="#3A64A3" stroke-width="0.0769231"/>
    <path d="M323.513 218.667C319.738 210.297 327.533 202.831 334.261 199.138C333.031 206.605 328.682 213.333 323.513 218.667Z" fill="#FEFEFE" stroke="#FEFEFE" stroke-width="0.0769231"/>
    <path d="M102.139 224.164C105.585 220.308 111.082 219.815 115.923 219.651C126.015 219.569 136.19 220.226 146.282 221.539C149.072 231.795 158.18 238.113 166.795 243.364C157.605 246.154 147.677 244.677 138.897 241.231C133.4 239.344 128.313 235.733 122.323 235.405C121.749 243.939 124.949 252.882 130.774 259.2C128.149 261.744 127.492 265.108 126.672 268.472C122.241 271.344 117.564 273.969 112.559 275.692C109.277 269.703 114.61 263.385 112.969 257.149C110.426 247.549 104.682 239.262 101.892 229.826C101.318 228.021 100.662 225.723 102.139 224.164Z" fill="#FEFEFE" stroke="#FEFEFE" stroke-width="0.0769231"/>
    <path d="M265.338 234.749C267.39 233.928 269.441 232.862 271.738 232.533C278.549 237.785 285.605 242.872 293.318 246.728C294.549 250.585 295.862 254.441 298.077 257.805C299.308 259.857 296.846 261.333 295.615 262.564C286.754 270.687 277.81 280.451 276.908 293.005C274.938 293.58 272.887 293.826 271 294.564C268.046 295.959 267.718 301.128 263.862 300.8C258.61 300.554 253.277 300.636 247.944 300.062C251.062 293.99 258.2 291.774 261.728 286.195C265.995 279.549 271.492 273.969 276.087 267.651C278.138 264.944 277.728 261.005 276.169 258.216C272.067 250.667 267.226 243.282 265.338 234.749Z" fill="#FEFEFE" stroke="#FEFEFE" stroke-width="0.0769231"/>
    <path d="M127.903 273.723C131.923 271.097 136.682 267.979 141.687 270.031C137.174 272.41 132.087 273.805 128.067 277.169C125.851 278.81 123.964 282.503 120.682 280.615C121.585 277.005 125.195 275.692 127.903 273.723Z" fill="#FEFEFE" stroke="#FEFEFE" stroke-width="0.0769231"/>
    <path d="M120.026 276.513C120.928 273.723 124.128 272.821 126.508 271.672C124.621 273.559 122.405 275.2 120.026 276.513Z" fill="#FEFEFE" stroke="#FEFEFE" stroke-width="0.0769231"/>
    <path d="M144.969 271.918C147.185 271.426 148.908 273.313 150.713 274.215C145.051 276.923 137.995 279.467 132.005 282.749C129.954 284.144 127.574 283.733 125.769 282.174C130.528 276.431 137.749 273.313 144.969 271.918Z" fill="#FEFEFE" stroke="#FEFEFE" stroke-width="0.0769231"/>
    <path d="M150.138 277.087C153.174 275.692 155.554 278.646 156.292 281.354C153.092 281.846 150.549 284.636 147.103 284.226C143.246 283.569 141.769 288.164 138.651 289.313C135.533 289.395 132.005 289.149 130.118 286.359C135.944 281.846 143.164 279.467 150.138 277.087Z" fill="#FEFEFE" stroke="#FEFEFE" stroke-width="0.0769231"/>
    <path d="M116.169 284.39C114.774 282.256 116.744 280.041 118.22 278.646C118.795 280.041 119.451 281.518 120.026 282.913C123.39 283.077 127.328 284.226 128.559 287.754C129.872 291.61 134.877 290.544 138.077 291.364C139.144 294.482 142.426 298.092 139.718 301.374C130.364 298.667 120.928 293.251 116.169 284.39Z" fill="#FEFEFE" stroke="#FEFEFE" stroke-width="0.0769231"/>
    <path d="M150.877 285.456C152.108 285.128 153.256 284.8 154.405 284.39C154.979 290.954 156.046 297.682 154.241 304.164C152.846 304.328 151.533 304.492 150.22 304.656C151.123 298.256 151.451 291.856 150.877 285.456Z" fill="#FEFEFE" stroke="#FEFEFE" stroke-width="0.0769231"/>
    <path d="M157.113 284.554C160.723 289.231 159.903 296.287 157.359 301.21C157.523 295.631 156.703 290.133 157.113 284.554Z" fill="#FEFEFE" stroke="#FEFEFE" stroke-width="0.0769231"/>
    <path d="M113.79 286.195C115.841 287.754 117.81 289.723 118.959 292.103C118.631 293.99 117.892 295.877 116.826 297.436C113.708 294.564 112.313 290.297 113.79 286.195Z" fill="#FEFEFE" stroke="#FEFEFE" stroke-width="0.0769231"/>
    <path d="M140.374 291.282C142.754 288.903 144.887 285.21 148.744 286.113C149.974 295.713 148.744 306.133 142.59 313.846C140.128 316.062 136.518 315.159 133.564 315.159C133.482 312.287 136.6 311.877 138.569 310.81C138.733 306.544 140.128 302.359 143.492 299.569C142.508 296.779 141.359 294.154 140.374 291.282Z" fill="#FEFEFE" stroke="#FEFEFE" stroke-width="0.0769231"/>
    <path d="M119.533 299.98C118.959 297.928 120.19 295.959 120.764 293.99C126.179 297.6 131.759 300.964 137.995 302.933C137.831 303.918 137.585 304.985 137.421 306.051C131.021 305.969 124.374 304.328 119.533 299.98Z" fill="#FEFEFE" stroke="#FEFEFE" stroke-width="0.0769231"/>
    <path d="M114.2 297.764C120.026 304.492 128.559 307.61 137.174 308.349C135.615 310.81 132.005 312.697 129.379 310.564C126.344 308.349 122.651 307.364 119.123 306.051C115.759 304.903 114.446 301.128 114.2 297.764Z" fill="#FEFEFE" stroke="#FEFEFE" stroke-width="0.0769231"/>
    <path d="M55.5333 298.42C56.0257 306.379 55.6154 314.42 55.6974 322.461C55.6154 360.123 56.0257 397.867 55.5333 435.528L55.6154 436.102C55.2051 390.236 55.3692 344.287 55.5333 298.42Z" fill="#3A64A3" stroke="#3A64A3" stroke-width="0.0769231"/>
    <path d="M148.99 306.297C150.549 306.215 152.19 306.297 153.831 306.297C152.436 309.58 149.482 311.713 146.282 312.697C147.02 310.482 148.005 308.349 148.99 306.297Z" fill="#FEFEFE" stroke="#FEFEFE" stroke-width="0.0769231"/>
    <path d="M122.405 309.416C125.605 310.975 129.379 312.041 131.677 314.831C128.395 313.764 123.554 313.354 122.405 309.416Z" fill="#FEFEFE" stroke="#FEFEFE" stroke-width="0.0769231"/>
    <path d="M82.7744 329.682L82.9385 330.256C83.1026 331.487 83.1847 332.8 83.4308 334.031C91.718 334.031 100.333 334.195 108.046 337.723C112.149 339.61 116.005 342.892 120.846 342.4C129.297 341.744 136.518 336.41 144.805 335.098C155.308 333.292 165.974 335.508 175.985 338.708C179.923 339.939 183.78 341.99 188.128 341.908C195.677 342.4 202.651 338.872 209.79 336.821C217.092 334.441 225.133 333.539 232.6 335.426C241.872 337.477 250.651 342.318 260.333 341.908C265.585 341.99 270.097 339.2 275.021 337.969C281.995 336 289.133 334.359 296.436 334.441C305.79 334.605 314.241 339.2 323.103 341.744C328.354 343.385 333.851 341.498 338.528 339.036C346.323 335.015 355.185 334.031 363.882 334.113C363.964 332.8 364.046 331.487 364.128 330.174V329.6C364.785 340.021 364.292 350.523 364.456 360.944C357.728 360.369 350.918 361.108 344.6 363.241C339.431 364.964 335 369.067 329.256 368.821C317.031 369.559 307.021 359.959 294.795 360.698C283.882 361.026 273.954 365.949 263.451 368.246C247.78 370.79 233.831 357.99 218.077 361.436C205.605 364.308 192.723 371.692 179.677 367.015C166.795 361.764 151.615 357.58 138.323 363.733C130.774 367.59 121.995 369.477 113.626 367.508C109.277 366.523 105.749 363.487 101.482 362.257C95.5744 360.533 89.3385 360.533 83.2667 360.862C83.1847 365.128 83.677 369.477 82.9385 373.744V374.4C82.5283 359.549 82.7744 344.533 82.7744 329.682ZM83.2667 342.974C83.2667 345.846 83.2667 348.8 83.2667 351.754C88.3539 351.672 93.5231 351.918 98.5283 352.328C106.487 352.985 112.723 359.713 120.846 359.467C129.462 359.139 136.764 353.887 145.133 352.492C155.472 350.523 165.892 353.149 175.739 356.267C179.841 357.415 183.78 359.385 188.046 359.467C200.682 359.877 211.677 351.59 224.231 352.082C234.323 352.082 243.595 356.595 253.195 359.057C261.728 361.108 269.933 357.415 277.81 354.708C284.785 352.246 292.251 351.672 299.554 352.328C308.087 353.395 315.964 357.169 324.251 359.467C328.928 360.862 333.851 358.892 338.036 356.677C345.913 352.328 355.103 351.836 363.882 351.836C364.046 349.046 364.046 346.339 363.964 343.549C357.072 343.385 349.605 342.892 343.451 346.421C338.774 348.964 333.769 351.18 328.436 351.344C321.38 351.344 314.815 348.39 308.415 345.764C298.323 341.908 287.164 343.549 277.072 346.585C271.492 348.062 266.323 351.262 260.415 351.015C247.205 351.672 235.8 342.646 222.672 343.467C213.072 343.959 204.539 348.964 195.185 350.687C182.549 352.492 171.144 345.518 159.082 343.385C147.759 341.908 137.092 346.831 126.672 350.523C120.19 352.082 113.215 350.523 107.39 347.405C100.087 343.385 91.4718 342.482 83.2667 342.974Z" fill="#FEFEFE" stroke="#FEFEFE" stroke-width="0.0769231"/>
    <path d="M82.9385 330.256C176.641 329.928 270.344 330.01 364.128 330.174C364.046 331.487 363.964 332.8 363.882 334.113C355.185 334.031 346.323 335.015 338.528 339.036C333.851 341.497 328.354 343.385 323.103 341.744C314.241 339.2 305.79 334.605 296.436 334.441C289.133 334.359 281.995 336 275.021 337.969C270.097 339.2 265.585 341.99 260.333 341.908C250.651 342.318 241.872 337.477 232.6 335.426C225.133 333.538 217.092 334.441 209.79 336.821C202.651 338.872 195.677 342.4 188.128 341.908C183.78 341.99 179.923 339.938 175.985 338.708C165.974 335.508 155.308 333.292 144.805 335.097C136.518 336.41 129.297 341.744 120.846 342.4C116.005 342.892 112.149 339.61 108.046 337.723C100.333 334.195 91.718 334.031 83.4308 334.031C83.1846 332.8 83.1026 331.487 82.9385 330.256Z" fill="#3A64A3" stroke="#3A64A3" stroke-width="0.0769231"/>
    <path d="M83.2666 342.974C91.4717 342.482 100.087 343.385 107.39 347.405C113.215 350.523 120.19 352.082 126.672 350.523C137.092 346.831 147.759 341.908 159.082 343.385C171.144 345.518 182.549 352.492 195.185 350.687C204.538 348.964 213.072 343.959 222.672 343.467C235.8 342.646 247.205 351.672 260.415 351.015C266.323 351.262 271.492 348.062 277.072 346.585C287.164 343.549 298.323 341.908 308.415 345.764C314.815 348.39 321.379 351.344 328.436 351.344C333.769 351.18 338.774 348.964 343.451 346.421C349.605 342.892 357.072 343.385 363.964 343.549C364.046 346.339 364.046 349.046 363.882 351.836C355.103 351.836 345.913 352.328 338.036 356.677C333.851 358.892 328.928 360.862 324.251 359.467C315.964 357.169 308.087 353.395 299.554 352.328C292.251 351.672 284.785 352.246 277.81 354.708C269.933 357.415 261.728 361.108 253.195 359.056C243.595 356.595 234.323 352.082 224.231 352.082C211.677 351.59 200.682 359.877 188.046 359.467C183.779 359.385 179.841 357.415 175.738 356.267C165.892 353.149 155.472 350.523 145.133 352.492C136.764 353.887 129.461 359.139 120.846 359.467C112.723 359.713 106.487 352.985 98.5281 352.328C93.523 351.918 88.3538 351.672 83.2666 351.754C83.2666 348.8 83.2666 345.846 83.2666 342.974Z" fill="#3A64A3" stroke="#3A64A3" stroke-width="0.0769231"/>
    <path d="M83.2667 360.862C89.3385 360.533 95.5744 360.533 101.482 362.257C105.749 363.487 109.277 366.523 113.626 367.508C121.995 369.477 130.774 367.59 138.323 363.733C151.615 357.58 166.795 361.764 179.677 367.015C192.723 371.692 205.605 364.308 218.077 361.436C233.831 357.99 247.78 370.79 263.451 368.246C273.954 365.949 283.882 361.026 294.795 360.698C307.021 359.959 317.031 369.559 329.256 368.821C335 369.067 339.431 364.964 344.6 363.241C350.918 361.108 357.728 360.369 364.456 360.944C364.21 365.292 364.292 369.641 364.292 373.908C270.508 373.744 176.723 374.072 82.9385 373.744C83.6769 369.477 83.1846 365.128 83.2667 360.862Z" fill="#3A64A3" stroke="#3A64A3" stroke-width="0.0769231"/>
    <path d="M83.2666 384C176.805 383.754 270.344 383.836 363.882 383.918C364.046 397.867 364.128 411.815 363.882 425.764C270.344 425.682 176.805 425.846 83.2666 425.682C83.3487 411.815 83.3487 397.867 83.2666 384ZM89.5846 388.759C89.5025 399.59 89.4205 410.339 89.5846 421.087C179.103 421.251 268.62 421.251 358.138 421.087C358.303 410.339 358.303 399.508 358.138 388.759C268.62 388.595 179.103 388.595 89.5846 388.759Z" fill="#FEFEFE" stroke="#FEFEFE" stroke-width="0.0769231"/>
    <path d="M89.5845 388.759C179.102 388.595 268.62 388.595 358.138 388.759C358.302 399.508 358.302 410.339 358.138 421.087C268.62 421.251 179.102 421.251 89.5845 421.087C89.4204 410.339 89.5024 399.59 89.5845 388.759ZM101.892 396.39C101.728 401.887 101.728 407.385 101.892 412.882C103.451 412.882 105.092 412.882 106.733 412.8C106.651 410.585 106.733 408.451 106.733 406.236C109.441 406.318 112.231 406.236 114.938 406.072C114.938 405.087 114.938 404.021 114.938 403.036C112.149 402.954 109.441 402.954 106.733 402.872C106.733 401.805 106.815 400.739 106.815 399.754C109.523 399.754 112.231 399.754 114.938 399.59C114.938 398.523 114.938 397.457 114.938 396.472C110.59 396.308 106.241 396.39 101.892 396.39ZM124.456 396.718C119.943 397.785 116.333 402.626 118.138 407.303C121.256 414.031 131.184 414.769 136.6 410.421C139.718 408.205 140.62 403.364 138.077 400.41C135.041 396.226 129.133 395.323 124.456 396.718ZM148.99 396.636C144.805 397.539 141.031 401.641 142.015 406.154C144.559 415.836 162.036 415.426 163.677 405.333C164.087 397.949 154.979 394.667 148.99 396.636ZM164.415 396.39C164.415 397.374 164.415 398.441 164.415 399.508C166.631 399.508 168.846 399.508 171.061 399.59C171.226 403.939 171.226 408.369 171.143 412.718C172.785 412.8 174.426 412.882 176.067 412.964C176.231 408.533 176.231 404.103 176.067 399.754C178.364 399.59 180.661 399.426 182.959 399.426C182.959 398.441 183.041 397.457 183.041 396.472C176.805 396.308 170.569 396.39 164.415 396.39ZM185.667 396.39C185.584 401.887 185.584 407.385 185.667 412.882C190.261 412.718 195.267 413.785 199.615 411.898C202.897 410.01 201.831 405.251 198.795 403.692C200.682 401.805 200.682 398.441 197.974 397.128C194.118 395.651 189.769 396.636 185.667 396.39ZM210.446 396.472C207.984 401.887 205.359 407.303 202.897 412.8C204.62 412.882 206.261 412.882 207.984 412.964C208.477 411.815 208.969 410.749 209.543 409.682C212.169 409.682 214.877 409.682 217.585 409.682C218.159 410.667 218.733 411.733 219.472 412.718C221.113 413.128 222.754 412.8 224.395 412.8C221.851 407.139 218.815 401.887 216.108 396.39C214.22 396.39 212.333 396.39 210.446 396.472ZM226.61 396.308C226.446 401.887 226.528 407.385 226.61 412.882C231.451 412.882 236.374 413.21 241.215 412.636C241.215 411.651 241.215 410.667 241.215 409.682C237.933 409.764 234.733 409.764 231.533 409.6C231.369 405.251 231.369 400.821 231.451 396.39C229.81 396.39 228.251 396.39 226.61 396.308ZM243.677 396.39C243.513 401.887 243.513 407.385 243.677 412.882C248.518 412.964 253.277 413.046 258.118 412.8C257.954 411.733 257.872 410.667 257.872 409.6C254.672 409.764 251.472 409.764 248.272 409.518C248.354 405.087 248.354 400.739 248.272 396.39C246.713 396.39 245.236 396.39 243.677 396.39ZM269.441 399.672C266.241 402.708 266.979 408.369 270.508 410.831C274.938 414.031 280.928 413.292 285.851 411.815C285.769 410.421 285.933 409.108 285.933 407.795C282.323 409.108 278.056 410.667 274.61 408.369C272.149 407.057 271.738 403.364 273.872 401.641C277.072 398.523 282.077 399.836 285.687 401.313C285.687 399.918 285.605 398.605 285.605 397.21C280.272 395.651 273.543 395.241 269.441 399.672ZM289.626 396.308C289.461 401.805 289.461 407.303 289.626 412.882C294.467 412.964 299.308 413.046 304.149 412.8C303.984 411.733 303.902 410.667 303.902 409.682C300.785 409.764 297.667 409.764 294.549 409.6C294.467 405.251 294.467 400.821 294.549 396.472C292.908 396.39 291.267 396.39 289.626 396.308ZM306.364 396.39C306.528 400.657 305.543 405.333 307.184 409.436C311.041 414.523 320.395 414.441 324.497 409.6C326.22 405.498 325.236 400.739 325.318 396.308C323.677 396.39 322.036 396.39 320.395 396.472C320.395 399.918 320.805 403.446 320.231 406.892C319.082 410.749 312.518 410.585 311.533 406.728C311.041 403.282 311.369 399.836 311.205 396.39C309.564 396.39 307.923 396.39 306.364 396.39ZM329.338 396.39C329.256 401.887 329.338 407.385 329.338 412.882C333.933 412.718 338.856 413.785 343.205 411.898C346.487 410.01 345.502 405.251 342.385 403.774C343.779 402.051 344.764 399.262 342.549 397.785C338.692 395.159 333.687 396.8 329.338 396.39Z" fill="#3A64A3" stroke="#3A64A3" stroke-width="0.0769231"/>
    <path d="M101.892 396.39C106.241 396.39 110.59 396.308 114.939 396.472C114.939 397.456 114.939 398.523 114.939 399.59C112.231 399.754 109.523 399.754 106.815 399.754C106.815 400.738 106.733 401.805 106.733 402.872C109.441 402.954 112.149 402.954 114.939 403.036C114.939 404.02 114.939 405.087 114.939 406.072C112.231 406.236 109.441 406.318 106.733 406.236C106.733 408.451 106.651 410.585 106.733 412.8C105.092 412.882 103.451 412.882 101.892 412.882C101.728 407.385 101.728 401.887 101.892 396.39Z" fill="#FEFEFE" stroke="#FEFEFE" stroke-width="0.0769231"/>
    <path d="M124.456 396.718C129.133 395.323 135.041 396.226 138.077 400.41C140.621 403.364 139.718 408.205 136.6 410.42C131.185 414.769 121.256 414.031 118.139 407.303C116.333 402.626 119.944 397.785 124.456 396.718ZM126.918 399.918C123.964 400.328 121.913 403.61 122.98 406.4C125.113 411.241 133.728 410.503 134.467 405.087C134.877 401.149 130.282 399.015 126.918 399.918Z" fill="#FEFEFE" stroke="#FEFEFE" stroke-width="0.0769231"/>
    <path d="M148.99 396.636C154.98 394.667 164.087 397.949 163.677 405.333C162.036 415.426 144.559 415.836 142.015 406.154C141.031 401.641 144.805 397.538 148.99 396.636ZM150.713 400C147.841 400.574 146.036 404.021 147.349 406.728C149.564 411.487 158.836 410.174 158.59 404.513C158.59 400.656 153.913 399.015 150.713 400Z" fill="#FEFEFE" stroke="#FEFEFE" stroke-width="0.0769231"/>
    <path d="M164.415 396.39C170.569 396.39 176.805 396.308 183.041 396.472C183.041 397.456 182.959 398.441 182.959 399.426C180.661 399.426 178.364 399.59 176.067 399.754C176.231 404.102 176.231 408.533 176.067 412.964C174.426 412.882 172.785 412.8 171.143 412.718C171.226 408.369 171.226 403.938 171.061 399.59C168.846 399.508 166.631 399.508 164.415 399.508C164.415 398.441 164.415 397.374 164.415 396.39Z" fill="#FEFEFE" stroke="#FEFEFE" stroke-width="0.0769231"/>
    <path d="M185.667 396.39C189.769 396.636 194.118 395.651 197.974 397.128C200.682 398.441 200.682 401.805 198.795 403.692C201.831 405.251 202.898 410.01 199.615 411.897C195.267 413.785 190.262 412.718 185.667 412.882C185.585 407.385 185.585 401.887 185.667 396.39ZM190.59 399.344C190.59 400.492 190.59 401.723 190.672 402.872C192.231 402.626 195.759 403.282 195.349 400.656C194.282 399.015 192.149 399.59 190.59 399.344ZM190.59 405.908C190.59 407.138 190.59 408.451 190.59 409.682C192.559 409.682 194.446 409.6 196.415 409.354C196.333 408.369 196.333 407.385 196.415 406.318C194.446 406.154 192.477 405.99 190.59 405.908Z" fill="#FEFEFE" stroke="#FEFEFE" stroke-width="0.0769231"/>
    <path d="M210.446 396.472C212.333 396.39 214.221 396.39 216.108 396.39C218.815 401.887 221.851 407.138 224.395 412.8C222.754 412.8 221.113 413.128 219.472 412.718C218.733 411.733 218.159 410.667 217.585 409.682C214.877 409.682 212.169 409.682 209.544 409.682C208.969 410.749 208.477 411.815 207.985 412.964C206.262 412.882 204.621 412.882 202.897 412.8C205.359 407.302 207.985 401.887 210.446 396.472ZM211.103 406.646C212.744 406.646 214.385 406.646 216.026 406.646C215.369 404.677 214.467 402.79 213.4 401.067C212.333 402.79 211.513 404.677 211.103 406.646Z" fill="#FEFEFE" stroke="#FEFEFE" stroke-width="0.0769231"/>
    <path d="M226.61 396.308C228.251 396.39 229.81 396.39 231.451 396.39C231.369 400.82 231.369 405.251 231.533 409.6C234.733 409.764 237.933 409.764 241.216 409.682C241.216 410.667 241.216 411.651 241.216 412.636C236.374 413.21 231.451 412.882 226.61 412.882C226.528 407.385 226.446 401.887 226.61 396.308Z" fill="#FEFEFE" stroke="#FEFEFE" stroke-width="0.0769231"/>
    <path d="M243.677 396.39C245.236 396.39 246.713 396.39 248.272 396.39C248.354 400.738 248.354 405.087 248.272 409.518C251.472 409.764 254.672 409.764 257.872 409.6C257.872 410.667 257.954 411.733 258.118 412.8C253.277 413.046 248.518 412.964 243.677 412.882C243.513 407.385 243.513 401.887 243.677 396.39Z" fill="#FEFEFE" stroke="#FEFEFE" stroke-width="0.0769231"/>
    <path d="M269.441 399.672C273.544 395.241 280.272 395.651 285.605 397.21C285.605 398.605 285.687 399.918 285.687 401.313C282.077 399.836 277.072 398.523 273.872 401.641C271.738 403.364 272.149 407.056 274.61 408.369C278.056 410.667 282.323 409.108 285.933 407.795C285.933 409.108 285.769 410.42 285.851 411.815C280.928 413.292 274.938 414.031 270.508 410.831C266.98 408.369 266.241 402.708 269.441 399.672Z" fill="#FEFEFE" stroke="#FEFEFE" stroke-width="0.0769231"/>
    <path d="M289.626 396.308C291.267 396.39 292.908 396.39 294.549 396.472C294.467 400.82 294.467 405.251 294.549 409.6C297.667 409.764 300.784 409.764 303.902 409.682C303.902 410.667 303.984 411.733 304.149 412.8C299.308 413.046 294.467 412.964 289.626 412.882C289.461 407.302 289.461 401.805 289.626 396.308Z" fill="#FEFEFE" stroke="#FEFEFE" stroke-width="0.0769231"/>
    <path d="M306.364 396.39C307.923 396.39 309.564 396.39 311.205 396.39C311.369 399.836 311.041 403.282 311.533 406.728C312.518 410.585 319.082 410.749 320.231 406.892C320.805 403.446 320.395 399.918 320.395 396.472C322.036 396.39 323.677 396.39 325.318 396.308C325.236 400.738 326.22 405.497 324.497 409.6C320.395 414.441 311.041 414.523 307.184 409.436C305.543 405.333 306.528 400.656 306.364 396.39Z" fill="#FEFEFE" stroke="#FEFEFE" stroke-width="0.0769231"/>
    <path d="M329.338 396.39C333.687 396.8 338.692 395.159 342.549 397.785C344.764 399.261 343.779 402.051 342.385 403.774C345.503 405.251 346.487 410.01 343.205 411.897C338.856 413.785 333.933 412.718 329.338 412.882C329.338 407.385 329.256 401.887 329.338 396.39ZM334.179 399.344C334.262 400.492 334.262 401.723 334.262 402.872C335.903 402.626 339.267 403.282 338.938 400.656C337.954 399.015 335.821 399.59 334.179 399.344ZM334.179 405.908C334.179 407.22 334.179 408.451 334.262 409.682C336.149 409.682 338.118 409.6 340.005 409.354C339.923 408.369 339.923 407.303 340.005 406.318C338.036 406.154 336.149 405.99 334.179 405.908Z" fill="#FEFEFE" stroke="#FEFEFE" stroke-width="0.0769231"/>
    <path d="M126.918 399.918C130.282 399.015 134.877 401.149 134.467 405.087C133.728 410.503 125.113 411.241 122.98 406.4C121.913 403.61 123.964 400.328 126.918 399.918Z" fill="#3A64A3" stroke="#3A64A3" stroke-width="0.0769231"/>
    <path d="M150.713 400C153.913 399.015 158.59 400.656 158.59 404.513C158.836 410.174 149.564 411.487 147.349 406.728C146.036 404.02 147.841 400.574 150.713 400Z" fill="#3A64A3" stroke="#3A64A3" stroke-width="0.0769231"/>
    <path d="M190.59 399.344C192.149 399.59 194.282 399.015 195.349 400.656C195.759 403.282 192.231 402.626 190.672 402.872C190.59 401.723 190.59 400.492 190.59 399.344Z" fill="#3A64A3" stroke="#3A64A3" stroke-width="0.0769231"/>
    <path d="M334.179 399.344C335.82 399.59 337.954 399.015 338.938 400.656C339.267 403.282 335.903 402.626 334.261 402.872C334.261 401.723 334.261 400.492 334.179 399.344Z" fill="#3A64A3" stroke="#3A64A3" stroke-width="0.0769231"/>
    <path d="M211.103 406.646C211.513 404.677 212.333 402.79 213.4 401.067C214.467 402.79 215.369 404.677 216.026 406.646C214.385 406.646 212.744 406.646 211.103 406.646Z" fill="#3A64A3" stroke="#3A64A3" stroke-width="0.0769231"/>
    <path d="M190.59 405.908C192.477 405.99 194.446 406.154 196.415 406.318C196.333 407.385 196.333 408.369 196.415 409.354C194.446 409.6 192.559 409.682 190.59 409.682C190.59 408.451 190.59 407.138 190.59 405.908Z" fill="#3A64A3" stroke="#3A64A3" stroke-width="0.0769231"/>
    <path d="M334.179 405.908C336.149 405.99 338.036 406.154 340.005 406.318C339.923 407.303 339.923 408.369 340.005 409.354C338.118 409.6 336.149 409.682 334.261 409.682C334.179 408.451 334.179 407.221 334.179 405.908Z" fill="#3A64A3" stroke="#3A64A3" stroke-width="0.0769231"/>
    <path d="M114.2 436.021C187.554 435.856 260.908 435.856 334.262 436.021C299.062 451.282 263.369 465.559 228.005 480.492C225.872 481.313 223.492 482.954 221.195 481.477C185.585 466.215 149.646 451.61 114.2 436.021Z" fill="#3A64A3" stroke="#3A64A3" stroke-width="0.0769231"/>
    <path d="M57.8308 436.349C58.2411 436.595 58.9795 437.005 59.3077 437.169" stroke="#3A64A3" stroke-width="0.0769231"/>
    <path d="M380.949 440.451C381.277 440.287 382.015 439.877 382.426 439.631" stroke="#3A64A3" stroke-width="0.0769231"/>
    <path d="M70.959 442.092C71.3692 442.338 72.0257 442.749 72.4359 442.913" stroke="#3A64A3" stroke-width="0.0769231"/>
    <path d="M375.205 442.913C375.615 442.749 376.354 442.338 376.682 442.092" stroke="#3A64A3" stroke-width="0.0769231"/>
    <path d="M369.461 445.374C369.872 445.21 370.61 444.8 370.938 444.636" stroke="#3A64A3" stroke-width="0.0769231"/>
    <path d="M356.333 451.118C356.661 450.954 357.4 450.544 357.81 450.297" stroke="#3A64A3" stroke-width="0.0769231"/>
    <path d="M350.59 453.58C351 453.415 351.739 453.005 352.067 452.759" stroke="#3A64A3" stroke-width="0.0769231"/>
    <path d="M344.846 456.041C345.256 455.877 345.995 455.467 346.323 455.302" stroke="#3A64A3" stroke-width="0.0769231"/>
    <path d="M102.959 456.041C103.369 456.287 104.108 456.697 104.436 456.862" stroke="#3A64A3" stroke-width="0.0769231"/>
    <path d="M108.703 458.585C109.031 458.749 109.769 459.159 110.18 459.323" stroke="#3A64A3" stroke-width="0.0769231"/>
    <path d="M331.718 461.785C332.046 461.621 332.785 461.21 333.195 460.964" stroke="#3A64A3" stroke-width="0.0769231"/>
    <path d="M325.974 464.246C326.385 464 327.123 463.672 327.451 463.426" stroke="#3A64A3" stroke-width="0.0769231"/>
    <path d="M121.831 464.246C122.241 464.492 122.897 464.903 123.308 465.067" stroke="#3A64A3" stroke-width="0.0769231"/>
    <path d="M127.574 466.708C127.903 466.954 128.641 467.364 129.051 467.528" stroke="#3A64A3" stroke-width="0.0769231"/>
    <path d="M134.959 469.99C135.369 470.154 136.108 470.564 136.436 470.81" stroke="#3A64A3" stroke-width="0.0769231"/>
    <path d="M282.487 483.118C282.816 482.954 283.554 482.544 283.964 482.297" stroke="#3A64A3" stroke-width="0.0769231"/>
    <path d="M166.959 483.938C167.369 484.185 168.108 484.595 168.436 484.759" stroke="#3A64A3" stroke-width="0.0769231"/>
    <path d="M276.744 485.58C277.154 485.415 277.892 485.005 278.221 484.759" stroke="#3A64A3" stroke-width="0.0769231"/>
    <path d="M172.703 486.4C173.031 486.646 173.769 487.056 174.18 487.22" stroke="#3A64A3" stroke-width="0.0769231"/>
    <path d="M271 488.041C271.41 487.877 272.149 487.467 272.477 487.302" stroke="#3A64A3" stroke-width="0.0769231"/>
    <path d="M263.615 491.323C263.944 491.159 264.682 490.749 265.092 490.502" stroke="#3A64A3" stroke-width="0.0769231"/>
    <path d="M185.831 492.144C186.241 492.39 186.98 492.8 187.308 492.964" stroke="#3A64A3" stroke-width="0.0769231"/>
    <path d="M257.872 493.785C258.2 493.621 258.938 493.21 259.349 492.964" stroke="#3A64A3" stroke-width="0.0769231"/>
    <path d="M246.385 498.708C246.795 498.544 247.533 498.133 247.861 497.969" stroke="#3A64A3" stroke-width="0.0769231"/>
    <path d="M204.703 500.349C205.031 500.595 205.769 501.005 206.18 501.169" stroke="#3A64A3" stroke-width="0.0769231"/>
    <path d="M239 501.99C239.41 501.826 240.067 501.415 240.477 501.169" stroke="#3A64A3" stroke-width="0.0769231"/>
    <path d="M210.446 502.892C210.774 503.056 211.513 503.467 211.923 503.631" stroke="#3A64A3" stroke-width="0.0769231"/>
    <path d="M233.256 504.451C233.585 504.287 234.323 503.877 234.733 503.631" stroke="#3A64A3" stroke-width="0.0769231"/>
</svg>
