<svg width="280" height="512" viewBox="0 0 280 512" fill="none" xmlns="http://www.w3.org/2000/svg">
    <g clip-path="url(#clip0_11_221)">
        <path d="M197.931 512C196.273 511.714 194.615 511.485 192.985 511.142C182.063 508.912 172.4 504.28 165.166 495.589C159.133 488.327 155.874 479.892 155.274 470.286C154.702 461.566 155.903 453.246 159.534 445.412C164.794 434.09 173.543 426.456 185.38 422.568C195.901 419.08 206.651 418.908 217.487 421.252C220.747 421.967 223.978 422.682 227.237 423.368C228.095 423.54 228.495 423.911 228.581 424.855C229.038 430.03 229.553 435.176 230.125 440.323C230.21 441.18 230.039 441.809 229.21 441.952C228.752 442.038 228.066 441.724 227.723 441.352C223.634 437.063 219.146 433.346 213.399 431.545C206.966 429.544 200.447 428.372 193.786 430.402C182.721 433.775 175.602 441.38 172.657 452.274C168.854 466.34 171.17 479.549 180.577 491.071C185.151 496.675 191.413 499.363 198.446 500.106C205.651 500.878 212.684 500.135 219.26 496.79C222.72 495.046 225.807 492.758 228.438 489.871C228.695 489.585 228.867 489.242 229.038 489.013C230.325 489.442 230.582 490.042 230.439 491.129C229.924 495.331 229.467 499.534 229.153 503.766C229.038 505.338 228.581 506.11 227.008 506.682C219.46 509.513 211.769 511.342 203.707 511.657C203.506 511.657 203.335 511.828 203.135 511.943C201.362 512 199.647 512 197.931 512Z" fill="#E51B24"/>
        <path d="M63.8113 108.411C65.0979 108.468 66.4131 108.468 67.7283 108.64C70.9591 109.069 73.2463 111.099 75.3049 113.357C75.9625 114.072 76.5629 114.301 77.392 113.9C79.4792 112.843 81.5663 111.756 83.5677 110.727C84.311 113.9 80.4512 119.361 75.2477 121.363C71.8454 122.678 68.6718 121.992 65.8127 119.905C63.068 117.903 61.5813 114.958 60.2089 111.87C59.294 112.557 58.4934 113.214 57.6357 113.815C56.0918 114.901 54.8338 115.902 55.3484 118.303C55.8631 120.705 54.3764 122.764 52.6037 124.422C51.8604 125.137 51.0026 125.766 50.2307 126.48C47.9148 128.596 46.085 130.912 47.6575 134.314C42.3396 135.172 38.3083 130.798 39.1946 125.308C39.7092 122.163 41.7106 120.105 44.0836 118.389C46.3423 116.731 48.8297 115.444 51.2028 113.929C52.8324 112.871 54.4335 111.756 56.006 110.612C56.4349 110.298 56.7494 109.812 57.2354 109.269C55.0911 108.354 53.2899 109.269 51.603 109.898C49.7446 110.584 48.0578 111.699 46.2851 112.614C41.9107 114.844 37.5363 114.901 33.2477 112.471C31.6752 111.585 31.0462 110.098 31.4465 108.411C34.5343 110.155 37.0789 108.354 39.7092 107.096C41.2531 106.352 42.7399 105.466 44.3124 104.809C49.4301 102.693 54.2334 103.036 58.5506 106.838C58.6936 106.953 58.8365 107.039 59.294 107.353C61.1238 104.608 62.925 101.892 64.8406 98.976C63.7828 98.5471 62.9822 98.2898 62.2388 97.9181C61.4097 97.4893 60.4948 97.0604 59.8944 96.4028C59.5227 95.974 59.4369 95.059 59.5799 94.43C59.6371 94.1441 60.552 93.9726 61.0952 93.9154C62.6105 93.7725 64.1258 93.7439 65.6412 93.6581C66.4989 93.6009 67.0421 93.2864 67.2137 92.3429C67.7283 89.7983 68.3001 87.2823 68.9005 84.4804C62.5819 84.652 57.2069 86.4818 51.4887 88.8834C51.8318 87.6826 51.9747 86.7391 52.3178 85.8528C53.7759 82.1931 56.5779 79.8201 60.0659 78.2476C62.4962 77.1611 65.0122 76.332 67.6425 75.3313C67.3566 72.5008 65.7555 70.185 64.2116 67.8405C66.1272 67.4688 67.957 67.0686 69.8154 66.8398C70.1871 66.7827 70.9019 67.1829 71.0448 67.5546C71.874 69.5274 72.5316 71.5573 73.3321 73.5301C73.5037 73.9304 73.9611 74.5022 74.247 74.5022C77.7065 74.4164 81.166 74.2449 84.5683 74.0733C84.6541 73.8732 84.7685 73.7588 84.7399 73.7017C83.2532 70.3279 84.7971 67.8977 88.6854 65.9535C91.6875 64.4668 94.9468 64.5812 98.2062 64.6669C107.098 64.9242 115.332 67.9835 123.623 70.6424C131.143 73.0441 138.605 75.5601 146.468 76.6465C150.728 77.2469 154.73 76.6179 158.133 73.7874C158.59 73.4157 158.847 72.8153 159.219 72.3579C159.419 72.072 159.705 71.5859 159.877 71.6145C160.248 71.6717 160.706 71.9576 160.849 72.2721C161.078 72.7581 161.192 73.3871 161.163 73.9304C160.992 76.2462 160.163 78.2476 158.476 79.9059C154.845 83.5083 150.27 84.9379 145.41 85.6526C141.235 86.253 137.061 86.1101 132.944 85.1952C132.029 84.9951 131.057 85.0808 130.114 85.1094C129.885 85.1094 129.542 85.3667 129.513 85.5669C129.485 85.767 129.742 86.0243 129.885 86.2531C129.942 86.3102 130.056 86.3388 130.142 86.396C136.89 89.3695 140.263 98.5185 138.977 105.809C138.09 110.87 135.946 115.33 132.773 119.247C127.912 125.28 122.909 131.227 117.82 137.059C111.644 144.15 105.668 151.326 101.466 159.817C97.7201 167.394 95.4901 175.399 96.0047 183.977C96.1762 186.607 96.5479 189.295 97.2055 191.839C97.5486 193.24 98.4635 194.613 99.4356 195.699C100.894 197.3 102.495 197.186 104.039 195.642C106.326 193.355 107.498 190.41 108.299 187.379C110.729 178.43 112.759 169.395 115.446 160.532C118.248 151.212 122.852 142.806 129.284 135.372C136.175 127.395 144.352 120.877 152.157 113.929C160.391 106.581 168.883 99.4906 176.631 91.6567C187.867 80.3061 197.731 67.7547 204.793 53.2878C207.652 47.4266 210.225 41.4225 211.14 34.9038C211.884 29.6145 210.826 24.5825 208.081 19.9508C207.795 19.4647 207.481 18.5498 207.681 18.3497C208.081 17.978 208.824 17.8351 209.453 17.8065C210.054 17.8065 210.683 17.978 211.226 18.2353C218.545 21.7806 223.063 27.2701 223.349 35.733C223.692 45.8827 220.489 55.0032 215.429 63.6091C209.453 73.7874 201.934 82.8222 193.814 91.3422C183.865 101.778 172.485 110.584 161.592 119.933C154.845 125.737 148.126 131.57 142.15 138.174C133.173 148.038 127.226 159.531 123.366 172.226C121.794 177.401 120.25 182.604 118.506 187.722C116.133 194.67 112.159 200.359 105.325 203.647C104.811 203.905 104.611 204.819 104.267 205.42C104.925 205.677 105.611 206.192 106.212 206.135C110.901 205.62 114.703 203.218 118.105 200.131C123.881 194.898 127.169 188.151 129.713 180.946C131.2 176.772 132.887 172.655 134.517 168.48C137.347 161.218 142.122 155.414 148.297 150.84C156.017 145.122 163.908 139.632 171.771 134.114C184.093 125.48 196.302 116.702 207.28 106.381C230.468 84.5376 247.308 58.6343 256.857 28.0992C259.344 20.1509 261.46 12.1169 262.032 3.76835C262.089 3.02498 261.946 2.22444 262.061 1.48107C262.146 0.966438 262.346 0.308848 262.747 0.0515298C263.004 -0.120016 263.833 0.165893 264.119 0.480393C265.463 1.99571 266.892 3.51102 267.95 5.22647C272.582 12.7745 273.268 20.7513 270.695 29.2142C268.036 37.963 264.148 46.1114 259.802 54.0883C246.021 79.3055 227.551 100.577 205.308 118.675C193.099 128.596 179.919 137.088 166.767 145.665C164.423 147.209 162.107 148.781 159.791 150.382C159.391 150.668 159.191 151.212 158.905 151.669C159.505 151.755 160.134 152.041 160.649 151.898C167.997 149.811 174.858 146.58 181.72 143.32C183.55 142.463 184.493 143.006 184.551 145.065C184.665 149.439 182.549 152.87 179.519 155.7C174.344 160.475 168.111 163.448 161.621 165.907C158.819 166.965 155.988 167.88 153.158 168.909C152.529 169.138 151.957 169.538 151.385 169.881C151.414 170.053 151.414 170.196 151.442 170.367C152.043 170.482 152.643 170.796 153.215 170.711C162.822 169.31 172.028 166.565 181.005 162.962C181.663 162.705 182.778 162.534 183.178 162.877C183.636 163.277 183.807 164.392 183.607 165.078C182.864 167.937 181.234 170.31 179.004 172.283C175.344 175.514 170.999 177.544 166.424 179.059C161.935 180.574 157.332 181.718 152.786 183.09C152.214 183.262 151.728 183.719 151.328 184.291C161.506 185.492 171.142 182.576 181.005 181.032C181.606 183.062 180.577 184.463 179.547 185.892C173.772 193.926 165.109 196.185 156.046 197.643C154.788 197.843 153.472 197.815 152.214 198.043C151.757 198.129 151.357 198.615 150.928 198.93C151.328 199.187 151.671 199.587 152.129 199.702C158.218 200.988 164.394 200.988 170.598 200.645C171.084 200.617 171.542 200.531 172.028 200.559C172.542 200.617 173.429 200.674 173.486 200.931C173.629 201.446 173.543 202.275 173.2 202.647C171.542 204.534 169.969 206.564 168.025 208.107C163.25 211.824 157.589 213.197 151.671 213.683C151.328 213.711 150.985 213.654 150.67 213.74C150.327 213.854 150.013 214.111 149.67 214.312C149.87 214.655 149.984 215.141 150.299 215.312C152.386 216.456 154.444 217.657 156.617 218.572C170.655 224.49 185.294 227.263 200.533 226.92C201.019 226.92 201.82 227.149 201.934 227.492C202.077 227.892 201.791 228.636 201.448 228.95C194.729 235.383 187.009 240.101 177.574 240.93C170.913 241.53 164.423 240.072 158.161 237.756C149.555 234.583 142.093 229.579 135.346 223.461C133.173 221.488 131.2 219.286 129.056 217.256C128.655 216.885 127.969 216.799 127.397 216.57C127.255 217.228 126.797 218.028 127.054 218.486C128.627 221.288 130.171 224.147 132.029 226.749C137.204 233.896 143.837 239.643 150.442 245.39C156.446 250.593 162.479 255.74 168.254 261.229C177.946 270.407 183.493 281.872 185.523 295.024C186.695 302.6 186.295 310.12 183.893 317.439C183.664 318.154 183.321 318.84 182.864 319.44C182.635 319.755 181.92 320.069 181.72 319.926C181.377 319.698 181.12 319.126 181.12 318.697C181.148 317.182 181.377 315.666 181.377 314.151C181.463 300.084 176.86 287.762 167.225 277.583C160.992 270.979 154.302 264.832 147.726 258.542C141.407 252.509 135.231 246.419 130.371 239.1C126.168 232.781 123.052 225.891 120.421 218.8C120.221 218.257 119.707 217.828 119.335 217.314C119.02 217.943 118.334 218.629 118.42 219.201C118.906 222.66 119.249 226.205 120.193 229.551C122.508 237.699 127.054 244.675 132.372 251.137C140.321 260.743 149.298 269.292 158.962 277.154C159.591 277.669 159.877 278.098 159.734 279.041C157.618 293.08 160.134 306.088 168.368 317.839C170.684 321.156 173.658 323.815 176.888 326.188C177.46 326.617 177.975 327.103 178.918 327.875C177.717 328.389 176.803 329.018 175.83 329.133C171.828 329.619 168.111 328.418 164.537 326.76C162.907 326.016 161.421 324.987 159.591 323.958C159.734 325.788 159.791 327.503 159.963 329.19C161.221 342.027 163.393 354.721 166.796 367.187C168.139 372.162 169.826 377.08 171.685 381.911C174.229 388.573 177.86 390.26 185.952 390.146C189.411 390.088 192.899 390.06 196.33 390.403C197.988 390.574 199.704 391.404 201.191 392.261C203.649 393.691 204.307 396.064 203.192 398.666C202.248 400.896 200.533 402.468 198.532 403.726C197.617 404.298 196.959 404.212 196.273 403.069C194.5 400.238 191.555 399.237 188.468 398.637C177.975 396.636 167.368 396.464 156.789 397.35C152.157 397.722 147.525 398.38 142.98 399.237C140.921 399.609 138.977 400.696 137.09 401.639C134.917 402.726 133.373 404.412 133.316 407.071C130.857 407.1 128.827 406.357 127.884 404.069C126.139 399.752 129.284 397.694 132.344 395.692C132.001 395.406 131.858 395.178 131.715 395.178C128.57 395.092 125.51 395.378 122.937 397.436C122.194 398.037 121.508 398.894 121.136 399.752C120.707 400.781 120.193 400.753 119.392 400.381C117.333 399.438 116.59 395.978 118.02 393.719C120.107 390.431 123.223 389.316 126.969 389.602C127.769 389.66 128.57 389.602 129.342 389.602C129.427 389.459 129.513 389.374 129.513 389.316C128.598 385.314 131.114 383.684 134.459 383.541C137.204 383.398 140.063 383.827 142.751 384.485C146.439 385.371 149.984 386.743 153.644 387.801C154.873 388.173 156.16 388.316 157.418 388.43C159.019 388.544 160.248 387.229 160.02 385.657C159.905 384.885 159.677 384.056 159.305 383.37C153.815 373.105 150.013 362.184 146.868 351.005C144.266 341.741 142.379 332.335 141.093 322.814C141.035 322.414 140.892 322.042 140.978 322.042C139.234 323.557 137.547 325.13 135.717 326.531C133.916 327.875 131.972 329.018 129.799 330.448C129.799 329.704 129.713 329.39 129.799 329.161C133.144 320.441 133.03 311.578 130.886 302.657C130.285 300.113 129.456 297.625 128.598 295.167C128.427 294.681 127.712 294.137 127.197 294.08C110.472 291.936 94.3464 287.647 78.7358 281.243C68.1858 276.84 58.3505 271.379 49.716 263.888C37.3362 253.195 29.9026 239.815 28.1299 223.518C26.729 210.623 29.0162 198.329 34.5915 186.521C40.9386 172.998 50.5452 162.19 61.81 152.698C70.616 145.265 79.6793 138.146 88.5139 130.798C92.8883 127.138 97.1769 123.364 100.551 118.675C102.552 115.902 104.153 112.928 104.496 109.469C105.24 101.921 100.122 96.0025 92.488 95.345C88.2852 94.9733 84.2824 96.0311 80.2225 96.8317C77.2777 97.4035 74.3328 97.8895 71.3593 98.3184C70.4158 98.4614 69.9012 98.8616 69.3866 99.6622C67.6139 102.578 65.6983 105.466 63.8113 108.411ZM110.329 261.887C110.5 261.658 110.672 261.401 110.843 261.172C110.386 260.943 109.9 260.743 109.471 260.457C108.413 259.743 107.355 258.999 106.297 258.284C98.8352 253.224 92.2021 247.277 86.6841 240.129C82.9101 235.24 80.1082 229.808 77.8495 224.061C73.761 213.625 71.8168 202.847 73.2178 191.668C74.6473 180.374 78.7644 169.996 84.7971 160.361C85.1973 159.703 85.3403 158.845 85.5976 158.102C84.8257 158.416 83.9393 158.588 83.3103 159.074C77.4206 163.934 72.7031 169.767 68.8433 176.372C61.8386 188.265 59.5227 200.931 62.1531 214.512C64.955 228.922 72.6173 240.186 83.9965 249.193C91.373 255.025 99.7215 258.885 108.556 261.858C109.099 262.058 109.728 261.887 110.329 261.887ZM73.5037 92.8004C74.1327 92.7146 74.8474 92.6574 75.505 92.5145C78.8216 91.8569 82.1667 91.285 85.0258 89.3123C85.9407 88.6833 86.9128 87.7112 86.3982 86.5961C86.0265 85.7956 84.94 84.9665 84.0823 84.8521C81.1374 84.4232 78.164 84.2803 75.3335 84.023C74.7045 87.1394 74.1327 89.9127 73.5037 92.8004ZM109.185 79.477C108.67 79.1053 108.47 78.848 108.242 78.8194C103.753 77.9045 99.2355 76.9896 94.7467 76.1033C93.9176 75.9317 93.5459 76.4178 93.4029 77.1897C92.8025 80.1918 94.7181 82.2789 97.9775 81.7643C101.609 81.1925 105.182 80.3062 109.185 79.477Z" fill="#E51B24"/>
        <path d="M91.8018 403.64C92.4308 401.525 91.3444 400.524 89.8577 399.695C86.97 398.037 83.7964 397.465 80.5656 397.179C69.5581 396.15 58.522 396.378 47.5145 397.236C44.3981 397.465 41.3103 398.151 38.2797 398.952C36.6214 399.38 35.0775 400.353 33.648 401.325C32.1327 402.354 31.3893 403.869 31.9611 405.899C29.7596 406.271 27.9012 405.785 26.3859 404.241C24.8992 402.726 24.842 400.982 25.6711 399.095C26.6146 396.922 28.2729 395.521 30.2742 394.406C30.8461 394.091 31.3607 393.719 31.9611 393.348C28.7303 391.061 20.7821 394.177 17.4941 398.866C15.6643 398.208 14.6922 396.864 14.4921 394.977C14.2633 392.862 14.9781 391.118 16.7508 389.945C18.8951 388.544 21.2967 388.087 23.8127 388.03C25.2708 388.001 26.7576 388.03 27.9012 388.03C28.3015 386.715 28.3587 385.228 29.102 384.342C30.5887 382.598 32.876 382.255 35.0775 382.026C38.3083 381.711 41.2246 382.855 44.198 383.884C46.3995 384.656 48.601 385.371 50.8883 385.828C54.3764 386.515 57.4642 385.657 59.5227 382.569C61.5813 379.481 63.4683 376.308 65.4696 373.163C75.3621 357.638 83.7106 341.37 90.0292 324.072C90.9727 321.527 91.6875 318.926 92.488 316.324C92.5452 316.152 92.5166 315.952 92.5738 315.466C87.456 319.498 82.567 323.557 75.648 323.7C80.7372 312.035 83.3961 299.941 84.2538 287.218C93.6316 291.65 103.067 295.51 113.331 296.768C114.16 308.376 116.104 319.44 122.623 329.19C122.566 329.333 122.537 329.476 122.48 329.619C121.279 329.39 120.021 329.304 118.906 328.875C115.504 327.532 112.559 325.473 109.843 323.043C109.557 322.785 109.299 322.557 109.042 322.328C108.442 325.416 107.956 328.504 107.184 331.506C105.583 337.767 102.238 343.199 98.4921 348.374C90.1721 359.954 81.8236 371.533 73.5037 383.112C73.0176 383.798 72.5602 384.57 72.2743 385.342C71.731 386.972 72.36 388.087 74.0469 388.402C75.0762 388.602 76.134 388.602 77.1633 388.602C82.1095 388.602 87.0557 388.001 91.9162 389.345C92.5452 389.517 93.2028 389.717 93.8032 389.974C96.891 391.232 98.3206 393.176 98.2062 395.921C98.0632 399.266 95.8617 402.525 93.117 403.383C92.8311 403.526 92.4308 403.526 91.8018 403.64Z" fill="#E51B24"/>
        <path d="M105.668 458.649C113.702 458.992 121.479 458.363 127.655 452.045C128.741 452.445 129.084 453.246 129.084 454.447C129.027 460.651 129.027 466.826 129.084 473.031C129.084 474.117 128.627 474.489 127.798 474.918C126.854 475.432 126.711 474.546 126.225 474.26C124.453 473.174 122.766 471.83 120.879 471.115C116.104 469.342 111.129 468.656 105.84 468.885C105.84 469.485 105.84 470.029 105.84 470.572C105.84 479.235 105.926 487.898 105.811 496.561C105.726 501.135 107.756 504.566 110.786 507.654C111.329 508.197 111.844 508.569 111.472 509.541C111.101 510.485 110.529 510.542 109.728 510.542C101.637 510.513 93.5458 510.542 85.4546 510.513C84.9686 510.513 84.311 510.199 84.0251 509.798C83.539 509.169 83.7678 508.598 84.3682 507.969C88.1422 504.166 89.7147 499.42 90.2579 494.216C90.4866 492.101 90.5152 489.928 90.5152 487.812C90.5438 471.43 90.5724 455.047 90.4866 438.664C90.458 434.09 89.5717 429.658 86.8842 425.827C86.055 424.655 84.9114 423.654 83.8249 422.453C84.1108 421.739 84.4539 421.052 85.7119 421.052C101.18 421.081 116.647 421.081 132.115 421.081C132.401 421.081 132.687 421.11 132.944 421.138C133.373 425.198 133.83 429.201 134.259 433.203C134.374 434.29 134.431 435.405 134.631 436.463C134.802 437.435 134.316 437.95 133.544 438.121C133.144 438.207 132.515 437.921 132.172 437.606C129.284 435.005 125.711 433.832 122.08 432.86C117.019 431.545 111.844 431.316 106.669 431.116C106.011 431.088 105.583 431.174 105.583 432.003C105.583 440.751 105.525 449.529 105.497 458.278C105.468 458.363 105.554 458.449 105.668 458.649Z" fill="#E51B24"/>
        <path d="M22.8978 499.477C34.6486 500.106 44.8842 496.761 53.7188 489.156C54.9196 489.785 55.1483 490.528 54.6623 491.872C52.5465 497.562 50.5738 503.308 48.601 509.084C48.2579 510.113 47.7719 510.456 46.6854 510.456C31.7038 510.427 16.6936 510.427 1.71194 510.427C1.08294 510.427 0.425356 510.57 0.110857 509.684C-0.203643 508.826 0.196629 508.426 0.739855 507.854C4.31372 504.166 6.08635 499.563 6.82972 494.588C7.2014 492.158 7.20139 489.671 7.20139 487.212C7.22998 470.543 7.22998 453.875 7.20139 437.206C7.20139 432.003 5.6289 427.285 2.31235 423.225C2.05504 422.911 1.82631 422.196 1.99785 421.91C2.25517 421.481 2.88417 420.995 3.34162 420.995C11.7759 420.938 20.1817 420.938 28.616 421.024C29.2736 421.024 29.9026 421.91 30.7889 422.568C28.0727 424.369 26.1857 426.342 25.0707 428.943C23.7841 431.888 22.9264 434.919 22.9264 438.178C22.9264 458.049 22.9264 477.891 22.9264 497.762C22.8978 498.305 22.8978 498.848 22.8978 499.477Z" fill="#E51B24"/>
        <path d="M149.384 237.642C150.041 237.842 150.728 238.014 151.385 238.271C159.219 241.301 167.024 244.418 174.858 247.42C183.15 250.594 191.527 253.596 198.989 258.542C214.485 268.806 223.749 283.016 226.007 301.628C227.809 316.553 224.235 330.305 217.201 343.314C215.572 346.316 213.742 349.203 211.998 352.148C211.912 352.263 211.884 352.434 211.769 352.491C211.054 352.92 210.34 353.349 209.625 353.778C209.653 353.035 209.511 352.234 209.711 351.548C213.942 337.453 213.628 323.415 209.339 309.405C203.249 289.506 191.641 273.352 175.83 260.114C168.997 254.425 161.849 249.107 154.873 243.589C153.129 242.216 151.442 240.701 149.784 239.214C149.412 238.9 149.298 238.328 149.041 237.871C149.127 237.842 149.241 237.756 149.384 237.642Z" fill="#E51B24"/>
        <path d="M187.324 154.957C187.496 154.614 187.638 154.242 187.839 153.899C190.269 149.896 190.783 145.722 188.782 141.405C188.296 140.347 188.41 139.804 189.497 139.175C209.225 127.452 227.751 114.129 244.592 98.5185C254.312 89.5124 263.29 79.8201 271.353 69.2986C271.553 69.0413 271.724 68.6696 272.01 68.5553C272.496 68.3265 273.125 68.012 273.526 68.1836C273.897 68.3265 274.326 69.0985 274.24 69.4988C273.697 71.9004 273.325 74.3878 272.353 76.6179C267.579 87.7969 260.745 97.6322 252.454 106.495C236.929 123.107 218.945 136.573 199.589 148.324C196.016 150.468 192.356 152.527 188.754 154.642C188.382 154.871 187.953 155.043 187.581 155.214C187.496 155.128 187.41 155.043 187.324 154.957Z" fill="#E51B24"/>
        <path d="M235.671 52.0012C235.471 56.2041 233.727 61.4362 231.097 66.411C224.349 79.134 215.6 90.3416 205.336 100.377C195.844 109.64 185.408 117.703 174.544 125.308C165.366 131.741 156.532 138.689 147.525 145.379C147.068 145.722 146.439 145.979 145.867 146.037C144.838 146.151 144.209 145.322 144.666 144.378C145.095 143.463 145.696 142.549 146.439 141.834C152.843 135.887 159.219 129.883 165.795 124.107C175.259 115.787 185.122 107.896 194.386 99.3763C206.766 87.9972 217.059 74.9025 224.063 59.4634C226.665 53.7739 228.438 47.7984 229.238 41.5941C229.438 40.0216 229.095 38.3634 229.152 36.7623C229.181 36.1905 229.61 35.6472 229.867 35.104C230.353 35.3899 231.011 35.5615 231.354 35.9617C234.642 40.279 235.986 45.168 235.671 52.0012Z" fill="#E51B24"/>
        <path d="M184.665 175.085C188.41 170.653 189.84 165.707 188.325 160.018C191.67 158.273 195.015 156.587 198.303 154.814C217.859 144.264 235.557 131.227 251.082 115.301C251.968 114.386 252.797 113.386 253.769 112.557C254.169 112.214 254.913 112.042 255.399 112.156C255.685 112.214 255.942 113.071 255.885 113.557C255.542 117.017 254.284 120.19 252.626 123.192C247.765 131.913 241.132 139.146 233.813 145.779C220.146 158.131 204.364 167.079 187.667 174.513C186.838 174.885 185.952 175.171 185.065 175.485C184.951 175.342 184.808 175.228 184.665 175.085Z" fill="#E51B24"/>
        <path d="M178.89 195.07C179.29 194.641 179.69 194.212 180.119 193.812C183.922 190.295 185.78 185.892 185.751 180.746C185.751 179.631 186.037 179.145 187.152 178.745C203.335 172.998 218.431 165.25 232.069 154.7C235.042 152.412 237.844 149.896 240.76 147.552C241.246 147.18 241.99 147.152 242.619 146.98C242.705 147.638 242.933 148.324 242.819 148.953C241.933 153.041 239.588 156.415 237.158 159.703C231.383 167.48 224.12 173.627 216.229 179.145C205.822 186.436 194.529 191.811 182.178 194.898C181.177 195.156 180.176 195.299 179.176 195.499C179.061 195.384 178.975 195.213 178.89 195.07Z" fill="#E51B24"/>
        <path d="M167.225 216.856C170.027 214.455 172.886 212.31 175.344 209.823C177.918 207.193 178.804 203.79 178.461 200.417C184.236 198.815 189.869 197.472 195.358 195.699C205.108 192.554 214.228 187.979 222.862 182.461C224.778 181.232 226.551 179.774 228.438 178.487C228.895 178.173 229.61 178.287 230.21 178.201C230.239 178.859 230.525 179.717 230.239 180.146C228.581 182.662 226.951 185.292 224.95 187.522C215.4 198.129 203.85 205.82 190.612 211.138C184.093 213.74 177.432 215.684 170.484 216.685C169.398 216.828 168.311 216.799 167.225 216.856Z" fill="#E51B24"/>
        <path d="M279.73 41.3654C279.415 48.027 277.557 54.0025 273.754 59.4634C264.491 72.7296 253.369 84.2803 241.389 95.0591C237.101 98.8902 232.669 102.578 228.323 106.324C228.152 106.467 227.98 106.724 227.78 106.753C227.123 106.839 226.465 106.839 225.807 106.867C225.95 106.267 225.865 105.495 226.236 105.094C229.295 101.692 232.355 98.3184 235.557 95.0591C248.909 81.2782 259.831 65.782 268.465 48.6274C271.267 43.0522 273.783 37.3912 275.927 31.5301C276.099 31.044 276.585 30.701 276.928 30.2721C277.328 30.701 277.986 31.0726 278.072 31.5587C278.701 34.818 279.187 38.106 279.73 41.3654Z" fill="#E51B24"/>
        <path d="M191.127 222.174C187.181 221.774 182.521 221.288 177.832 220.83C177.689 220.802 177.546 220.83 177.403 220.773C176.917 220.544 176.431 220.259 175.945 220.001C176.431 219.801 176.888 219.544 177.403 219.429C178.833 219.143 180.319 218.943 181.749 218.657C191.956 216.599 201.362 212.539 210.454 207.564C211.026 207.25 211.798 207.221 212.455 207.078C212.312 207.821 212.37 208.765 211.941 209.308C209.253 212.996 206.508 216.627 203.678 220.173C203.192 220.773 202.191 221.231 201.391 221.316C198.246 221.688 195.072 221.86 191.127 222.174Z" fill="#E51B24"/>
        <path d="M72.1313 504.223C72.1313 507.826 69.358 510.685 65.7842 510.713C62.1245 510.742 59.2654 507.854 59.294 504.223C59.3226 500.649 62.2103 497.762 65.727 497.79C69.2723 497.762 72.1028 500.621 72.1313 504.223Z" fill="#E51B24"/>
        <path d="M123.909 504.166C123.938 500.592 126.826 497.733 130.371 497.762C133.916 497.819 136.747 500.678 136.747 504.28C136.747 507.911 133.802 510.799 130.171 510.713C126.597 510.628 123.909 507.826 123.909 504.166Z" fill="#E51B24"/>
        <path d="M252.568 504.309C252.54 507.912 249.709 510.742 246.135 510.685C242.533 510.628 239.702 507.797 239.731 504.223C239.731 500.678 242.619 497.762 246.135 497.733C249.709 497.733 252.597 500.678 252.568 504.309Z" fill="#E51B24"/>
    </g>
    <defs>
        <clipPath id="clip0_11_221">
            <rect width="279.73" height="512" fill="white"/>
        </clipPath>
    </defs>
</svg>
