<svg width="449" height="512" viewBox="0 0 449 512" fill="none" xmlns="http://www.w3.org/2000/svg">
    <g clip-path="url(#clip0_3_3959)">
        <path fill-rule="evenodd" clip-rule="evenodd" d="M385.465 366.02C347.284 411.4 290.082 440.262 226.103 440.262C162.755 440.262 106.108 412.006 67.8956 367.387L22.6591 421.788C73.4651 476.344 145.951 510.514 226.396 510.514C307.32 510.514 380.13 475.976 430.934 420.837L385.465 366.02Z" fill="#211E1F"/>
        <path d="M385.465 366.02C347.284 411.4 290.082 440.262 226.103 440.262C162.755 440.262 106.108 412.006 67.8956 367.387L22.6591 421.788C73.4651 476.344 145.951 510.514 226.396 510.514C307.32 510.514 380.13 475.976 430.934 420.837L385.465 366.02Z" stroke="white" stroke-width="2.97411"/>
        <path fill-rule="evenodd" clip-rule="evenodd" d="M349.666 157.643V399.236C349.666 406.216 345.245 412.266 339.042 414.587L226.861 458.084L114.643 414.587C108.475 412.266 104.019 406.216 104.019 399.236L104.036 157.643H349.666Z" fill="#211E1F"/>
        <path d="M349.666 157.643V399.236C349.666 406.216 345.245 412.266 339.042 414.587L226.861 458.084L114.643 414.587C108.475 412.266 104.019 406.216 104.019 399.236L104.036 157.643H349.666Z" stroke="white" stroke-width="2.97411"/>
        <path fill-rule="evenodd" clip-rule="evenodd" d="M109.859 344.143V195.252H343.768L343.812 344.143H109.859Z" fill="white"/>
        <path fill-rule="evenodd" clip-rule="evenodd" d="M343.812 330.179C341.751 333.474 336.7 335.792 330.847 335.792C324.906 335.792 319.829 333.474 317.815 330.135C315.754 333.475 310.703 335.792 304.785 335.792C298.866 335.792 293.877 333.474 291.795 330.179C289.714 333.474 284.685 335.792 278.807 335.792C272.866 335.792 267.859 333.474 265.798 330.135H265.734C263.696 333.475 258.663 335.792 252.766 335.792C246.848 335.792 241.838 333.474 239.801 330.179C237.718 333.474 232.622 335.792 226.776 335.792C220.844 335.792 215.825 333.474 213.76 330.135H213.807C211.714 333.475 206.695 335.792 200.814 335.792C194.889 335.792 189.838 333.474 187.774 330.179C185.719 333.474 180.645 335.792 174.758 335.792C168.885 335.792 163.835 333.474 161.779 330.135H161.726C159.699 333.475 154.637 335.792 148.784 335.792C142.838 335.792 137.825 333.474 135.74 330.179V330.264C133.674 333.58 128.643 335.792 122.806 335.792C116.832 335.792 111.813 333.474 109.787 330.135V329.852L109.859 395.66C109.859 402.337 114.079 408.02 119.985 410.229L226.861 451.733L333.664 410.229C339.584 408.02 343.812 402.337 343.812 395.66V329.894V330.179Z" fill="#D61F26"/>
        <path fill-rule="evenodd" clip-rule="evenodd" d="M343.812 323.307C341.751 326.579 336.7 328.921 330.847 328.921C324.906 328.921 319.829 326.556 317.815 323.307C315.754 326.556 310.703 328.921 304.785 328.921C298.866 328.921 293.877 326.579 291.795 323.307C289.714 326.579 284.685 328.921 278.807 328.921C272.866 328.921 267.859 326.556 265.798 323.307H265.734C263.696 326.556 258.663 328.921 252.766 328.921C246.848 328.921 241.838 326.579 239.801 323.307C237.718 326.579 232.622 328.921 226.776 328.921C220.844 328.921 215.825 326.556 213.76 323.307H213.807C211.714 326.556 206.695 328.921 200.814 328.921C194.889 328.921 189.838 326.579 187.774 323.307C185.719 326.579 180.645 328.921 174.758 328.921C168.885 328.921 163.835 326.556 161.779 323.307H161.726C159.699 326.556 154.637 328.921 148.784 328.921C142.838 328.921 137.825 326.579 135.74 323.307V323.413C133.674 326.706 128.643 328.921 122.806 328.921C116.832 328.921 111.813 326.556 109.787 323.307V315.153C111.813 318.446 116.832 320.81 122.806 320.81C128.643 320.81 133.674 318.49 135.74 315.192C137.825 318.49 142.838 320.81 148.784 320.81C154.637 320.81 159.699 318.446 161.726 315.153H161.779C163.835 318.446 168.885 320.81 174.758 320.81C180.645 320.81 185.719 318.49 187.774 315.192C189.838 318.49 194.889 320.81 200.814 320.81C206.695 320.81 211.714 318.446 213.807 315.153H213.76C215.825 318.446 220.844 320.81 226.776 320.81C232.623 320.81 237.718 318.49 239.801 315.192C241.837 318.49 246.847 320.81 252.766 320.81C258.664 320.81 263.696 318.446 265.734 315.153H265.798C267.859 318.446 272.866 320.81 278.807 320.81C284.685 320.81 289.714 318.49 291.795 315.192C293.877 318.49 298.866 320.81 304.785 320.81C310.703 320.81 315.754 318.446 317.815 315.153C319.83 318.446 324.906 320.81 330.847 320.81C336.7 320.81 341.751 318.49 343.812 315.192V323.307Z" fill="#2EABE2"/>
        <path fill-rule="evenodd" clip-rule="evenodd" d="M343.812 308.625C341.751 311.899 336.7 314.199 330.847 314.199C324.906 314.199 319.829 311.876 317.815 308.625C315.754 311.876 310.703 314.199 304.785 314.199C298.866 314.199 293.877 311.899 291.795 308.625C289.714 311.899 284.685 314.199 278.807 314.199C272.866 314.199 267.859 311.876 265.798 308.625H265.734C263.696 311.876 258.663 314.199 252.766 314.199C246.848 314.199 241.838 311.899 239.801 308.625C237.718 311.899 232.622 314.199 226.776 314.199C220.844 314.199 215.825 311.876 213.76 308.625H213.807C211.714 311.876 206.695 314.199 200.814 314.199C194.889 314.199 189.838 311.899 187.774 308.625C185.719 311.899 180.645 314.199 174.758 314.199C168.885 314.199 163.835 311.876 161.779 308.625H161.726C159.699 311.876 154.637 314.199 148.784 314.199C142.838 314.199 137.825 311.899 135.74 308.625V308.709C133.674 312.008 128.643 314.199 122.806 314.199C116.832 314.199 111.813 311.876 109.787 308.625V300.474C111.813 303.748 116.832 306.113 122.806 306.113C128.643 306.113 133.674 303.811 135.74 300.493C137.825 303.811 142.838 306.113 148.784 306.113C154.637 306.113 159.699 303.748 161.726 300.474H161.779C163.835 303.748 168.885 306.113 174.758 306.113C180.645 306.113 185.719 303.811 187.774 300.493C189.838 303.811 194.889 306.113 200.814 306.113C206.695 306.113 211.714 303.748 213.807 300.474H213.76C215.825 303.748 220.844 306.113 226.776 306.113C232.623 306.113 237.718 303.811 239.801 300.493C241.837 303.811 246.847 306.113 252.766 306.113C258.664 306.113 263.696 303.748 265.734 300.474H265.798C267.859 303.748 272.866 306.113 278.807 306.113C284.685 306.113 289.714 303.811 291.795 300.493C293.877 303.811 298.866 306.113 304.785 306.113C310.703 306.113 315.754 303.748 317.815 300.474C319.83 303.748 324.906 306.113 330.847 306.113C336.7 306.113 341.751 303.811 343.812 300.493V308.625Z" fill="#2EABE2"/>
        <path fill-rule="evenodd" clip-rule="evenodd" d="M243.987 405.137C243.987 405.137 255.458 423.066 249.429 418.017C245.027 414.221 238.999 405.48 234.641 398.283L211.1 407.433C211.1 407.433 197.59 423.87 200.583 416.607C202.74 411.358 209.406 402.839 214.904 396.395L198.782 376.927C198.782 376.927 178.954 369.209 186.814 369.793C191.957 370.183 202.687 374.042 210.419 377.168L223.844 355.786C223.844 355.786 225.107 334.517 226.981 342.169C228.28 347.418 227.869 358.779 227.243 367.189L251.859 373.176C251.859 373.176 272.454 367.776 265.736 371.919C261.028 374.867 250.75 377.947 242.556 379.919L243.987 405.137Z" fill="#211E1F"/>
        <path d="M243.987 405.137C243.987 405.137 255.458 423.066 249.429 418.017C245.027 414.221 238.999 405.48 234.641 398.283L211.1 407.433C211.1 407.433 197.59 423.87 200.583 416.607C202.74 411.358 209.406 402.839 214.904 396.395L198.782 376.927C198.782 376.927 178.954 369.209 186.814 369.793C191.957 370.183 202.687 374.042 210.419 377.168L223.844 355.786C223.844 355.786 225.107 334.517 226.981 342.169C228.28 347.418 227.869 358.779 227.243 367.189L251.859 373.176C251.859 373.176 272.454 367.776 265.736 371.919C261.028 374.867 250.75 377.947 242.556 379.919L243.987 405.137Z" stroke="#211E1F" stroke-width="1.81905"/>
        <path fill-rule="evenodd" clip-rule="evenodd" d="M225.231 400.386C225.376 400.732 225.637 400.971 225.931 400.971C226.208 400.971 226.42 400.734 226.604 400.386C226.862 399.779 227.101 398.352 227.013 395.379C227.013 395.379 227.163 385.337 234.664 396.116C255.672 426.406 225.751 426.578 225.751 426.578H226.037C226.037 426.578 196.111 426.406 217.148 396.116C224.65 385.337 224.738 395.379 224.738 395.379C224.716 398.35 224.899 399.778 225.232 400.431L225.231 400.386Z" fill="white"/>
        <path d="M225.231 400.386L225.931 400.971L226.604 400.386C226.862 399.779 227.013 398.352 227.013 395.379C227.013 395.379 227.163 385.337 234.664 396.116C255.672 426.406 225.751 426.578 225.751 426.578H226.037C226.037 426.578 196.111 426.406 217.148 396.116C224.65 385.337 224.738 395.379 224.738 395.379C224.738 398.35 224.899 399.778 225.232 400.431L225.231 400.386Z" stroke="#211E1F" stroke-width="1.81905"/>
        <path fill-rule="evenodd" clip-rule="evenodd" d="M209.84 388.248C209.566 388.503 209.44 388.788 209.562 389.025C209.629 389.308 209.895 389.525 210.283 389.525H210.264C210.963 389.569 212.338 389.436 215.175 388.442C215.175 388.442 224.784 385.493 216.854 395.88C194.51 425.237 185.165 396.899 185.165 396.899V397.093C185.165 397.093 176.145 368.579 211.429 379.226C224.031 382.977 214.459 386.252 214.459 386.252C211.566 387.094 210.328 387.747 209.84 388.248Z" fill="white"/>
        <path d="M209.84 388.248C209.566 388.503 209.562 389.025 209.562 389.025L210.283 389.525H210.264C210.264 389.525 212.338 389.436 215.175 388.442C215.175 388.442 224.784 385.493 216.854 395.88C194.51 425.237 185.165 396.899 185.165 396.899V397.093C185.165 397.093 176.145 368.579 211.429 379.226C224.031 382.977 214.459 386.252 214.459 386.252C211.566 387.094 210.328 387.747 209.84 388.248Z" stroke="#211E1F" stroke-width="1.81905"/>
        <path fill-rule="evenodd" clip-rule="evenodd" d="M216.559 369.769C216.26 369.576 215.923 369.576 215.697 369.769C215.457 369.919 215.392 370.226 215.457 370.575V370.551C215.603 371.269 216.185 372.568 218.082 374.908C218.082 374.908 223.828 383.106 211.431 378.789C176.648 366.649 200.717 348.952 200.717 348.952L200.539 349.04C200.539 349.04 224.785 331.628 225.638 368.513C225.931 381.652 219.869 373.541 219.869 373.541C218.199 371.114 217.17 370.118 216.559 369.769Z" fill="white"/>
        <path d="M216.559 369.769H215.697L215.457 370.575V370.551C215.457 370.551 216.185 372.568 218.082 374.908C218.082 374.908 223.828 383.106 211.431 378.789C176.648 366.649 200.717 348.952 200.717 348.952L200.539 349.04C200.539 349.04 224.785 331.628 225.638 368.513C225.931 381.652 219.869 373.541 219.869 373.541C218.199 371.114 217.17 370.118 216.559 369.769Z" stroke="#211E1F" stroke-width="1.81905"/>
        <path fill-rule="evenodd" clip-rule="evenodd" d="M236.29 370.509C236.353 370.182 236.29 369.837 236.073 369.663C235.856 369.552 235.51 369.576 235.182 369.769C234.597 370.055 233.556 371.008 231.843 373.524C231.843 373.524 225.831 381.565 226.103 368.472C226.95 331.61 251.206 349.021 251.206 349.021L251.033 348.89C251.033 348.89 275.123 366.584 240.255 378.751C227.913 383.063 233.708 374.867 233.708 374.867C235.531 372.482 236.18 371.225 236.29 370.509Z" fill="white"/>
        <path d="M236.29 370.509L236.073 369.663L235.182 369.769C234.597 370.055 233.556 371.008 231.843 373.524C231.843 373.524 225.831 381.565 226.103 368.472C226.95 331.61 251.206 349.021 251.206 349.021L251.033 348.89C251.033 348.89 275.123 366.584 240.255 378.751C227.913 383.063 233.708 374.867 233.708 374.867C235.531 372.482 236.29 370.509 236.29 370.509Z" stroke="#211E1F" stroke-width="1.81905"/>
        <path fill-rule="evenodd" clip-rule="evenodd" d="M241.664 389.524C242.01 389.5 242.317 389.307 242.381 389.024C242.511 388.787 242.338 388.501 242.077 388.246C241.557 387.746 240.318 387.053 237.438 386.249C237.438 386.249 227.912 382.973 240.45 379.223C275.818 368.576 266.751 397.09 266.751 397.09L266.795 396.896C266.795 396.896 257.407 425.235 235.097 395.877C227.1 385.491 236.721 388.439 236.721 388.439C239.562 389.434 240.995 389.568 241.664 389.524Z" fill="white"/>
        <path d="M241.664 389.524L242.381 389.024C242.381 389.024 242.338 388.501 242.077 388.246C241.557 387.746 240.318 387.053 237.438 386.249C237.438 386.249 227.912 382.973 240.45 379.223C275.818 368.576 266.751 397.09 266.751 397.09L266.795 396.896C266.795 396.896 257.407 425.235 235.097 395.877C227.1 385.491 236.721 388.439 236.721 388.439C239.562 389.434 241.664 389.524 241.664 389.524Z" stroke="#211E1F" stroke-width="1.81905"/>
        <path fill-rule="evenodd" clip-rule="evenodd" d="M205.401 355.546C205.401 355.546 203.156 357.105 201.204 357.734C199.259 358.298 198.419 359.773 198.173 360.122C198.173 360.122 197.062 362.68 196.352 361.638C195.593 360.616 197.106 358.689 197.106 358.689C197.33 358.298 198.23 356.888 200.115 356.219C202.057 355.657 204.301 354.118 204.301 354.118C204.301 354.113 206.5 352.403 207.667 350.774C208.864 349.108 210.475 348.738 210.928 348.671C210.928 348.671 213.207 347.848 214.003 348.847C214.743 349.911 211.997 350.104 211.997 350.104C211.533 350.278 209.895 350.624 208.723 352.231C207.587 353.879 205.401 355.546 205.401 355.546Z" fill="#211E1F"/>
        <path fill-rule="evenodd" clip-rule="evenodd" d="M246.306 355.524C246.306 355.524 244.161 353.859 243.03 352.186C241.838 350.561 240.191 350.191 239.801 350.037C239.801 350.037 237.002 349.843 237.739 348.803C238.519 347.785 240.819 348.629 240.819 348.629C241.271 348.694 242.921 349.064 244.048 350.732C245.241 352.356 247.409 354.119 247.409 354.119C247.409 354.114 249.709 355.613 251.616 356.196C253.502 356.828 254.371 358.236 254.588 358.606C254.588 358.606 256.105 360.578 255.391 361.618C254.655 362.66 253.591 360.1 253.591 360.1C253.307 359.711 252.463 358.279 250.513 357.697C248.626 357.062 246.306 355.524 246.306 355.524Z" fill="#211E1F"/>
        <path fill-rule="evenodd" clip-rule="evenodd" d="M259.033 394.445C259.033 394.445 259.99 391.887 261.156 390.241C262.439 388.682 262.199 386.944 262.177 386.532C262.177 386.532 261.573 383.822 262.765 384.233C263.955 384.646 263.914 387.055 263.914 387.055C263.914 387.507 264.109 389.2 262.917 390.824C261.657 392.431 260.727 395.029 260.727 395.029C260.727 395.029 260.01 397.679 260.053 399.649C260.053 401.687 258.905 402.925 258.665 403.314C258.665 403.314 257.233 405.33 256.065 404.963C254.806 404.571 256.952 402.748 256.952 402.748C257.191 402.381 258.341 401.083 258.274 399.132C258.274 397.113 259.033 394.445 259.033 394.445Z" fill="#211E1F"/>
        <path fill-rule="evenodd" clip-rule="evenodd" d="M225.931 418.449C225.931 418.449 228.693 418.556 230.582 419.208C232.495 419.837 234.013 419.164 234.447 419.011C234.447 419.011 236.787 417.561 236.766 418.862C236.766 420.051 234.447 420.835 234.447 420.835C234.013 420.965 232.495 421.679 230.582 421.008C228.694 420.358 225.931 420.228 225.931 420.228C225.931 420.228 223.124 420.359 221.245 421.008C219.338 421.679 217.837 420.965 217.358 420.835C217.358 420.835 215.002 420.051 215.002 418.862C214.992 417.561 217.358 419.011 217.358 419.011C217.837 419.164 219.338 419.837 221.245 419.208C223.124 418.556 225.931 418.449 225.931 418.449Z" fill="#211E1F"/>
        <path fill-rule="evenodd" clip-rule="evenodd" d="M192.88 394.445C192.88 394.445 193.655 397.113 193.62 399.132C193.62 401.165 194.712 402.381 195.007 402.748C195.007 402.748 197.107 404.571 195.909 404.963C194.712 405.33 193.274 403.314 193.274 403.314C192.994 402.924 191.899 401.687 191.899 399.649C191.908 397.678 191.194 395.029 191.194 395.029C191.194 395.029 190.249 392.431 189.014 390.824C187.84 389.2 188.006 387.507 188.006 387.055C188.006 387.055 188.006 384.646 189.18 384.233C190.338 383.822 189.712 386.532 189.712 386.532C189.67 386.944 189.513 388.682 190.759 390.241C191.957 391.886 192.88 394.445 192.88 394.445Z" fill="#211E1F"/>
        <path fill-rule="evenodd" clip-rule="evenodd" d="M225.752 376.883C222.064 376.883 219.045 379.917 219.045 383.627C219.045 387.422 222.066 390.371 225.752 390.371C229.517 390.371 232.538 387.422 232.538 383.627C232.538 379.917 229.517 376.883 225.752 376.883Z" fill="#FFC213"/>
        <path d="M225.752 376.883C222.064 376.883 219.045 379.917 219.045 383.627C219.045 387.422 222.066 390.371 225.752 390.371C229.517 390.371 232.538 387.422 232.538 383.627C232.538 379.917 229.517 376.883 225.752 376.883Z" stroke="#FFCB04" stroke-width="0.720805"/>
        <path fill-rule="evenodd" clip-rule="evenodd" d="M238.521 254.663L239.412 272.87L254.805 262.873L259.639 270.769L241.491 281.259V285.058C241.491 285.058 262.609 296.916 236.871 296.459L236.875 296.593C227.868 304.115 219.337 296.676 219.337 296.676C193.601 297.131 214.692 285.315 214.692 285.315V281.499L198.643 269.031L202.448 260.789L216.801 273.066L217.635 254.889L238.521 254.663Z" fill="#211E1F"/>
        <path fill-rule="evenodd" clip-rule="evenodd" d="M257.69 270.269C272.608 287.336 283.555 269.368 283.555 269.368C302.4 264.792 291.213 251.454 291.213 251.454C310.856 238.574 287.785 228.469 287.785 228.469C287.634 211.354 273.061 212.63 273.061 212.63C257.838 199.328 243.291 214.094 243.291 214.094C220.477 195.102 203.156 217.018 203.156 217.018C203.156 217.018 188.578 206.913 182.033 222.748C182.033 222.748 158.822 222.103 167.488 245.534C167.488 245.534 149.551 263.488 172.964 272.33C172.964 272.33 185.412 295.379 202.523 273.435C202.523 273.435 213.04 274.064 211.385 259.242C211.385 259.242 224.714 264.792 237.328 258.638C237.328 258.635 241.361 267.71 250.035 262.632C250.035 262.632 248.691 268.469 257.08 269.663L257.69 270.269Z" fill="#0CB14B"/>
        <path d="M257.69 270.269C272.608 287.336 283.555 269.368 283.555 269.368C302.4 264.792 291.213 251.454 291.213 251.454C310.856 238.574 287.785 228.469 287.785 228.469C287.785 211.354 273.061 212.63 273.061 212.63C257.838 199.328 243.291 214.094 243.291 214.094C220.477 195.102 203.156 217.018 203.156 217.018C203.156 217.018 188.578 206.913 182.033 222.748C182.033 222.748 158.822 222.103 167.488 245.534C167.488 245.534 149.551 263.488 172.964 272.33C172.964 272.33 185.412 295.379 202.523 273.435C202.523 273.435 213.04 274.064 211.385 259.242C211.385 259.242 224.714 264.792 237.328 258.638C237.328 258.638 241.361 267.71 250.035 262.632C250.035 262.632 248.691 268.469 257.08 269.663L257.69 270.269Z" stroke="#211E1F" stroke-width="7.44916"/>
        <path fill-rule="evenodd" clip-rule="evenodd" d="M58.0518 417.235L59.1626 418.166C55.339 425.106 54.7974 430.005 57.4635 432.285C59.3823 433.974 61.9196 433.278 64.2411 430.658C65.2333 429.529 65.8872 428.229 65.8872 427.23C65.8872 425.78 64.8091 424.153 63.6124 421.703C61.3124 417.018 61.4096 413.246 65.4971 408.52C69.5947 403.838 74.9471 402.276 78.3466 405.204C79.8186 406.525 80.5899 408.37 80.7312 410.753L83.3746 409.951L84.2974 410.753L76.1337 420.681L75.1592 419.728C78.3555 413.117 79.0384 409.148 76.6311 407.109C74.7994 405.46 72.4047 406.028 70.284 408.476C67.6116 411.534 69.1504 413.313 71.1777 417.104C72.2406 419.209 73.0814 420.837 72.6471 423.331C72.2469 425.565 70.9076 428.144 68.7603 430.659C64.3105 435.711 59.2257 437.251 55.6318 434.128C53.8532 432.522 53.0288 430.635 53.1387 427.754L49.9134 428.835L48.9767 428.013L58.0518 417.235Z" fill="#FFC213"/>
        <path fill-rule="evenodd" clip-rule="evenodd" d="M88.6778 420.638C92.3979 418.884 95.4857 418.947 98.2502 420.835C101.036 422.786 102.204 425.584 101.801 429.875C101.479 433.649 99.7146 437.941 96.7556 442.212C93.7853 446.461 90.8995 449.217 87.2235 450.926C83.2964 452.77 79.917 452.793 77.3115 450.926C74.6164 449.087 73.4878 446.178 73.8691 441.779C74.215 437.615 75.7651 433.93 78.767 429.657C81.7613 425.346 85.2063 422.242 88.6778 420.638ZM78.7897 448.74C81.6856 450.734 86.0054 447.441 91.9952 438.853C98.0015 430.201 99.5934 425.086 96.6963 423.024C93.8257 421.052 89.5551 424.324 83.5387 432.955C77.5438 441.561 75.8775 446.724 78.7897 448.74Z" fill="#FFC213"/>
        <path fill-rule="evenodd" clip-rule="evenodd" d="M118.785 437.4L117.501 436.704C116.367 436.12 115.912 436.574 115.003 438.287L106.675 453.855C103.676 459.451 103.541 462.767 106.774 464.461C108.23 465.195 109.753 465.13 111.097 464.461C113.224 463.268 114.643 460.839 116.715 456.977L122.74 445.745C124.462 442.472 124.811 440.608 122.617 439.458C122.596 439.416 122.482 439.392 122.46 439.376L123.631 437.12L130.699 440.914L129.502 443.102C127.294 442.324 126.136 443.45 124.418 446.658L118.209 458.235C116.422 461.618 115.024 464.133 112.95 465.912C109.86 468.516 106.833 468.859 103.541 467.017C98.4837 464.35 97.8386 459.495 101.416 452.644L110.414 435.861C111.326 434.125 111.39 433.47 110.307 432.89L109.027 432.195L110.188 429.961L119.965 435.166L118.785 437.4Z" fill="#FFC213"/>
        <path fill-rule="evenodd" clip-rule="evenodd" d="M145.952 449.52C144.959 449.15 144.457 449.562 143.752 451.297L134.504 474.694C133.768 476.471 133.768 477.124 134.915 477.6L136.304 478.163L135.35 480.527L125.082 476.451L126.026 474.044L127.382 474.607C128.547 475.064 128.92 474.607 129.67 472.765L138.981 449.411C139.648 447.657 139.648 447.049 138.688 446.658C136.574 445.767 133.399 448.716 130.33 455.009L128.92 454.507L134.224 442.406L152.035 449.477L147.586 461.88L146.279 461.401C148.335 454.703 148.072 450.343 145.952 449.52Z" fill="#FFC213"/>
        <path fill-rule="evenodd" clip-rule="evenodd" d="M161.27 485.949C162.454 486.316 162.806 485.776 163.303 483.909L166.28 472.871L158.841 470.877L155.911 481.872C155.388 483.736 155.445 484.345 156.64 484.689L158.073 485.101L157.376 487.553L146.712 484.688L147.374 482.216L148.801 482.542C150.008 482.909 150.346 482.412 150.848 480.526L157.298 456.59C157.846 454.702 157.812 454.03 156.575 453.681L155.156 453.313L155.845 450.883L166.503 453.792L165.837 456.221L164.436 455.827C163.236 455.481 162.882 456.045 162.327 457.932L159.687 467.882L167.136 469.879L169.785 459.924C170.324 458.083 170.274 457.369 169.065 457.04L167.668 456.672L168.297 454.226L178.98 457.175L178.358 459.578L176.894 459.187C175.702 458.861 175.359 459.427 174.827 461.312L168.388 485.252C167.869 487.138 167.922 487.747 169.14 488.048L170.531 488.481L169.899 490.913L159.14 488.048L159.859 485.555L161.27 485.949Z" fill="#FFC213"/>
        <path fill-rule="evenodd" clip-rule="evenodd" d="M189.513 491.648L190.976 491.737C191.606 491.78 191.842 491.454 191.956 490.737C191.99 490.392 191.99 489.957 191.956 489.375L191.457 483.779L184.089 482.716L183.04 485.165C182.711 485.948 182.442 486.898 182.38 487.553C182.033 489.721 182.823 490.543 184.937 490.998L184.585 493.473L176.406 492.28L176.781 489.785C178.628 489.571 179.843 487.593 181.413 483.909L192.034 458.669L194.174 458.996L197.61 490.765C197.762 492.28 198.155 492.865 199.215 493.059L198.847 495.596L189.183 494.163L189.513 491.648ZM185.305 479.811L191.194 480.723L190.033 468.622L185.305 479.811Z" fill="#FFC213"/>
        <path fill-rule="evenodd" clip-rule="evenodd" d="M211.015 487.704C210.86 492.192 211.43 493.864 214.152 493.991L214.091 496.573L205.733 496.333V493.752C208.345 493.645 208.865 491.997 208.984 487.616L209.51 466.606C209.567 464.74 209.375 464.005 208.123 463.916L206.589 463.897L206.697 461.357L216.08 461.617L220.147 482.63L224.898 461.813L234.144 462.03L234.056 464.59L232.603 464.484C231.384 464.484 231.123 465.088 231.09 467.017L230.507 491.845C230.441 493.796 230.646 494.403 231.889 494.403L233.384 494.424L233.301 496.984L222.46 496.745L222.543 494.208H223.808C225.034 494.253 225.309 493.645 225.378 491.737L226.038 465.543L218.905 496.681L217.486 496.656L211.535 465.371L211.015 487.704Z" fill="#FFC213"/>
        <path fill-rule="evenodd" clip-rule="evenodd" d="M250.447 493.058L252.288 492.906L252.528 495.423L241.078 496.573L240.821 493.991L242.381 493.863C243.637 493.707 243.769 493.146 243.617 491.193L241.211 466.54C241.078 464.611 240.775 464.005 239.539 464.089L238 464.268L237.716 461.728L250.446 460.514C255.735 459.992 258.75 463.158 259.38 469.623C260.071 476.517 257.19 479.962 250.726 480.59C249.86 480.721 248.908 480.744 247.8 480.807L248.797 490.721C248.993 492.714 249.277 493.146 250.447 493.058ZM247.606 478.078C247.934 478.163 248.387 478.163 249.039 478.078C252.963 477.732 254.395 475.975 253.832 470.205C253.309 464.591 251.814 462.922 248.387 463.225C246.523 463.42 246.241 463.79 246.436 466.48L247.606 478.078Z" fill="#FFC213"/>
        <path fill-rule="evenodd" clip-rule="evenodd" d="M276.271 458.602C275.23 458.775 275.124 459.385 275.513 461.229L280.563 485.926C280.976 487.815 281.303 488.311 282.536 488.049L283.945 487.788L284.445 490.308L273.667 492.519L273.126 490.046L274.557 489.721C275.792 489.481 275.857 488.831 275.511 486.945L270.394 462.314C270.004 460.492 269.658 459.925 268.638 460.145C266.381 460.622 265.362 464.851 266.231 471.789L264.821 472.048L262.609 459.104L281.342 455.181L284.508 468.016L283.102 468.297C281.13 461.618 278.55 458.085 276.271 458.602Z" fill="#FFC213"/>
        <path fill-rule="evenodd" clip-rule="evenodd" d="M289.931 457.37C290.8 453.398 292.707 450.906 295.917 449.91C299.146 448.827 302.117 449.628 305.283 452.489C308.102 455.048 310.421 459.038 312.049 463.938C313.698 468.882 314.065 472.87 313.285 476.841C312.395 481.089 310.359 483.756 307.256 484.755C304.134 485.777 301.208 484.905 297.932 481.956C294.833 479.203 292.814 475.755 291.214 470.77C289.585 465.783 289.152 461.162 289.931 457.37ZM306.453 482.217C309.774 481.156 309.774 475.714 306.52 465.76C303.266 455.765 300.144 451.365 296.72 452.472C293.446 453.553 293.446 458.952 296.676 468.95C299.971 478.921 303.114 483.346 306.453 482.217Z" fill="#FFC213"/>
        <path fill-rule="evenodd" clip-rule="evenodd" d="M324.016 475.341C326.252 473.893 325.968 472.242 324.168 468.407L315.324 449.3L314.411 448.655C313.479 447.96 312.806 447.505 311.744 448.024L311.441 448.174L310.337 445.918L317.014 442.819L336.245 457.913L330.718 446.052C328.742 441.78 327.594 440.697 324.969 441.91L323.93 439.57L331.628 435.992L332.71 438.289C330.543 439.504 330.715 441.086 332.604 445.185L343.901 469.423L342.229 470.205L318.445 451.451L325.882 467.628C327.745 471.682 329.048 472.871 331.561 471.832L332.689 474.11L325.102 477.643L324.016 475.341Z" fill="#FFC213"/>
        <path fill-rule="evenodd" clip-rule="evenodd" d="M367.882 427.835L366.71 428.662C361.593 423.132 358.494 422.157 354.826 424.67C353.418 425.623 353.16 426.019 354.547 428.075L360.357 436.598C360.511 436.531 360.641 436.468 360.747 436.381C362.893 434.904 362.68 432.718 360.335 428.465L361.507 427.641L370.595 440.913L369.379 441.759C366.277 437.964 364.347 437.096 362.224 438.505C362.113 438.593 361.985 438.699 361.918 438.743L368.467 448.394C369.576 449.997 370.028 450.343 371.092 449.651L372.804 448.459L374.235 450.584L364.631 457.177L363.2 455.049L364.391 454.206C365.474 453.533 365.279 452.88 364.218 451.297L350.211 430.808C349.126 429.183 348.584 428.813 347.564 429.529L346.309 430.351L344.899 428.295L360.574 417.56L367.882 427.835Z" fill="#FFC213"/>
        <path fill-rule="evenodd" clip-rule="evenodd" d="M396.045 434.971C394.137 436.598 391.707 437.119 388.87 436.576C384.555 435.708 380.065 432.694 375.967 427.881C372.762 424.152 370.698 420.227 369.852 416.455C368.876 412.202 369.764 409.147 372.348 406.912C373.951 405.524 375.817 405.048 378.246 405.479L377.811 402.53L378.743 401.732L388.262 412.139L387.241 413.288C381.061 408.017 376.684 406.456 374.233 408.517C371.306 411.053 373.257 415.802 380.196 423.868C387.158 432.043 391.406 434.624 394.678 431.848C397.129 429.701 396.61 425.562 392.967 419.597L394.745 419.252C399.409 426.231 399.819 431.761 396.045 434.971Z" fill="#FFC213"/>
        <path fill-rule="evenodd" clip-rule="evenodd" d="M22.6604 140.691L28.1983 152.145L12.6373 156.395L17.4923 166.077L33.095 161.816L37.9664 171.509L22.3511 175.738L27.1632 185.374L42.8088 181.157L47.7257 190.849L31.9993 195.035L36.8896 204.668L52.5769 200.52L59.5578 213.942C62.5028 213.107 65.4239 212.11 68.1986 210.94L31.7077 138.117C29.0605 139.234 26.0586 140.113 22.6604 140.691Z" fill="white"/>
        <path fill-rule="evenodd" clip-rule="evenodd" d="M65.4769 144.719C64.3938 139.559 76.135 133.397 85.5635 125.803L73.0826 100.823C68.1544 103.523 62.6694 107.74 57.206 113.892C55.7429 115.402 54.4528 116.989 53.2094 118.566L65.4769 144.719Z" fill="white"/>
        <path fill-rule="evenodd" clip-rule="evenodd" d="M93.4507 100.303C90.4236 96.1816 82.6374 95.6312 73.0814 100.823L85.561 125.803C94.217 118.732 100.89 110.387 93.4507 100.303Z" fill="#D61F26"/>
        <path fill-rule="evenodd" clip-rule="evenodd" d="M31.7064 138.117L68.1973 210.94C78.4211 206.701 86.8549 200.706 89.699 196.275L73.9903 162.858L66.1952 146.264C65.79 145.739 65.5843 145.261 65.4757 144.719L53.2081 118.566C47.0693 126.203 41.7573 133.819 31.7064 138.117Z" fill="#D61F26"/>
        <path fill-rule="evenodd" clip-rule="evenodd" d="M22.6604 140.691C17.7447 141.532 12.0225 141.755 5.02777 141.178L12.6372 156.395L28.1983 152.146L22.6604 140.691Z" fill="#D61F26"/>
        <path fill-rule="evenodd" clip-rule="evenodd" d="M33.0937 161.816L17.491 166.077L22.3511 175.738L37.9664 171.509L33.0937 161.816Z" fill="#D61F26"/>
        <path fill-rule="evenodd" clip-rule="evenodd" d="M42.8088 181.157L27.1619 185.375L31.9993 195.035L47.7244 190.849L42.8088 181.157Z" fill="#D61F26"/>
        <path fill-rule="evenodd" clip-rule="evenodd" d="M36.8896 204.668L42.5854 216.157C48.083 216.456 53.8986 215.546 59.5565 213.942L52.5769 200.52L36.8896 204.668Z" fill="#D61F26"/>
        <path fill-rule="evenodd" clip-rule="evenodd" d="M85.3388 125.996L92.2653 139.826C97.1936 135.684 102.446 130.756 108.051 126.06L95.0716 102.881C99.7461 111.89 93.3724 119.475 85.3388 125.996Z" fill="white"/>
        <path fill-rule="evenodd" clip-rule="evenodd" d="M66.1952 146.264C66.5474 146.796 67.0763 147.253 67.7845 147.727C74.7679 152.656 82.9618 147.63 92.2641 139.826L85.3388 125.996C75.0304 134.306 61.9487 140.827 66.1952 146.264Z" fill="#D61F26"/>
        <path d="M66.1952 146.264C58.3598 136.188 109.752 122.438 93.4507 100.303C88.857 94.019 73.3452 95.929 57.2047 113.892C44.7061 127.676 39.1947 144.064 5.02527 141.178L42.5841 216.157C61.5258 217.152 84.671 204.184 89.7003 196.233L66.1952 146.264Z" stroke="#211E1F" stroke-width="5.93812"/>
        <path d="M108.051 126.06C91.9738 139.57 78.4767 155.245 67.7858 147.727C67.0776 147.253 66.5487 146.796 66.1965 146.264C58.6792 136.584 105.785 123.503 95.0729 102.881L108.051 126.06Z" stroke="#211E1F" stroke-width="5.93812"/>
        <path fill-rule="evenodd" clip-rule="evenodd" d="M426.122 140.691L420.571 152.145L436.075 156.395L431.261 166.077L415.649 161.816L410.793 171.509L426.405 175.738L421.59 185.374L405.957 181.157L401.056 190.849L416.735 195.035L411.875 204.668L396.179 200.52L389.195 213.942C386.269 213.107 383.342 212.11 380.567 210.94L417.057 138.117C419.723 139.234 422.653 140.113 426.122 140.691Z" fill="white"/>
        <path fill-rule="evenodd" clip-rule="evenodd" d="M383.275 144.719C384.339 139.559 372.608 133.397 363.198 125.803L375.689 100.823C380.589 103.523 386.052 107.74 391.625 113.892C392.991 115.402 394.29 116.989 395.571 118.566L383.275 144.719Z" fill="white"/>
        <path fill-rule="evenodd" clip-rule="evenodd" d="M355.262 100.303C358.32 96.1813 366.103 95.6309 375.689 100.823L363.198 125.802C354.526 118.732 347.844 110.387 355.262 100.303Z" fill="#D61F26"/>
        <path fill-rule="evenodd" clip-rule="evenodd" d="M417.057 138.117L380.567 210.94C370.374 206.701 361.918 200.706 359.058 196.275L382.562 146.264C382.973 145.739 383.168 145.261 383.275 144.719L395.57 118.566C401.728 126.203 406.976 133.819 417.057 138.117Z" fill="#D61F26"/>
        <path fill-rule="evenodd" clip-rule="evenodd" d="M426.122 140.691C431.002 141.532 436.767 141.755 443.751 141.178L436.075 156.395L420.571 152.146L426.122 140.691Z" fill="#D61F26"/>
        <path fill-rule="evenodd" clip-rule="evenodd" d="M415.648 161.816L431.26 166.077L426.403 175.738L410.792 171.509L415.648 161.816Z" fill="#D61F26"/>
        <path fill-rule="evenodd" clip-rule="evenodd" d="M405.956 181.157L421.589 185.375L416.734 195.035L401.055 190.849L405.956 181.157Z" fill="#D61F26"/>
        <path fill-rule="evenodd" clip-rule="evenodd" d="M411.874 204.668L406.15 216.157C400.688 216.456 394.834 215.546 389.194 213.942L396.177 200.52L411.874 204.668Z" fill="#D61F26"/>
        <path fill-rule="evenodd" clip-rule="evenodd" d="M363.393 125.996L356.476 139.826C351.556 135.684 346.265 130.756 340.736 126.06L353.679 102.881C348.997 111.89 355.391 119.475 363.393 125.996Z" fill="white"/>
        <path fill-rule="evenodd" clip-rule="evenodd" d="M382.562 146.264C382.172 146.796 381.627 147.253 380.979 147.727C373.952 152.656 365.823 147.63 356.476 139.826L363.393 125.996C373.715 134.306 386.769 140.827 382.562 146.264Z" fill="#D61F26"/>
        <path d="M382.562 146.264C390.366 136.188 339.021 122.438 355.262 100.303C359.923 94.019 375.428 95.929 391.625 113.892C404.049 127.676 409.556 144.064 443.751 141.178L406.151 216.157C387.244 217.152 364.087 204.184 359.036 196.233L382.562 146.264Z" stroke="#211E1F" stroke-width="5.93812"/>
        <path d="M340.736 126.06C356.802 139.57 370.266 155.245 380.979 147.727C381.628 147.253 382.172 146.796 382.562 146.264C390.087 136.584 342.968 123.503 353.679 102.881L340.736 126.06Z" stroke="#211E1F" stroke-width="5.93812"/>
        <path fill-rule="evenodd" clip-rule="evenodd" d="M271.305 123.556C267.945 126.257 262.114 130.177 255.608 134.127V185.997C262.938 181.547 270.395 176.774 277.442 172.972V119.211C275.015 120.818 272.866 122.311 271.305 123.556Z" fill="white"/>
        <path fill-rule="evenodd" clip-rule="evenodd" d="M306.28 109.474C305.978 109.474 305.673 109.55 305.37 109.55L297.954 165.59C298.236 165.58 298.56 165.501 298.866 165.501C304.937 165.501 310.572 167.548 315.884 170.543L332.475 119.622C324.344 113.81 315.605 109.474 306.28 109.474Z" fill="white"/>
        <path fill-rule="evenodd" clip-rule="evenodd" d="M380.979 147.727C374.04 152.59 365.909 147.727 356.715 140.024L335.119 185.132C343.902 192.725 351.706 198.998 359.035 196.233L382.562 146.264C382.172 146.796 381.626 147.253 380.979 147.727Z" fill="white"/>
        <path fill-rule="evenodd" clip-rule="evenodd" d="M67.7845 147.727C67.0763 147.253 66.5474 146.796 66.1952 146.264L89.699 196.231C97.0951 198.998 104.875 192.725 113.655 185.132L92.023 140.024C82.7952 147.727 74.7237 152.59 67.7845 147.727Z" fill="white"/>
        <path fill-rule="evenodd" clip-rule="evenodd" d="M224.385 147.601C222.222 147.601 219.337 146.865 216.078 145.695V197.877C219.088 198.927 221.873 199.56 224.385 199.56C226.862 199.56 229.669 198.927 232.646 197.877V145.695C229.442 146.865 226.524 147.601 224.385 147.601Z" fill="white"/>
        <path fill-rule="evenodd" clip-rule="evenodd" d="M142.455 109.474C133.159 109.474 124.428 113.81 116.302 119.622L132.912 170.543C138.17 167.548 143.812 165.501 149.905 165.501C150.181 165.501 150.497 165.58 150.783 165.59L143.387 109.55C143.078 109.55 142.785 109.474 142.455 109.474Z" fill="white"/>
        <path fill-rule="evenodd" clip-rule="evenodd" d="M177.437 123.556C175.876 122.311 173.806 120.818 171.332 119.211V172.972C178.391 176.774 185.849 181.547 193.134 185.997V134.127C186.608 130.174 180.777 126.257 177.437 123.556Z" fill="white"/>
        <path fill-rule="evenodd" clip-rule="evenodd" d="M193.134 134.127V185.997C201.303 190.979 209.29 195.554 216.08 197.877V145.695C209.288 143.255 200.716 138.715 193.134 134.127Z" fill="#D61F26"/>
        <path fill-rule="evenodd" clip-rule="evenodd" d="M143.386 109.55L150.782 165.59C156.575 165.869 163.668 168.84 171.331 172.972V119.211C164.308 114.754 154.17 109.848 143.386 109.55Z" fill="#D61F26"/>
        <path fill-rule="evenodd" clip-rule="evenodd" d="M92.023 140.024L113.655 185.132C119.542 180.033 125.867 174.451 132.911 170.543L116.301 119.622C107.51 125.882 99.4065 133.853 92.023 140.024Z" fill="#D61F26"/>
        <path fill-rule="evenodd" clip-rule="evenodd" d="M232.646 145.695V197.877C239.474 195.554 247.433 190.982 255.608 185.997V134.127C248.063 138.715 239.496 143.255 232.646 145.695Z" fill="#D61F26"/>
        <path fill-rule="evenodd" clip-rule="evenodd" d="M277.442 119.211V172.972C285.095 168.84 292.166 165.869 297.954 165.59L305.37 109.55C294.592 109.848 284.469 114.754 277.442 119.211Z" fill="#D61F26"/>
        <path fill-rule="evenodd" clip-rule="evenodd" d="M332.475 119.622L315.884 170.543C322.867 174.451 329.198 180.033 335.117 185.132L356.714 140.024C349.365 133.85 341.278 125.882 332.475 119.622Z" fill="#D61F26"/>
        <path d="M224.385 199.56C243.162 199.56 279.134 165.501 298.866 165.501C325.102 165.501 343.032 202.261 359.035 196.233L382.562 146.264C382.172 146.796 381.628 147.253 380.979 147.727C363.35 160.164 338.242 109.474 306.28 109.474C291.386 109.474 277.507 118.754 271.305 123.556C262.047 130.942 234.942 147.601 224.385 147.601C213.873 147.601 186.672 130.942 177.436 123.556C171.247 118.754 157.356 109.474 142.455 109.474C110.562 109.474 85.4272 160.164 67.7858 147.727C67.0776 147.253 66.5487 146.796 66.1965 146.264L89.7015 196.231C105.722 202.261 123.675 165.501 149.905 165.501C169.62 165.501 205.644 199.56 224.385 199.56Z" stroke="#211E1F" stroke-width="5.93812"/>
        <path fill-rule="evenodd" clip-rule="evenodd" d="M225.194 96.6055C273.691 96.6055 313.003 75.2919 313.003 49.0551C313.003 22.7918 273.691 1.48706 225.194 1.48706C176.716 1.48706 137.374 22.7918 137.374 49.0551C137.374 75.2919 176.714 96.6055 225.194 96.6055Z" fill="#211E1F"/>
        <path d="M225.194 96.6055C273.691 96.6055 313.003 75.2919 313.003 49.0551C313.003 22.7918 273.691 1.48706 225.194 1.48706C176.716 1.48706 137.374 22.7918 137.374 49.0551C137.374 75.2919 176.714 96.6055 225.194 96.6055Z" stroke="white" stroke-width="2.97411"/>
        <path fill-rule="evenodd" clip-rule="evenodd" d="M225.285 88.8801C268.355 88.8801 303.354 71.0531 303.354 49.0553C303.354 27.0373 268.355 9.2356 225.285 9.2356C182.11 9.2356 147.231 27.0373 147.231 49.0553C147.231 71.0531 182.11 88.8801 225.285 88.8801Z" fill="#FFC213"/>
        <path d="M225.285 88.8801C268.355 88.8801 303.354 71.0531 303.354 49.0553C303.354 27.0373 268.355 9.2356 225.285 9.2356C182.11 9.2356 147.231 27.0373 147.231 49.0553C147.231 71.0531 182.11 88.8801 225.285 88.8801Z" stroke="#211E1F" stroke-width="0.00252471"/>
        <path fill-rule="evenodd" clip-rule="evenodd" d="M225.354 79.3441C260.42 79.3441 288.935 67.9501 288.935 53.9013C288.935 39.8892 260.42 28.509 225.354 28.509C190.251 28.509 161.781 39.8892 161.781 53.9013C161.781 67.9501 190.249 79.3441 225.354 79.3441Z" fill="white"/>
        <path d="M225.354 79.3441C260.42 79.3441 288.935 67.9501 288.935 53.9013C288.935 39.8892 260.42 28.509 225.354 28.509C190.251 28.509 161.781 39.8892 161.781 53.9013C161.781 67.9501 190.249 79.3441 225.354 79.3441Z" stroke="#211E1F" stroke-width="11.9116"/>
        <path fill-rule="evenodd" clip-rule="evenodd" d="M225.137 35.8169C191.325 35.8169 163.994 63.2453 163.994 96.9957C163.994 130.809 191.325 158.176 225.137 158.176H224.385C258.124 158.176 285.551 130.809 285.551 96.9957C285.551 63.2453 258.122 35.8169 224.385 35.8169H225.137Z" fill="white"/>
        <path d="M225.137 35.8169C191.325 35.8169 163.994 63.2453 163.994 96.9957C163.994 130.809 191.325 158.176 225.137 158.176H224.385C258.124 158.176 285.551 130.809 285.551 96.9957C285.551 63.2453 258.122 35.8169 224.385 35.8169H225.137Z" stroke="#211E1F" stroke-width="5.93812"/>
        <path fill-rule="evenodd" clip-rule="evenodd" d="M214.969 147.576L202.382 126.203L179.332 122.438L173.543 129.768C173.805 130.133 173.949 130.523 174.226 130.863L175.224 132.295C182.943 143.193 194.067 151.456 207.13 155.491L209.484 155.928L214.969 147.576Z" fill="#211E1F"/>
        <path fill-rule="evenodd" clip-rule="evenodd" d="M199.216 88.5343L209.109 119.04H240.388L250.274 88.5343L224.716 70.0269L199.216 88.5343Z" fill="#211E1F"/>
        <path fill-rule="evenodd" clip-rule="evenodd" d="M224.715 57.6632V57.619L243.748 45.1861V39.0334C237.785 37.0224 231.407 35.8926 224.737 35.8396C218.135 35.8926 211.759 37.0224 205.751 39.0334V45.1861L224.715 57.6632Z" fill="#211E1F"/>
        <path fill-rule="evenodd" clip-rule="evenodd" d="M189.469 78.8318L190.137 54.5719L185.209 50.7368C182.597 52.9459 180.199 55.3532 178.046 57.984L177.794 58.239C170.834 66.7548 166.183 77.168 164.6 88.6037L170.052 91.0022L189.469 78.8318Z" fill="#211E1F"/>
        <path fill-rule="evenodd" clip-rule="evenodd" d="M247.175 126.203L234.597 147.576L240.042 155.928L242.318 155.501C255.565 151.437 266.949 142.932 274.69 131.785L275.168 131.043C275.47 130.608 275.711 130.133 275.992 129.768L270.159 122.438L247.175 126.203Z" fill="#211E1F"/>
        <path fill-rule="evenodd" clip-rule="evenodd" d="M260.073 78.8318L279.436 91.0022L284.9 88.6037C283.317 77.1226 278.633 66.6564 271.611 58.1064L271.567 58.0976C269.398 55.4189 266.903 52.9901 264.326 50.7368L259.382 54.5719L260.073 78.8318Z" fill="#211E1F"/>
    </g>
    <defs>
        <clipPath id="clip0_3_3959">
            <rect width="448.779" height="512" fill="white"/>
        </clipPath>
    </defs>
</svg>
